STARTFONT 2.1
FONT -Deviation--12-120-75-75
SIZE 12 75 75
FONTBOUNDINGBOX 12 12 0 -2
STARTPROPERTIES 8
FONT_NAME "Deviation"
FONT_ASCENT 10
FONT_DESCENT 2
PIXEL_SIZE 12
POINT_SIZE 120
RESOLUTION_X 75
RESOLUTION_Y 75
RESOLUTION 75
ENDPROPERTIES
CHARS 15780
STARTCHAR uni0020
ENCODING 32
SWIDTH 500 0
DWIDTH 6 0
BBX 3 1 0 0
BITMAP
00
ENDCHAR
STARTCHAR uni0021
ENCODING 33
SWIDTH 500 0
DWIDTH 6 0
BBX 1 9 0 0
BITMAP
80
80
80
80
80
80
00
00
80
ENDCHAR
STARTCHAR uni0022
ENCODING 34
SWIDTH 500 0
DWIDTH 6 0
BBX 4 3 0 6
BITMAP
50
50
A0
ENDCHAR
STARTCHAR uni0023
ENCODING 35
SWIDTH 500 0
DWIDTH 6 0
BBX 6 9 0 0
BITMAP
28
28
28
7C
28
FC
50
50
50
ENDCHAR
STARTCHAR uni0024
ENCODING 36
SWIDTH 500 0
DWIDTH 6 0
BBX 5 9 0 0
BITMAP
20
70
A8
A0
70
28
A8
70
20
ENDCHAR
STARTCHAR uni0025
ENCODING 37
SWIDTH 500 0
DWIDTH 6 0
BBX 6 10 0 -1
BITMAP
48
A8
A8
B0
50
28
54
54
94
88
ENDCHAR
STARTCHAR uni0026
ENCODING 38
SWIDTH 500 0
DWIDTH 6 0
BBX 5 9 0 0
BITMAP
20
50
50
50
60
A8
90
90
68
ENDCHAR
STARTCHAR uni0027
ENCODING 39
SWIDTH 500 0
DWIDTH 6 0
BBX 2 3 0 6
BITMAP
C0
40
80
ENDCHAR
STARTCHAR uni0028
ENCODING 40
SWIDTH 500 0
DWIDTH 6 0
BBX 3 10 0 -1
BITMAP
20
40
40
80
80
80
80
40
40
20
ENDCHAR
STARTCHAR uni0029
ENCODING 41
SWIDTH 500 0
DWIDTH 6 0
BBX 3 10 0 -1
BITMAP
80
40
40
20
20
20
20
40
40
80
ENDCHAR
STARTCHAR uni002A
ENCODING 42
SWIDTH 500 0
DWIDTH 6 0
BBX 5 7 0 1
BITMAP
20
A8
70
20
70
A8
20
ENDCHAR
STARTCHAR uni002B
ENCODING 43
SWIDTH 500 0
DWIDTH 6 0
BBX 5 7 0 1
BITMAP
20
20
20
F8
20
20
20
ENDCHAR
STARTCHAR uni002C
ENCODING 44
SWIDTH 500 0
DWIDTH 6 0
BBX 2 3 0 0
BITMAP
C0
40
80
ENDCHAR
STARTCHAR uni002D
ENCODING 45
SWIDTH 500 0
DWIDTH 6 0
BBX 3 1 0 4
BITMAP
E0
ENDCHAR
STARTCHAR uni002E
ENCODING 46
SWIDTH 500 0
DWIDTH 6 0
BBX 1 2 0 0
BITMAP
80
80
ENDCHAR
STARTCHAR uni002F
ENCODING 47
SWIDTH 500 0
DWIDTH 6 0
BBX 5 10 0 -1
BITMAP
08
08
10
10
20
20
40
40
80
80
ENDCHAR
STARTCHAR uni0030
ENCODING 48
SWIDTH 500 0
DWIDTH 6 0
BBX 5 9 0 0
BITMAP
20
50
88
88
88
88
88
50
20
ENDCHAR
STARTCHAR uni0031
ENCODING 49
SWIDTH 500 0
DWIDTH 6 0
BBX 3 9 0 0
BITMAP
40
C0
40
40
40
40
40
40
E0
ENDCHAR
STARTCHAR uni0032
ENCODING 50
SWIDTH 500 0
DWIDTH 6 0
BBX 5 9 0 0
BITMAP
70
88
88
08
10
20
40
88
F8
ENDCHAR
STARTCHAR uni0033
ENCODING 51
SWIDTH 500 0
DWIDTH 6 0
BBX 5 9 0 0
BITMAP
70
88
08
08
30
08
08
88
70
ENDCHAR
STARTCHAR uni0034
ENCODING 52
SWIDTH 500 0
DWIDTH 6 0
BBX 5 9 0 0
BITMAP
10
30
30
50
50
90
F8
10
38
ENDCHAR
STARTCHAR uni0035
ENCODING 53
SWIDTH 500 0
DWIDTH 6 0
BBX 5 9 0 0
BITMAP
78
40
40
40
70
08
08
88
70
ENDCHAR
STARTCHAR uni0036
ENCODING 54
SWIDTH 500 0
DWIDTH 6 0
BBX 5 9 0 0
BITMAP
70
88
80
80
F0
88
88
88
70
ENDCHAR
STARTCHAR uni0037
ENCODING 55
SWIDTH 500 0
DWIDTH 6 0
BBX 5 9 0 0
BITMAP
F8
88
08
10
10
20
20
20
20
ENDCHAR
STARTCHAR uni0038
ENCODING 56
SWIDTH 500 0
DWIDTH 6 0
BBX 5 9 0 0
BITMAP
70
88
88
88
70
88
88
88
70
ENDCHAR
STARTCHAR uni0039
ENCODING 57
SWIDTH 500 0
DWIDTH 6 0
BBX 5 9 0 0
BITMAP
70
88
88
88
78
08
08
88
70
ENDCHAR
STARTCHAR uni003A
ENCODING 58
SWIDTH 500 0
DWIDTH 6 0
BBX 1 7 0 1
BITMAP
80
80
00
00
00
80
80
ENDCHAR
STARTCHAR uni003B
ENCODING 59
SWIDTH 500 0
DWIDTH 6 0
BBX 2 6 0 0
BITMAP
C0
00
00
C0
40
80
ENDCHAR
STARTCHAR uni003C
ENCODING 60
SWIDTH 500 0
DWIDTH 6 0
BBX 5 10 0 -1
BITMAP
08
10
20
40
80
80
40
20
10
08
ENDCHAR
STARTCHAR uni003D
ENCODING 61
SWIDTH 500 0
DWIDTH 6 0
BBX 5 3 0 2
BITMAP
F8
00
F8
ENDCHAR
STARTCHAR uni003E
ENCODING 62
SWIDTH 500 0
DWIDTH 6 0
BBX 5 10 0 -1
BITMAP
80
40
20
10
08
08
10
20
40
80
ENDCHAR
STARTCHAR uni003F
ENCODING 63
SWIDTH 500 0
DWIDTH 6 0
BBX 5 9 0 0
BITMAP
70
88
88
10
20
20
20
00
20
ENDCHAR
STARTCHAR uni0040
ENCODING 64
SWIDTH 500 0
DWIDTH 6 0
BBX 6 10 0 -1
BITMAP
30
48
B4
D4
D4
D4
D4
A8
80
78
ENDCHAR
STARTCHAR uni0041
ENCODING 65
SWIDTH 500 0
DWIDTH 6 0
BBX 5 9 0 0
BITMAP
20
20
20
50
50
70
88
88
88
ENDCHAR
STARTCHAR uni0042
ENCODING 66
SWIDTH 500 0
DWIDTH 6 0
BBX 5 9 0 0
BITMAP
F0
88
88
88
F0
88
88
88
F0
ENDCHAR
STARTCHAR uni0043
ENCODING 67
SWIDTH 500 0
DWIDTH 6 0
BBX 5 9 0 0
BITMAP
30
48
88
80
80
80
80
48
30
ENDCHAR
STARTCHAR uni0044
ENCODING 68
SWIDTH 500 0
DWIDTH 6 0
BBX 5 9 0 0
BITMAP
E0
90
88
88
88
88
88
90
E0
ENDCHAR
STARTCHAR uni0045
ENCODING 69
SWIDTH 500 0
DWIDTH 6 0
BBX 5 9 0 0
BITMAP
F8
80
80
80
F0
80
80
80
F8
ENDCHAR
STARTCHAR uni0046
ENCODING 70
SWIDTH 500 0
DWIDTH 6 0
BBX 5 9 0 0
BITMAP
F8
80
80
80
F0
80
80
80
80
ENDCHAR
STARTCHAR uni0047
ENCODING 71
SWIDTH 500 0
DWIDTH 6 0
BBX 5 9 0 0
BITMAP
30
48
80
80
80
98
88
48
30
ENDCHAR
STARTCHAR uni0048
ENCODING 72
SWIDTH 500 0
DWIDTH 6 0
BBX 5 9 0 0
BITMAP
88
88
88
88
F8
88
88
88
88
ENDCHAR
STARTCHAR uni0049
ENCODING 73
SWIDTH 500 0
DWIDTH 6 0
BBX 3 9 0 0
BITMAP
E0
40
40
40
40
40
40
40
E0
ENDCHAR
STARTCHAR uni004A
ENCODING 74
SWIDTH 500 0
DWIDTH 6 0
BBX 5 9 0 0
BITMAP
38
10
10
10
10
10
10
90
60
ENDCHAR
STARTCHAR uni004B
ENCODING 75
SWIDTH 500 0
DWIDTH 6 0
BBX 5 9 0 0
BITMAP
88
88
90
A0
E0
90
90
88
88
ENDCHAR
STARTCHAR uni004C
ENCODING 76
SWIDTH 500 0
DWIDTH 6 0
BBX 5 9 0 0
BITMAP
E0
40
40
40
40
40
40
48
F8
ENDCHAR
STARTCHAR uni004D
ENCODING 77
SWIDTH 500 0
DWIDTH 6 0
BBX 5 9 0 0
BITMAP
88
88
D8
D8
A8
A8
A8
88
88
ENDCHAR
STARTCHAR uni004E
ENCODING 78
SWIDTH 500 0
DWIDTH 6 0
BBX 5 9 0 0
BITMAP
88
C8
C8
A8
A8
A8
98
98
88
ENDCHAR
STARTCHAR uni004F
ENCODING 79
SWIDTH 500 0
DWIDTH 6 0
BBX 5 9 0 0
BITMAP
70
88
88
88
88
88
88
88
70
ENDCHAR
STARTCHAR uni0050
ENCODING 80
SWIDTH 500 0
DWIDTH 6 0
BBX 5 9 0 0
BITMAP
F0
48
48
48
70
40
40
40
E0
ENDCHAR
STARTCHAR uni0051
ENCODING 81
SWIDTH 500 0
DWIDTH 6 0
BBX 5 9 0 0
BITMAP
70
88
88
88
88
E8
98
70
08
ENDCHAR
STARTCHAR uni0052
ENCODING 82
SWIDTH 500 0
DWIDTH 6 0
BBX 5 9 0 0
BITMAP
F0
88
88
88
F0
A0
90
88
88
ENDCHAR
STARTCHAR uni0053
ENCODING 83
SWIDTH 500 0
DWIDTH 6 0
BBX 5 9 0 0
BITMAP
70
88
88
80
70
08
88
88
70
ENDCHAR
STARTCHAR uni0054
ENCODING 84
SWIDTH 500 0
DWIDTH 6 0
BBX 5 9 0 0
BITMAP
F8
A8
20
20
20
20
20
20
70
ENDCHAR
STARTCHAR uni0055
ENCODING 85
SWIDTH 500 0
DWIDTH 6 0
BBX 5 9 0 0
BITMAP
88
88
88
88
88
88
88
88
70
ENDCHAR
STARTCHAR uni0056
ENCODING 86
SWIDTH 500 0
DWIDTH 6 0
BBX 5 9 0 0
BITMAP
88
88
88
50
50
50
20
20
20
ENDCHAR
STARTCHAR uni0057
ENCODING 87
SWIDTH 500 0
DWIDTH 6 0
BBX 5 9 0 0
BITMAP
A8
A8
A8
A8
F8
50
50
50
50
ENDCHAR
STARTCHAR uni0058
ENCODING 88
SWIDTH 500 0
DWIDTH 6 0
BBX 5 9 0 0
BITMAP
88
88
50
50
20
50
50
88
88
ENDCHAR
STARTCHAR uni0059
ENCODING 89
SWIDTH 500 0
DWIDTH 6 0
BBX 5 9 0 0
BITMAP
88
88
50
50
20
20
20
20
20
ENDCHAR
STARTCHAR uni005A
ENCODING 90
SWIDTH 500 0
DWIDTH 6 0
BBX 5 9 0 0
BITMAP
F8
88
10
10
20
20
40
88
F8
ENDCHAR
STARTCHAR uni005B
ENCODING 91
SWIDTH 500 0
DWIDTH 6 0
BBX 2 10 0 -1
BITMAP
C0
80
80
80
80
80
80
80
80
C0
ENDCHAR
STARTCHAR uni005C
ENCODING 92
SWIDTH 500 0
DWIDTH 6 0
BBX 5 10 0 -1
BITMAP
80
80
40
40
20
20
10
10
08
08
ENDCHAR
STARTCHAR uni005D
ENCODING 93
SWIDTH 500 0
DWIDTH 6 0
BBX 2 10 0 -1
BITMAP
C0
40
40
40
40
40
40
40
40
C0
ENDCHAR
STARTCHAR uni005E
ENCODING 94
SWIDTH 500 0
DWIDTH 6 0
BBX 5 3 0 6
BITMAP
20
50
88
ENDCHAR
STARTCHAR uni005F
ENCODING 95
SWIDTH 500 0
DWIDTH 6 0
BBX 5 1 0 -1
BITMAP
F8
ENDCHAR
STARTCHAR uni0060
ENCODING 96
SWIDTH 500 0
DWIDTH 6 0
BBX 3 3 0 6
BITMAP
C0
40
20
ENDCHAR
STARTCHAR uni0061
ENCODING 97
SWIDTH 500 0
DWIDTH 6 0
BBX 5 6 0 0
BITMAP
E0
10
70
90
90
68
ENDCHAR
STARTCHAR uni0062
ENCODING 98
SWIDTH 500 0
DWIDTH 6 0
BBX 5 9 0 0
BITMAP
80
80
80
F0
88
88
88
C8
B0
ENDCHAR
STARTCHAR uni0063
ENCODING 99
SWIDTH 500 0
DWIDTH 6 0
BBX 5 6 0 0
BITMAP
70
88
80
80
88
70
ENDCHAR
STARTCHAR uni0064
ENCODING 100
SWIDTH 500 0
DWIDTH 6 0
BBX 5 9 0 0
BITMAP
08
08
08
78
88
88
88
98
68
ENDCHAR
STARTCHAR uni0065
ENCODING 101
SWIDTH 500 0
DWIDTH 6 0
BBX 5 6 0 0
BITMAP
70
88
F8
80
88
70
ENDCHAR
STARTCHAR uni0066
ENCODING 102
SWIDTH 500 0
DWIDTH 6 0
BBX 5 9 0 0
BITMAP
30
48
40
F0
40
40
40
40
E0
ENDCHAR
STARTCHAR uni0067
ENCODING 103
SWIDTH 500 0
DWIDTH 6 0
BBX 5 7 0 -1
BITMAP
68
90
90
60
90
88
70
ENDCHAR
STARTCHAR uni0068
ENCODING 104
SWIDTH 500 0
DWIDTH 6 0
BBX 5 9 0 0
BITMAP
80
80
80
B0
C8
88
88
88
88
ENDCHAR
STARTCHAR uni0069
ENCODING 105
SWIDTH 500 0
DWIDTH 6 0
BBX 3 9 0 0
BITMAP
40
00
00
C0
40
40
40
40
E0
ENDCHAR
STARTCHAR uni006A
ENCODING 106
SWIDTH 500 0
DWIDTH 6 0
BBX 3 10 0 -1
BITMAP
20
00
00
60
20
20
20
A0
A0
40
ENDCHAR
STARTCHAR uni006B
ENCODING 107
SWIDTH 500 0
DWIDTH 6 0
BBX 5 9 0 0
BITMAP
80
80
88
90
A0
C0
A0
90
88
ENDCHAR
STARTCHAR uni006C
ENCODING 108
SWIDTH 500 0
DWIDTH 6 0
BBX 3 9 0 0
BITMAP
C0
40
40
40
40
40
40
40
E0
ENDCHAR
STARTCHAR uni006D
ENCODING 109
SWIDTH 500 0
DWIDTH 6 0
BBX 5 6 0 0
BITMAP
D0
A8
A8
A8
A8
A8
ENDCHAR
STARTCHAR uni006E
ENCODING 110
SWIDTH 500 0
DWIDTH 6 0
BBX 5 6 0 0
BITMAP
B0
48
48
48
48
48
ENDCHAR
STARTCHAR uni006F
ENCODING 111
SWIDTH 500 0
DWIDTH 6 0
BBX 5 6 0 0
BITMAP
70
88
88
88
88
70
ENDCHAR
STARTCHAR uni0070
ENCODING 112
SWIDTH 500 0
DWIDTH 6 0
BBX 5 7 0 -1
BITMAP
F0
88
88
F0
80
80
80
ENDCHAR
STARTCHAR uni0071
ENCODING 113
SWIDTH 500 0
DWIDTH 6 0
BBX 5 7 0 -1
BITMAP
78
88
88
88
78
08
08
ENDCHAR
STARTCHAR uni0072
ENCODING 114
SWIDTH 500 0
DWIDTH 6 0
BBX 5 6 0 0
BITMAP
D0
68
40
40
40
E0
ENDCHAR
STARTCHAR uni0073
ENCODING 115
SWIDTH 500 0
DWIDTH 6 0
BBX 5 6 0 0
BITMAP
70
88
60
10
88
70
ENDCHAR
STARTCHAR uni0074
ENCODING 116
SWIDTH 500 0
DWIDTH 6 0
BBX 5 8 0 0
BITMAP
40
40
F0
40
40
40
48
30
ENDCHAR
STARTCHAR uni0075
ENCODING 117
SWIDTH 500 0
DWIDTH 6 0
BBX 5 6 0 0
BITMAP
88
88
88
88
98
68
ENDCHAR
STARTCHAR uni0076
ENCODING 118
SWIDTH 500 0
DWIDTH 6 0
BBX 5 6 0 0
BITMAP
88
88
50
50
20
20
ENDCHAR
STARTCHAR uni0077
ENCODING 119
SWIDTH 500 0
DWIDTH 6 0
BBX 5 6 0 0
BITMAP
A8
A8
A8
50
50
50
ENDCHAR
STARTCHAR uni0078
ENCODING 120
SWIDTH 500 0
DWIDTH 6 0
BBX 5 6 0 0
BITMAP
88
50
20
20
50
88
ENDCHAR
STARTCHAR uni0079
ENCODING 121
SWIDTH 500 0
DWIDTH 6 0
BBX 5 7 0 -1
BITMAP
88
88
50
50
20
20
C0
ENDCHAR
STARTCHAR uni007A
ENCODING 122
SWIDTH 500 0
DWIDTH 6 0
BBX 5 6 0 0
BITMAP
F8
88
10
20
48
F8
ENDCHAR
STARTCHAR uni007B
ENCODING 123
SWIDTH 500 0
DWIDTH 6 0
BBX 3 10 0 -1
BITMAP
20
40
40
40
40
80
40
40
40
20
ENDCHAR
STARTCHAR uni007C
ENCODING 124
SWIDTH 500 0
DWIDTH 6 0
BBX 1 11 0 -1
BITMAP
80
80
80
80
80
80
80
80
80
80
80
ENDCHAR
STARTCHAR uni007D
ENCODING 125
SWIDTH 500 0
DWIDTH 6 0
BBX 3 10 0 -1
BITMAP
80
40
40
40
40
20
40
40
40
80
ENDCHAR
STARTCHAR uni007E
ENCODING 126
SWIDTH 500 0
DWIDTH 6 0
BBX 4 2 0 4
BITMAP
50
A0
ENDCHAR
STARTCHAR uni00A1
ENCODING 161
SWIDTH 500 0
DWIDTH 6 0
BBX 1 8 0 -2
BITMAP
8000
0000
8000
8000
8000
8000
8000
8000
ENDCHAR
STARTCHAR uni00A2
ENCODING 162
SWIDTH 500 0
DWIDTH 6 0
BBX 3 9 0 -1
BITMAP
4000
6000
8000
8000
8000
8000
8000
6000
4000
ENDCHAR
STARTCHAR uni00A3
ENCODING 163
SWIDTH 500 0
DWIDTH 6 0
BBX 4 8 0 0
BITMAP
3000
4000
4000
4000
E000
4000
4000
7000
ENDCHAR
STARTCHAR uni00A4
ENCODING 164
SWIDTH 500 0
DWIDTH 6 0
BBX 3 6 0 1
BITMAP
A000
E000
A000
A000
E000
A000
ENDCHAR
STARTCHAR uni00A5
ENCODING 165
SWIDTH 500 0
DWIDTH 6 0
BBX 5 8 0 0
BITMAP
8800
5000
5000
5000
7000
2000
7000
2000
ENDCHAR
STARTCHAR uni00A6
ENCODING 166
SWIDTH 500 0
DWIDTH 6 0
BBX 1 11 0 -2
BITMAP
8000
8000
8000
8000
0000
0000
0000
8000
8000
8000
8000
ENDCHAR
STARTCHAR uni00A7
ENCODING 167
SWIDTH 500 0
DWIDTH 6 0
BBX 3 9 0 -1
BITMAP
6000
8000
C000
A000
A000
A000
6000
2000
C000
ENDCHAR
STARTCHAR uni00A8
ENCODING 168
SWIDTH 500 0
DWIDTH 6 0
BBX 3 1 0 7
BITMAP
A000
ENDCHAR
STARTCHAR uni00A9
ENCODING 169
SWIDTH 500 0
DWIDTH 6 0
BBX 6 8 0 0
BITMAP
7800
8400
9400
A400
A400
9400
8400
7800
ENDCHAR
STARTCHAR uni00AA
ENCODING 170
SWIDTH 500 0
DWIDTH 6 0
BBX 2 4 0 4
BITMAP
C000
4000
C000
C000
ENDCHAR
STARTCHAR uni00AB
ENCODING 171
SWIDTH 500 0
DWIDTH 6 0
BBX 4 5 0 1
BITMAP
5000
A000
A000
A000
5000
ENDCHAR
STARTCHAR uni00AC
ENCODING 172
SWIDTH 500 0
DWIDTH 6 0
BBX 4 3 0 2
BITMAP
F000
1000
1000
ENDCHAR
STARTCHAR uni00AD
ENCODING 173
SWIDTH 500 0
DWIDTH 6 0
BBX 2 1 0 3
BITMAP
C000
ENDCHAR
STARTCHAR uni00AE
ENCODING 174
SWIDTH 500 0
DWIDTH 6 0
BBX 6 8 0 0
BITMAP
7800
8400
B400
B400
B400
B400
8400
7800
ENDCHAR
STARTCHAR uni00AF
ENCODING 175
SWIDTH 500 0
DWIDTH 6 0
BBX 2 1 0 7
BITMAP
C000
ENDCHAR
STARTCHAR uni00B0
ENCODING 176
SWIDTH 500 0
DWIDTH 6 0
BBX 3 3 0 6
BITMAP
4000
A000
4000
ENDCHAR
STARTCHAR uni00B1
ENCODING 177
SWIDTH 500 0
DWIDTH 6 0
BBX 3 6 0 0
BITMAP
4000
4000
E000
4000
4000
E000
ENDCHAR
STARTCHAR uni00B2
ENCODING 178
SWIDTH 500 0
DWIDTH 6 0
BBX 3 5 0 3
BITMAP
C000
2000
4000
8000
E000
ENDCHAR
STARTCHAR uni00B3
ENCODING 179
SWIDTH 500 0
DWIDTH 6 0
BBX 3 5 0 3
BITMAP
C000
2000
4000
2000
C000
ENDCHAR
STARTCHAR uni00B4
ENCODING 180
SWIDTH 500 0
DWIDTH 6 0
BBX 2 2 0 6
BITMAP
4000
8000
ENDCHAR
STARTCHAR uni00B5
ENCODING 181
SWIDTH 500 0
DWIDTH 6 0
BBX 4 8 0 -2
BITMAP
9000
9000
9000
9000
9000
F000
8000
8000
ENDCHAR
STARTCHAR uni00B6
ENCODING 182
SWIDTH 500 0
DWIDTH 6 0
BBX 5 10 0 -2
BITMAP
7800
E800
E800
E800
6800
2800
2800
2800
2800
2800
ENDCHAR
STARTCHAR uni00B7
ENCODING 183
SWIDTH 500 0
DWIDTH 6 0
BBX 1 1 0 3
BITMAP
8000
ENDCHAR
STARTCHAR uni00B8
ENCODING 184
SWIDTH 500 0
DWIDTH 6 0
BBX 3 2 0 -2
BITMAP
4000
C000
ENDCHAR
STARTCHAR uni00B9
ENCODING 185
SWIDTH 500 0
DWIDTH 6 0
BBX 2 5 0 3
BITMAP
4000
C000
4000
4000
4000
ENDCHAR
STARTCHAR uni00BA
ENCODING 186
SWIDTH 500 0
DWIDTH 6 0
BBX 3 5 0 3
BITMAP
4000
A000
A000
A000
4000
ENDCHAR
STARTCHAR uni00BB
ENCODING 187
SWIDTH 500 0
DWIDTH 6 0
BBX 4 5 0 1
BITMAP
A000
5000
5000
5000
A000
ENDCHAR
STARTCHAR uni00BC
ENCODING 188
SWIDTH 500 0
DWIDTH 6 0
BBX 7 8 0 0
BITMAP
4400
C800
4800
4A00
5600
1A00
1E00
2200
ENDCHAR
STARTCHAR uni00BD
ENCODING 189
SWIDTH 500 0
DWIDTH 6 0
BBX 8 8 0 0
BITMAP
4400
C800
4800
4E00
5100
1200
1400
2700
ENDCHAR
STARTCHAR uni00BE
ENCODING 190
SWIDTH 500 0
DWIDTH 6 0
BBX 8 8 0 0
BITMAP
C400
2800
4800
2900
D300
1500
1700
2100
ENDCHAR
STARTCHAR uni00BF
ENCODING 191
SWIDTH 500 0
DWIDTH 6 0
BBX 3 8 0 -2
BITMAP
4000
0000
4000
4000
8000
8000
8000
6000
ENDCHAR
STARTCHAR uni00C0
ENCODING 192
SWIDTH 500 0
DWIDTH 6 0
BBX 5 10 0 0
BITMAP
4000
2000
0000
2000
5000
5000
5000
7000
8800
8800
ENDCHAR
STARTCHAR uni00C1
ENCODING 193
SWIDTH 500 0
DWIDTH 6 0
BBX 5 10 0 0
BITMAP
1000
2000
0000
2000
5000
5000
5000
7000
8800
8800
ENDCHAR
STARTCHAR uni00C2
ENCODING 194
SWIDTH 500 0
DWIDTH 6 0
BBX 5 10 0 0
BITMAP
2000
5000
0000
2000
5000
5000
5000
7000
8800
8800
ENDCHAR
STARTCHAR uni00C3
ENCODING 195
SWIDTH 500 0
DWIDTH 6 0
BBX 5 10 0 0
BITMAP
5000
7000
0000
2000
5000
5000
5000
7000
8800
8800
ENDCHAR
STARTCHAR uni00C4
ENCODING 196
SWIDTH 500 0
DWIDTH 6 0
BBX 5 10 0 0
BITMAP
5000
0000
2000
5000
5000
5000
5000
F000
8800
8800
ENDCHAR
STARTCHAR uni00C5
ENCODING 197
SWIDTH 500 0
DWIDTH 6 0
BBX 5 10 0 0
BITMAP
1000
2800
3000
5000
5000
5000
5000
F800
8800
8800
ENDCHAR
STARTCHAR uni00C6
ENCODING 198
SWIDTH 500 0
DWIDTH 6 0
BBX 7 8 0 0
BITMAP
1E00
1800
2800
2E00
4800
7800
4800
8E00
ENDCHAR
STARTCHAR uni00C7
ENCODING 199
SWIDTH 500 0
DWIDTH 6 0
BBX 3 10 0 -2
BITMAP
6000
8000
8000
8000
8000
8000
8000
6000
4000
C000
ENDCHAR
STARTCHAR uni00C8
ENCODING 200
SWIDTH 500 0
DWIDTH 6 0
BBX 3 10 0 0
BITMAP
8000
4000
0000
E000
8000
8000
E000
8000
8000
E000
ENDCHAR
STARTCHAR uni00C9
ENCODING 201
SWIDTH 500 0
DWIDTH 6 0
BBX 3 10 0 0
BITMAP
2000
4000
0000
E000
8000
8000
E000
8000
8000
E000
ENDCHAR
STARTCHAR uni00CA
ENCODING 202
SWIDTH 500 0
DWIDTH 6 0
BBX 3 10 0 0
BITMAP
4000
A000
0000
E000
8000
8000
E000
8000
8000
E000
ENDCHAR
STARTCHAR uni00CB
ENCODING 203
SWIDTH 500 0
DWIDTH 6 0
BBX 3 10 0 0
BITMAP
A000
0000
E000
8000
8000
E000
8000
8000
8000
E000
ENDCHAR
STARTCHAR uni00CC
ENCODING 204
SWIDTH 500 0
DWIDTH 6 0
BBX 2 10 0 0
BITMAP
8000
4000
0000
4000
4000
4000
4000
4000
4000
4000
ENDCHAR
STARTCHAR uni00CD
ENCODING 205
SWIDTH 500 0
DWIDTH 6 0
BBX 2 10 0 0
BITMAP
4000
8000
0000
8000
8000
8000
8000
8000
8000
8000
ENDCHAR
STARTCHAR uni00CE
ENCODING 206
SWIDTH 500 0
DWIDTH 6 0
BBX 3 10 0 0
BITMAP
4000
A000
0000
4000
4000
4000
4000
4000
4000
4000
ENDCHAR
STARTCHAR uni00CF
ENCODING 207
SWIDTH 500 0
DWIDTH 6 0
BBX 3 10 0 0
BITMAP
A000
0000
4000
4000
4000
4000
4000
4000
4000
4000
ENDCHAR
STARTCHAR uni00D0
ENCODING 208
SWIDTH 500 0
DWIDTH 6 0
BBX 5 8 0 0
BITMAP
7000
4800
4800
4800
E800
4800
4800
7000
ENDCHAR
STARTCHAR uni00D1
ENCODING 209
SWIDTH 500 0
DWIDTH 6 0
BBX 4 10 0 0
BITMAP
5000
7000
0000
9000
D000
D000
B000
B000
B000
9000
ENDCHAR
STARTCHAR uni00D2
ENCODING 210
SWIDTH 500 0
DWIDTH 6 0
BBX 4 10 0 0
BITMAP
4000
2000
0000
6000
9000
9000
9000
9000
9000
6000
ENDCHAR
STARTCHAR uni00D3
ENCODING 211
SWIDTH 500 0
DWIDTH 6 0
BBX 4 10 0 0
BITMAP
2000
4000
0000
6000
9000
9000
9000
9000
9000
6000
ENDCHAR
STARTCHAR uni00D4
ENCODING 212
SWIDTH 500 0
DWIDTH 6 0
BBX 4 10 0 0
BITMAP
4000
A000
0000
6000
9000
9000
9000
9000
9000
6000
ENDCHAR
STARTCHAR uni00D5
ENCODING 213
SWIDTH 500 0
DWIDTH 6 0
BBX 4 10 0 0
BITMAP
5000
7000
0000
6000
9000
9000
9000
9000
9000
6000
ENDCHAR
STARTCHAR uni00D6
ENCODING 214
SWIDTH 500 0
DWIDTH 6 0
BBX 5 10 0 0
BITMAP
5000
0000
7000
8800
8800
8800
8800
8800
8800
7000
ENDCHAR
STARTCHAR uni00D7
ENCODING 215
SWIDTH 500 0
DWIDTH 6 0
BBX 4 4 0 2
BITMAP
9000
6000
6000
9000
ENDCHAR
STARTCHAR uni00D8
ENCODING 216
SWIDTH 500 0
DWIDTH 6 0
BBX 5 8 0 0
BITMAP
7800
9800
9800
A800
A800
C800
C800
F000
ENDCHAR
STARTCHAR uni00D9
ENCODING 217
SWIDTH 500 0
DWIDTH 6 0
BBX 3 10 0 0
BITMAP
8000
4000
0000
A000
A000
A000
A000
A000
A000
4000
ENDCHAR
STARTCHAR uni00DA
ENCODING 218
SWIDTH 500 0
DWIDTH 6 0
BBX 3 10 0 0
BITMAP
2000
4000
0000
A000
A000
A000
A000
A000
A000
4000
ENDCHAR
STARTCHAR uni00DB
ENCODING 219
SWIDTH 500 0
DWIDTH 6 0
BBX 3 10 0 0
BITMAP
4000
A000
0000
A000
A000
A000
A000
A000
A000
4000
ENDCHAR
STARTCHAR uni00DC
ENCODING 220
SWIDTH 500 0
DWIDTH 6 0
BBX 4 10 0 0
BITMAP
5000
0000
9000
9000
9000
9000
9000
9000
9000
6000
ENDCHAR
STARTCHAR uni00DD
ENCODING 221
SWIDTH 500 0
DWIDTH 6 0
BBX 5 10 0 0
BITMAP
1000
2000
0000
8800
5000
5000
2000
2000
2000
2000
ENDCHAR
STARTCHAR uni00DE
ENCODING 222
SWIDTH 500 0
DWIDTH 6 0
BBX 3 8 0 0
BITMAP
8000
C000
A000
A000
A000
C000
8000
8000
ENDCHAR
STARTCHAR uni00DF
ENCODING 223
SWIDTH 500 0
DWIDTH 6 0
BBX 4 9 0 0
BITMAP
6000
9000
9000
A000
A000
B000
9000
9000
A000
ENDCHAR
STARTCHAR uni00E0
ENCODING 224
SWIDTH 500 0
DWIDTH 6 0
BBX 4 9 0 0
BITMAP
4000
2000
0000
6000
1000
7000
9000
9000
7000
ENDCHAR
STARTCHAR uni00E1
ENCODING 225
SWIDTH 500 0
DWIDTH 6 0
BBX 4 9 0 0
BITMAP
2000
4000
0000
6000
1000
7000
9000
9000
7000
ENDCHAR
STARTCHAR uni00E2
ENCODING 226
SWIDTH 500 0
DWIDTH 6 0
BBX 4 9 0 0
BITMAP
2000
5000
0000
6000
1000
7000
9000
9000
7000
ENDCHAR
STARTCHAR uni00E3
ENCODING 227
SWIDTH 500 0
DWIDTH 6 0
BBX 4 9 0 0
BITMAP
5000
7000
0000
6000
1000
7000
9000
9000
7000
ENDCHAR
STARTCHAR uni00E4
ENCODING 228
SWIDTH 500 0
DWIDTH 6 0
BBX 4 8 0 0
BITMAP
5000
0000
6000
1000
7000
9000
9000
7000
ENDCHAR
STARTCHAR uni00E5
ENCODING 229
SWIDTH 500 0
DWIDTH 6 0
BBX 4 10 0 0
BITMAP
4000
A000
4000
0000
6000
1000
7000
9000
9000
7000
ENDCHAR
STARTCHAR uni00E6
ENCODING 230
SWIDTH 500 0
DWIDTH 6 0
BBX 6 6 0 0
BITMAP
D800
2400
7C00
A000
A000
7C00
ENDCHAR
STARTCHAR uni00E7
ENCODING 231
SWIDTH 500 0
DWIDTH 6 0
BBX 3 8 0 -2
BITMAP
6000
8000
8000
8000
8000
6000
4000
C000
ENDCHAR
STARTCHAR uni00E8
ENCODING 232
SWIDTH 500 0
DWIDTH 6 0
BBX 4 9 0 0
BITMAP
4000
2000
0000
6000
9000
F000
8000
8000
7000
ENDCHAR
STARTCHAR uni00E9
ENCODING 233
SWIDTH 500 0
DWIDTH 6 0
BBX 4 9 0 0
BITMAP
2000
4000
0000
6000
9000
F000
8000
8000
7000
ENDCHAR
STARTCHAR uni00EA
ENCODING 234
SWIDTH 500 0
DWIDTH 6 0
BBX 4 9 0 0
BITMAP
2000
5000
0000
6000
9000
F000
8000
8000
7000
ENDCHAR
STARTCHAR uni00EB
ENCODING 235
SWIDTH 500 0
DWIDTH 6 0
BBX 4 8 0 0
BITMAP
5000
0000
6000
9000
F000
8000
8000
7000
ENDCHAR
STARTCHAR uni00EC
ENCODING 236
SWIDTH 500 0
DWIDTH 6 0
BBX 2 9 0 0
BITMAP
8000
4000
0000
4000
4000
4000
4000
4000
4000
ENDCHAR
STARTCHAR uni00ED
ENCODING 237
SWIDTH 500 0
DWIDTH 6 0
BBX 2 9 0 0
BITMAP
4000
8000
0000
8000
8000
8000
8000
8000
8000
ENDCHAR
STARTCHAR uni00EE
ENCODING 238
SWIDTH 500 0
DWIDTH 6 0
BBX 3 9 0 0
BITMAP
4000
A000
0000
4000
4000
4000
4000
4000
4000
ENDCHAR
STARTCHAR uni00EF
ENCODING 239
SWIDTH 500 0
DWIDTH 6 0
BBX 3 8 0 0
BITMAP
A000
0000
4000
4000
4000
4000
4000
4000
ENDCHAR
STARTCHAR uni00F0
ENCODING 240
SWIDTH 500 0
DWIDTH 6 0
BBX 4 9 0 0
BITMAP
4000
7000
2000
7000
9000
9000
9000
9000
6000
ENDCHAR
STARTCHAR uni00F1
ENCODING 241
SWIDTH 500 0
DWIDTH 6 0
BBX 4 9 0 0
BITMAP
A000
E000
0000
E000
9000
9000
9000
9000
9000
ENDCHAR
STARTCHAR uni00F2
ENCODING 242
SWIDTH 500 0
DWIDTH 6 0
BBX 4 9 0 0
BITMAP
4000
2000
0000
6000
9000
9000
9000
9000
6000
ENDCHAR
STARTCHAR uni00F3
ENCODING 243
SWIDTH 500 0
DWIDTH 6 0
BBX 4 9 0 0
BITMAP
2000
4000
0000
6000
9000
9000
9000
9000
6000
ENDCHAR
STARTCHAR uni00F4
ENCODING 244
SWIDTH 500 0
DWIDTH 6 0
BBX 4 9 0 0
BITMAP
4000
A000
0000
6000
9000
9000
9000
9000
6000
ENDCHAR
STARTCHAR uni00F5
ENCODING 245
SWIDTH 500 0
DWIDTH 6 0
BBX 4 9 0 0
BITMAP
A000
E000
0000
6000
9000
9000
9000
9000
6000
ENDCHAR
STARTCHAR uni00F6
ENCODING 246
SWIDTH 500 0
DWIDTH 6 0
BBX 4 8 0 0
BITMAP
A000
0000
6000
9000
9000
9000
9000
6000
ENDCHAR
STARTCHAR uni00F7
ENCODING 247
SWIDTH 500 0
DWIDTH 6 0
BBX 3 5 0 1
BITMAP
4000
0000
E000
0000
4000
ENDCHAR
STARTCHAR uni00F8
ENCODING 248
SWIDTH 500 0
DWIDTH 6 0
BBX 4 6 0 0
BITMAP
7000
B000
B000
D000
D000
E000
ENDCHAR
STARTCHAR uni00F9
ENCODING 249
SWIDTH 500 0
DWIDTH 6 0
BBX 4 9 0 0
BITMAP
4000
2000
0000
9000
9000
9000
9000
9000
7000
ENDCHAR
STARTCHAR uni00FA
ENCODING 250
SWIDTH 500 0
DWIDTH 6 0
BBX 4 9 0 0
BITMAP
2000
4000
0000
9000
9000
9000
9000
9000
7000
ENDCHAR
STARTCHAR uni00FB
ENCODING 251
SWIDTH 500 0
DWIDTH 6 0
BBX 4 9 0 0
BITMAP
2000
5000
0000
9000
9000
9000
9000
9000
7000
ENDCHAR
STARTCHAR uni00FC
ENCODING 252
SWIDTH 500 0
DWIDTH 6 0
BBX 4 8 0 0
BITMAP
5000
0000
9000
9000
9000
9000
9000
7000
ENDCHAR
STARTCHAR uni00FD
ENCODING 253
SWIDTH 500 0
DWIDTH 6 0
BBX 3 11 0 -2
BITMAP
2000
4000
0000
A000
A000
A000
A000
A000
4000
4000
8000
ENDCHAR
STARTCHAR uni00FE
ENCODING 254
SWIDTH 500 0
DWIDTH 6 0
BBX 4 11 0 -2
BITMAP
8000
8000
8000
E000
9000
9000
9000
9000
E000
8000
8000
ENDCHAR
STARTCHAR uni00FF
ENCODING 255
SWIDTH 500 0
DWIDTH 6 0
BBX 3 10 0 -2
BITMAP
A000
0000
A000
A000
A000
A000
A000
4000
4000
8000
ENDCHAR
STARTCHAR uni0100
ENCODING 256
SWIDTH 500 0
DWIDTH 6 0
BBX 5 10 0 0
BITMAP
6000
0000
2000
5000
5000
5000
5000
F000
8800
8800
ENDCHAR
STARTCHAR uni0101
ENCODING 257
SWIDTH 500 0
DWIDTH 6 0
BBX 4 8 0 0
BITMAP
6000
0000
6000
1000
7000
9000
9000
7000
ENDCHAR
STARTCHAR uni0112
ENCODING 274
SWIDTH 500 0
DWIDTH 6 0
BBX 3 10 0 0
BITMAP
C000
0000
E000
8000
8000
E000
8000
8000
8000
E000
ENDCHAR
STARTCHAR uni0113
ENCODING 275
SWIDTH 500 0
DWIDTH 6 0
BBX 4 8 0 0
BITMAP
6000
0000
6000
9000
F000
8000
8000
7000
ENDCHAR
STARTCHAR uni012A
ENCODING 298
SWIDTH 500 0
DWIDTH 6 0
BBX 2 10 0 0
BITMAP
C000
0000
4000
4000
4000
4000
4000
4000
4000
4000
ENDCHAR
STARTCHAR uni012B
ENCODING 299
SWIDTH 500 0
DWIDTH 6 0
BBX 2 8 0 0
BITMAP
C000
0000
4000
4000
4000
4000
4000
4000
ENDCHAR
STARTCHAR uni0132
ENCODING 306
SWIDTH 500 0
DWIDTH 6 0
BBX 5 8 0 0
BITMAP
8800
8800
8800
8800
8800
8800
8800
B000
ENDCHAR
STARTCHAR uni0133
ENCODING 307
SWIDTH 500 0
DWIDTH 6 0
BBX 4 10 0 -2
BITMAP
9000
0000
9000
9000
9000
9000
9000
9000
1000
3000
ENDCHAR
STARTCHAR uni014C
ENCODING 332
SWIDTH 500 0
DWIDTH 6 0
BBX 5 10 0 0
BITMAP
6000
0000
7000
8800
8800
8800
8800
8800
8800
7000
ENDCHAR
STARTCHAR uni014D
ENCODING 333
SWIDTH 500 0
DWIDTH 6 0
BBX 4 8 0 0
BITMAP
6000
0000
6000
9000
9000
9000
9000
6000
ENDCHAR
STARTCHAR uni0150
ENCODING 336
SWIDTH 500 0
DWIDTH 6 0
BBX 4 10 0 0
BITMAP
5000
5000
0000
6000
9000
9000
9000
9000
9000
6000
ENDCHAR
STARTCHAR uni0151
ENCODING 337
SWIDTH 500 0
DWIDTH 6 0
BBX 4 9 0 0
BITMAP
5000
A000
0000
6000
9000
9000
9000
9000
6000
ENDCHAR
STARTCHAR uni0152
ENCODING 338
SWIDTH 500 0
DWIDTH 6 0
BBX 6 8 0 0
BITMAP
7C00
9000
9000
9C00
9000
9000
9000
7C00
ENDCHAR
STARTCHAR uni0153
ENCODING 339
SWIDTH 500 0
DWIDTH 6 0
BBX 6 6 0 0
BITMAP
6800
9400
9C00
9000
9000
6C00
ENDCHAR
STARTCHAR uni0160
ENCODING 352
SWIDTH 500 0
DWIDTH 6 0
BBX 3 10 0 0
BITMAP
A000
4000
0000
6000
8000
8000
4000
2000
2000
C000
ENDCHAR
STARTCHAR uni0161
ENCODING 353
SWIDTH 500 0
DWIDTH 6 0
BBX 3 9 0 0
BITMAP
A000
4000
0000
6000
8000
C000
2000
2000
C000
ENDCHAR
STARTCHAR uni016A
ENCODING 362
SWIDTH 500 0
DWIDTH 6 0
BBX 4 10 0 0
BITMAP
6000
0000
9000
9000
9000
9000
9000
9000
9000
6000
ENDCHAR
STARTCHAR uni016B
ENCODING 363
SWIDTH 500 0
DWIDTH 6 0
BBX 4 8 0 0
BITMAP
6000
0000
9000
9000
9000
9000
9000
7000
ENDCHAR
STARTCHAR uni0170
ENCODING 368
SWIDTH 500 0
DWIDTH 6 0
BBX 3 10 0 0
BITMAP
A000
A000
0000
A000
A000
A000
A000
A000
A000
4000
ENDCHAR
STARTCHAR uni0171
ENCODING 369
SWIDTH 500 0
DWIDTH 6 0
BBX 4 9 0 0
BITMAP
5000
A000
0000
9000
9000
9000
9000
9000
7000
ENDCHAR
STARTCHAR uni0174
ENCODING 372
SWIDTH 500 0
DWIDTH 6 0
BBX 7 10 0 0
BITMAP
1000
2800
0000
8200
9200
9200
AA00
AA00
AA00
4400
ENDCHAR
STARTCHAR uni0175
ENCODING 373
SWIDTH 500 0
DWIDTH 6 0
BBX 5 9 0 0
BITMAP
2000
5000
0000
A800
A800
A800
A800
D800
5000
ENDCHAR
STARTCHAR uni0176
ENCODING 374
SWIDTH 500 0
DWIDTH 6 0
BBX 5 10 0 0
BITMAP
2000
5000
0000
8800
5000
5000
2000
2000
2000
2000
ENDCHAR
STARTCHAR uni0177
ENCODING 375
SWIDTH 500 0
DWIDTH 6 0
BBX 3 11 0 -2
BITMAP
4000
A000
0000
A000
A000
A000
A000
A000
4000
4000
8000
ENDCHAR
STARTCHAR uni017D
ENCODING 381
SWIDTH 500 0
DWIDTH 6 0
BBX 3 10 0 0
BITMAP
A000
4000
0000
E000
2000
4000
4000
4000
8000
E000
ENDCHAR
STARTCHAR uni017E
ENCODING 382
SWIDTH 500 0
DWIDTH 6 0
BBX 3 9 0 0
BITMAP
A000
4000
0000
E000
2000
4000
4000
8000
E000
ENDCHAR
STARTCHAR uni0400
ENCODING 1024
SWIDTH 500 0
DWIDTH 6 0
BBX 3 10 0 0
BITMAP
8000
4000
0000
E000
8000
8000
E000
8000
8000
E000
ENDCHAR
STARTCHAR uni0401
ENCODING 1025
SWIDTH 500 0
DWIDTH 6 0
BBX 3 10 0 0
BITMAP
A000
0000
E000
8000
8000
E000
8000
8000
8000
E000
ENDCHAR
STARTCHAR uni0402
ENCODING 1026
SWIDTH 500 0
DWIDTH 6 0
BBX 5 8 0 0
BITMAP
F800
2000
2000
3000
2800
2800
2800
2800
ENDCHAR
STARTCHAR uni0403
ENCODING 1027
SWIDTH 500 0
DWIDTH 6 0
BBX 2 10 0 0
BITMAP
4000
8000
0000
C000
8000
8000
8000
8000
8000
8000
ENDCHAR
STARTCHAR uni0404
ENCODING 1028
SWIDTH 500 0
DWIDTH 6 0
BBX 3 8 0 0
BITMAP
6000
8000
8000
C000
8000
8000
8000
6000
ENDCHAR
STARTCHAR uni0405
ENCODING 1029
SWIDTH 500 0
DWIDTH 6 0
BBX 3 8 0 0
BITMAP
6000
8000
8000
4000
2000
2000
2000
C000
ENDCHAR
STARTCHAR uni0406
ENCODING 1030
SWIDTH 500 0
DWIDTH 6 0
BBX 1 8 0 0
BITMAP
8000
8000
8000
8000
8000
8000
8000
8000
ENDCHAR
STARTCHAR uni0407
ENCODING 1031
SWIDTH 500 0
DWIDTH 6 0
BBX 3 10 0 0
BITMAP
A000
0000
4000
4000
4000
4000
4000
4000
4000
4000
ENDCHAR
STARTCHAR uni0408
ENCODING 1032
SWIDTH 500 0
DWIDTH 6 0
BBX 3 8 0 0
BITMAP
2000
2000
2000
2000
2000
2000
2000
C000
ENDCHAR
STARTCHAR uni0409
ENCODING 1033
SWIDTH 500 0
DWIDTH 6 0
BBX 8 8 0 0
BITMAP
3800
2800
2800
2E00
2900
2900
4900
8E00
ENDCHAR
STARTCHAR uni040A
ENCODING 1034
SWIDTH 500 0
DWIDTH 6 0
BBX 7 8 0 0
BITMAP
9000
9000
9000
FC00
9200
9200
9200
9C00
ENDCHAR
STARTCHAR uni040B
ENCODING 1035
SWIDTH 500 0
DWIDTH 6 0
BBX 6 8 0 0
BITMAP
F800
2000
2000
3800
2400
2400
2400
2400
ENDCHAR
STARTCHAR uni040C
ENCODING 1036
SWIDTH 500 0
DWIDTH 6 0
BBX 3 10 0 0
BITMAP
2000
4000
0000
A000
A000
C000
C000
C000
A000
A000
ENDCHAR
STARTCHAR uni040D
ENCODING 1037
SWIDTH 500 0
DWIDTH 6 0
BBX 4 10 0 0
BITMAP
4000
2000
0000
9000
B000
B000
D000
D000
D000
9000
ENDCHAR
STARTCHAR uni040E
ENCODING 1038
SWIDTH 500 0
DWIDTH 6 0
BBX 4 10 0 0
BITMAP
5000
7000
0000
9000
5000
6000
6000
2000
4000
C000
ENDCHAR
STARTCHAR uni040F
ENCODING 1039
SWIDTH 500 0
DWIDTH 6 0
BBX 4 10 0 -2
BITMAP
9000
9000
9000
9000
9000
9000
9000
F000
2000
2000
ENDCHAR
STARTCHAR uni0410
ENCODING 1040
SWIDTH 500 0
DWIDTH 6 0
BBX 5 8 0 0
BITMAP
2000
5000
5000
5000
5000
F000
8800
8800
ENDCHAR
STARTCHAR uni0411
ENCODING 1041
SWIDTH 500 0
DWIDTH 6 0
BBX 4 8 0 0
BITMAP
E000
8000
8000
E000
9000
9000
9000
E000
ENDCHAR
STARTCHAR uni0412
ENCODING 1042
SWIDTH 500 0
DWIDTH 6 0
BBX 4 8 0 0
BITMAP
E000
9000
9000
E000
9000
9000
9000
E000
ENDCHAR
STARTCHAR uni0413
ENCODING 1043
SWIDTH 500 0
DWIDTH 6 0
BBX 3 8 0 0
BITMAP
E000
8000
8000
8000
8000
8000
8000
8000
ENDCHAR
STARTCHAR uni0414
ENCODING 1044
SWIDTH 500 0
DWIDTH 6 0
BBX 5 10 0 -2
BITMAP
7000
5000
5000
5000
5000
5000
9000
F800
8800
8800
ENDCHAR
STARTCHAR uni0415
ENCODING 1045
SWIDTH 500 0
DWIDTH 6 0
BBX 3 8 0 0
BITMAP
E000
8000
8000
E000
8000
8000
8000
E000
ENDCHAR
STARTCHAR uni0416
ENCODING 1046
SWIDTH 500 0
DWIDTH 6 0
BBX 6 8 0 0
BITMAP
9400
5400
5800
3800
3800
5400
5400
9400
ENDCHAR
STARTCHAR uni0417
ENCODING 1047
SWIDTH 500 0
DWIDTH 6 0
BBX 4 8 0 0
BITMAP
E000
1000
1000
6000
1000
1000
1000
E000
ENDCHAR
STARTCHAR uni0418
ENCODING 1048
SWIDTH 500 0
DWIDTH 6 0
BBX 4 8 0 0
BITMAP
9000
B000
B000
B000
D000
D000
9000
9000
ENDCHAR
STARTCHAR uni0419
ENCODING 1049
SWIDTH 500 0
DWIDTH 6 0
BBX 4 10 0 0
BITMAP
5000
7000
0000
9000
B000
B000
D000
D000
D000
9000
ENDCHAR
STARTCHAR uni041A
ENCODING 1050
SWIDTH 500 0
DWIDTH 6 0
BBX 4 8 0 0
BITMAP
9000
A000
A000
C000
C000
A000
A000
9000
ENDCHAR
STARTCHAR uni041B
ENCODING 1051
SWIDTH 500 0
DWIDTH 6 0
BBX 5 8 0 0
BITMAP
3800
2800
2800
2800
2800
2800
4800
8800
ENDCHAR
STARTCHAR uni041C
ENCODING 1052
SWIDTH 500 0
DWIDTH 6 0
BBX 6 8 0 0
BITMAP
8400
CC00
CC00
B400
B400
B400
B400
8400
ENDCHAR
STARTCHAR uni041D
ENCODING 1053
SWIDTH 500 0
DWIDTH 6 0
BBX 4 8 0 0
BITMAP
9000
9000
9000
F000
9000
9000
9000
9000
ENDCHAR
STARTCHAR uni041E
ENCODING 1054
SWIDTH 500 0
DWIDTH 6 0
BBX 5 8 0 0
BITMAP
7000
8800
8800
8800
8800
8800
8800
7000
ENDCHAR
STARTCHAR uni041F
ENCODING 1055
SWIDTH 500 0
DWIDTH 6 0
BBX 4 8 0 0
BITMAP
F000
9000
9000
9000
9000
9000
9000
9000
ENDCHAR
STARTCHAR uni0420
ENCODING 1056
SWIDTH 500 0
DWIDTH 6 0
BBX 3 8 0 0
BITMAP
C000
A000
A000
A000
C000
8000
8000
8000
ENDCHAR
STARTCHAR uni0421
ENCODING 1057
SWIDTH 500 0
DWIDTH 6 0
BBX 3 8 0 0
BITMAP
6000
8000
8000
8000
8000
8000
8000
6000
ENDCHAR
STARTCHAR uni0422
ENCODING 1058
SWIDTH 500 0
DWIDTH 6 0
BBX 5 8 0 0
BITMAP
F800
2000
2000
2000
2000
2000
2000
2000
ENDCHAR
STARTCHAR uni0423
ENCODING 1059
SWIDTH 500 0
DWIDTH 6 0
BBX 4 8 0 0
BITMAP
9000
9000
6000
6000
6000
2000
4000
C000
ENDCHAR
STARTCHAR uni0424
ENCODING 1060
SWIDTH 500 0
DWIDTH 6 0
BBX 5 8 0 0
BITMAP
2000
7000
A800
A800
A800
A800
7000
2000
ENDCHAR
STARTCHAR uni0425
ENCODING 1061
SWIDTH 500 0
DWIDTH 6 0
BBX 4 8 0 0
BITMAP
9000
6000
6000
6000
6000
6000
5000
9000
ENDCHAR
STARTCHAR uni0426
ENCODING 1062
SWIDTH 500 0
DWIDTH 6 0
BBX 4 10 0 -2
BITMAP
A000
A000
A000
A000
A000
A000
A000
F000
1000
1000
ENDCHAR
STARTCHAR uni0427
ENCODING 1063
SWIDTH 500 0
DWIDTH 6 0
BBX 4 8 0 0
BITMAP
9000
9000
9000
9000
7000
1000
1000
1000
ENDCHAR
STARTCHAR uni0428
ENCODING 1064
SWIDTH 500 0
DWIDTH 6 0
BBX 7 8 0 0
BITMAP
9200
9200
9200
9200
9200
9200
9200
FE00
ENDCHAR
STARTCHAR uni0429
ENCODING 1065
SWIDTH 500 0
DWIDTH 6 0
BBX 7 10 0 -2
BITMAP
9400
9400
9400
9400
9400
9400
9400
FE00
0200
0200
ENDCHAR
STARTCHAR uni042A
ENCODING 1066
SWIDTH 500 0
DWIDTH 6 0
BBX 5 8 0 0
BITMAP
C000
4000
4000
7000
4800
4800
4800
7000
ENDCHAR
STARTCHAR uni042B
ENCODING 1067
SWIDTH 500 0
DWIDTH 6 0
BBX 7 8 0 0
BITMAP
8400
8400
8400
C400
A400
A400
A400
C400
ENDCHAR
STARTCHAR uni042C
ENCODING 1068
SWIDTH 500 0
DWIDTH 6 0
BBX 3 8 0 0
BITMAP
8000
8000
8000
C000
A000
A000
A000
C000
ENDCHAR
STARTCHAR uni042D
ENCODING 1069
SWIDTH 500 0
DWIDTH 6 0
BBX 4 8 0 0
BITMAP
E000
1000
1000
7000
1000
1000
1000
E000
ENDCHAR
STARTCHAR uni042E
ENCODING 1070
SWIDTH 500 0
DWIDTH 6 0
BBX 7 8 0 0
BITMAP
9C00
A200
A200
E200
A200
A200
A200
9C00
ENDCHAR
STARTCHAR uni042F
ENCODING 1071
SWIDTH 500 0
DWIDTH 6 0
BBX 4 8 0 0
BITMAP
7000
9000
9000
9000
7000
5000
9000
9000
ENDCHAR
STARTCHAR uni0430
ENCODING 1072
SWIDTH 500 0
DWIDTH 6 0
BBX 4 6 0 0
BITMAP
6000
1000
7000
9000
9000
7000
ENDCHAR
STARTCHAR uni0431
ENCODING 1073
SWIDTH 500 0
DWIDTH 6 0
BBX 4 9 0 0
BITMAP
3000
4000
8000
E000
9000
9000
9000
9000
6000
ENDCHAR
STARTCHAR uni0432
ENCODING 1074
SWIDTH 500 0
DWIDTH 6 0
BBX 4 6 0 0
BITMAP
E000
9000
E000
9000
9000
E000
ENDCHAR
STARTCHAR uni0433
ENCODING 1075
SWIDTH 500 0
DWIDTH 6 0
BBX 3 6 0 0
BITMAP
E000
8000
8000
8000
8000
8000
ENDCHAR
STARTCHAR uni0434
ENCODING 1076
SWIDTH 500 0
DWIDTH 6 0
BBX 4 8 0 -2
BITMAP
7000
5000
5000
5000
9000
F000
9000
9000
ENDCHAR
STARTCHAR uni0435
ENCODING 1077
SWIDTH 500 0
DWIDTH 6 0
BBX 4 6 0 0
BITMAP
6000
9000
F000
8000
8000
7000
ENDCHAR
STARTCHAR uni0436
ENCODING 1078
SWIDTH 500 0
DWIDTH 6 0
BBX 5 6 0 0
BITMAP
A800
7000
7000
7000
A800
A800
ENDCHAR
STARTCHAR uni0437
ENCODING 1079
SWIDTH 500 0
DWIDTH 6 0
BBX 3 6 0 0
BITMAP
C000
2000
4000
2000
2000
C000
ENDCHAR
STARTCHAR uni0438
ENCODING 1080
SWIDTH 500 0
DWIDTH 6 0
BBX 4 6 0 0
BITMAP
9000
B000
B000
D000
9000
9000
ENDCHAR
STARTCHAR uni0439
ENCODING 1081
SWIDTH 500 0
DWIDTH 6 0
BBX 4 9 0 0
BITMAP
A000
E000
0000
9000
B000
B000
D000
9000
9000
ENDCHAR
STARTCHAR uni043A
ENCODING 1082
SWIDTH 500 0
DWIDTH 6 0
BBX 4 6 0 0
BITMAP
9000
A000
C000
A000
A000
9000
ENDCHAR
STARTCHAR uni043B
ENCODING 1083
SWIDTH 500 0
DWIDTH 6 0
BBX 4 6 0 0
BITMAP
7000
5000
5000
5000
5000
9000
ENDCHAR
STARTCHAR uni043C
ENCODING 1084
SWIDTH 500 0
DWIDTH 6 0
BBX 5 6 0 0
BITMAP
D800
D800
D800
A800
A800
8800
ENDCHAR
STARTCHAR uni043D
ENCODING 1085
SWIDTH 500 0
DWIDTH 6 0
BBX 4 6 0 0
BITMAP
9000
9000
F000
9000
9000
9000
ENDCHAR
STARTCHAR uni043E
ENCODING 1086
SWIDTH 500 0
DWIDTH 6 0
BBX 4 6 0 0
BITMAP
6000
9000
9000
9000
9000
6000
ENDCHAR
STARTCHAR uni043F
ENCODING 1087
SWIDTH 500 0
DWIDTH 6 0
BBX 4 6 0 0
BITMAP
F000
9000
9000
9000
9000
9000
ENDCHAR
STARTCHAR uni0440
ENCODING 1088
SWIDTH 500 0
DWIDTH 6 0
BBX 4 8 0 -2
BITMAP
E000
9000
9000
9000
9000
E000
8000
8000
ENDCHAR
STARTCHAR uni0441
ENCODING 1089
SWIDTH 500 0
DWIDTH 6 0
BBX 3 6 0 0
BITMAP
6000
8000
8000
8000
8000
6000
ENDCHAR
STARTCHAR uni0442
ENCODING 1090
SWIDTH 500 0
DWIDTH 6 0
BBX 3 6 0 0
BITMAP
E000
4000
4000
4000
4000
4000
ENDCHAR
STARTCHAR uni0443
ENCODING 1091
SWIDTH 500 0
DWIDTH 6 0
BBX 3 8 0 -2
BITMAP
A000
A000
A000
A000
A000
4000
4000
8000
ENDCHAR
STARTCHAR uni0444
ENCODING 1092
SWIDTH 500 0
DWIDTH 6 0
BBX 5 11 0 -2
BITMAP
2000
2000
2000
7000
A800
A800
A800
A800
7000
2000
2000
ENDCHAR
STARTCHAR uni0445
ENCODING 1093
SWIDTH 500 0
DWIDTH 6 0
BBX 3 6 0 0
BITMAP
A000
A000
4000
4000
A000
A000
ENDCHAR
STARTCHAR uni0446
ENCODING 1094
SWIDTH 500 0
DWIDTH 6 0
BBX 4 8 0 -2
BITMAP
A000
A000
A000
A000
A000
F000
1000
1000
ENDCHAR
STARTCHAR uni0447
ENCODING 1095
SWIDTH 500 0
DWIDTH 6 0
BBX 4 6 0 0
BITMAP
9000
9000
9000
7000
1000
1000
ENDCHAR
STARTCHAR uni0448
ENCODING 1096
SWIDTH 500 0
DWIDTH 6 0
BBX 6 6 0 0
BITMAP
9400
9400
9400
9400
9400
FC00
ENDCHAR
STARTCHAR uni0449
ENCODING 1097
SWIDTH 500 0
DWIDTH 6 0
BBX 7 8 0 -2
BITMAP
9400
9400
9400
9400
9400
FE00
0200
0200
ENDCHAR
STARTCHAR uni044A
ENCODING 1098
SWIDTH 500 0
DWIDTH 6 0
BBX 4 6 0 0
BITMAP
C000
4000
6000
5000
5000
6000
ENDCHAR
STARTCHAR uni044B
ENCODING 1099
SWIDTH 500 0
DWIDTH 6 0
BBX 6 6 0 0
BITMAP
8400
8400
E400
9400
9400
E400
ENDCHAR
STARTCHAR uni044C
ENCODING 1100
SWIDTH 500 0
DWIDTH 6 0
BBX 4 6 0 0
BITMAP
8000
8000
E000
9000
9000
E000
ENDCHAR
STARTCHAR uni044D
ENCODING 1101
SWIDTH 500 0
DWIDTH 6 0
BBX 3 6 0 0
BITMAP
C000
2000
6000
2000
2000
C000
ENDCHAR
STARTCHAR uni044E
ENCODING 1102
SWIDTH 500 0
DWIDTH 6 0
BBX 6 6 0 0
BITMAP
9800
A400
E400
A400
A400
9800
ENDCHAR
STARTCHAR uni044F
ENCODING 1103
SWIDTH 500 0
DWIDTH 6 0
BBX 4 6 0 0
BITMAP
7000
9000
9000
7000
5000
9000
ENDCHAR
STARTCHAR uni0450
ENCODING 1104
SWIDTH 500 0
DWIDTH 6 0
BBX 4 9 0 0
BITMAP
4000
2000
0000
6000
9000
F000
8000
8000
7000
ENDCHAR
STARTCHAR uni0451
ENCODING 1105
SWIDTH 500 0
DWIDTH 6 0
BBX 4 8 0 0
BITMAP
5000
0000
6000
9000
F000
8000
8000
7000
ENDCHAR
STARTCHAR uni0452
ENCODING 1106
SWIDTH 500 0
DWIDTH 6 0
BBX 5 11 0 -2
BITMAP
4000
E000
4000
7000
4800
4800
4800
4800
4800
0800
1000
ENDCHAR
STARTCHAR uni0453
ENCODING 1107
SWIDTH 500 0
DWIDTH 6 0
BBX 3 9 0 0
BITMAP
2000
4000
0000
E000
8000
8000
8000
8000
8000
ENDCHAR
STARTCHAR uni0454
ENCODING 1108
SWIDTH 500 0
DWIDTH 6 0
BBX 3 6 0 0
BITMAP
6000
8000
C000
8000
8000
6000
ENDCHAR
STARTCHAR uni0455
ENCODING 1109
SWIDTH 500 0
DWIDTH 6 0
BBX 3 6 0 0
BITMAP
6000
8000
C000
2000
2000
C000
ENDCHAR
STARTCHAR uni0456
ENCODING 1110
SWIDTH 500 0
DWIDTH 6 0
BBX 1 8 0 0
BITMAP
8000
0000
8000
8000
8000
8000
8000
8000
ENDCHAR
STARTCHAR uni0457
ENCODING 1111
SWIDTH 500 0
DWIDTH 6 0
BBX 3 8 0 0
BITMAP
A000
0000
4000
4000
4000
4000
4000
4000
ENDCHAR
STARTCHAR uni0458
ENCODING 1112
SWIDTH 500 0
DWIDTH 6 0
BBX 2 10 0 -2
BITMAP
4000
0000
4000
4000
4000
4000
4000
4000
4000
C000
ENDCHAR
STARTCHAR uni0459
ENCODING 1113
SWIDTH 500 0
DWIDTH 6 0
BBX 7 6 0 0
BITMAP
7000
5000
5C00
5200
5200
9C00
ENDCHAR
STARTCHAR uni045A
ENCODING 1114
SWIDTH 500 0
DWIDTH 6 0
BBX 6 6 0 0
BITMAP
9000
9000
F800
9400
9400
9800
ENDCHAR
STARTCHAR uni045B
ENCODING 1115
SWIDTH 500 0
DWIDTH 6 0
BBX 5 9 0 0
BITMAP
4000
E000
4000
7000
4800
4800
4800
4800
4800
ENDCHAR
STARTCHAR uni045C
ENCODING 1116
SWIDTH 500 0
DWIDTH 6 0
BBX 4 9 0 0
BITMAP
2000
4000
0000
9000
A000
C000
A000
A000
9000
ENDCHAR
STARTCHAR uni045D
ENCODING 1117
SWIDTH 500 0
DWIDTH 6 0
BBX 4 9 0 0
BITMAP
4000
2000
0000
9000
B000
B000
D000
9000
9000
ENDCHAR
STARTCHAR uni045E
ENCODING 1118
SWIDTH 500 0
DWIDTH 6 0
BBX 3 8 0 -2
BITMAP
A000
A000
A000
A000
A000
4000
4000
8000
ENDCHAR
STARTCHAR uni045F
ENCODING 1119
SWIDTH 500 0
DWIDTH 6 0
BBX 4 8 0 -2
BITMAP
9000
9000
9000
9000
9000
F000
2000
2000
ENDCHAR
STARTCHAR uni1E80
ENCODING 7808
SWIDTH 500 0
DWIDTH 6 0
BBX 7 10 0 0
BITMAP
2000
1000
0000
8200
9200
9200
AA00
AA00
AA00
4400
ENDCHAR
STARTCHAR uni1E81
ENCODING 7809
SWIDTH 500 0
DWIDTH 6 0
BBX 5 9 0 0
BITMAP
4000
2000
0000
A800
A800
A800
A800
D800
5000
ENDCHAR
STARTCHAR uni1E82
ENCODING 7810
SWIDTH 500 0
DWIDTH 6 0
BBX 7 10 0 0
BITMAP
0800
1000
0000
8200
9200
9200
AA00
AA00
AA00
4400
ENDCHAR
STARTCHAR uni1E83
ENCODING 7811
SWIDTH 500 0
DWIDTH 6 0
BBX 5 9 0 0
BITMAP
1000
2000
0000
A800
A800
A800
A800
D800
5000
ENDCHAR
STARTCHAR uni4E00
ENCODING 19968
SWIDTH 500 0
DWIDTH 6 0
BBX 11 2 0 4
BITMAP
0040
FFE0
ENDCHAR
STARTCHAR uni4E01
ENCODING 19969
SWIDTH 500 0
DWIDTH 6 0
BBX 11 11 0 -1
BITMAP
0040
FFE0
0200
0200
0200
0200
0200
0200
1200
0E00
0400
ENDCHAR
STARTCHAR uni4E03
ENCODING 19971
SWIDTH 500 0
DWIDTH 6 0
BBX 11 11 0 -1
BITMAP
0400
0400
0440
04E0
0F00
F400
0400
0400
0420
0420
03E0
ENDCHAR
STARTCHAR uni4E07
ENCODING 19975
SWIDTH 500 0
DWIDTH 6 0
BBX 11 11 0 -1
BITMAP
0040
FFE0
0800
0840
0FE0
0840
0840
0840
1240
21C0
C080
ENDCHAR
STARTCHAR uni4E08
ENCODING 19976
SWIDTH 500 0
DWIDTH 6 0
BBX 11 11 0 -1
BITMAP
0200
0200
FFE0
0200
2200
2200
1200
0A00
0400
1B00
E0E0
ENDCHAR
STARTCHAR uni4E09
ENCODING 19977
SWIDTH 500 0
DWIDTH 6 0
BBX 11 11 0 -1
BITMAP
0080
7FC0
0000
0000
0100
3F80
0000
0000
0000
0040
FFE0
ENDCHAR
STARTCHAR uni4E0A
ENCODING 19978
SWIDTH 500 0
DWIDTH 6 0
BBX 11 11 0 -1
BITMAP
0400
0400
0400
0480
07C0
0400
0400
0400
0400
0440
FFE0
ENDCHAR
STARTCHAR uni4E0B
ENCODING 19979
SWIDTH 500 0
DWIDTH 6 0
BBX 11 11 0 -1
BITMAP
0040
FFE0
0400
0600
0500
04C0
0440
0400
0400
0400
0400
ENDCHAR
STARTCHAR uni4E0C
ENCODING 19980
SWIDTH 500 0
DWIDTH 6 0
BBX 11 11 0 -1
BITMAP
0040
FFE0
1080
1080
1080
1080
1080
1080
2080
4080
8080
ENDCHAR
STARTCHAR uni4E0D
ENCODING 19981
SWIDTH 500 0
DWIDTH 6 0
BBX 11 11 0 -1
BITMAP
0040
FFE0
0200
0400
0D00
1480
2460
4420
8400
0400
0400
ENDCHAR
STARTCHAR uni4E0E
ENCODING 19982
SWIDTH 500 0
DWIDTH 6 0
BBX 11 11 0 -1
BITMAP
2040
3FE0
2000
4000
FFC0
0040
0440
FE40
0040
0780
0100
ENDCHAR
STARTCHAR uni4E0F
ENCODING 19983
SWIDTH 500 0
DWIDTH 6 0
BBX 11 11 0 -1
BITMAP
FFE0
0800
0800
4FC0
4840
8840
FFC0
0040
0040
0480
0300
ENDCHAR
STARTCHAR uni4E10
ENCODING 19984
SWIDTH 500 0
DWIDTH 6 0
BBX 11 11 0 -1
BITMAP
FFE0
0400
2400
27C0
4400
7FC0
0040
0040
0040
0480
0300
ENDCHAR
STARTCHAR uni4E11
ENCODING 19985
SWIDTH 500 0
DWIDTH 6 0
BBX 11 12 0 -1
BITMAP
0080
3FC0
0480
0480
0480
0480
7F80
0880
0880
0880
0880
FFE0
ENDCHAR
STARTCHAR uni4E13
ENCODING 19987
SWIDTH 500 0
DWIDTH 6 0
BBX 11 11 0 -1
BITMAP
0400
7FC0
0400
FFE0
0800
1080
3FC0
0100
0E00
0100
0080
ENDCHAR
STARTCHAR uni4E14
ENCODING 19988
SWIDTH 500 0
DWIDTH 6 0
BBX 11 11 0 -1
BITMAP
3F80
2080
2080
3F80
2080
2080
2080
3F80
2080
2080
FFE0
ENDCHAR
STARTCHAR uni4E15
ENCODING 19989
SWIDTH 500 0
DWIDTH 6 0
BBX 11 11 0 -1
BITMAP
7FC0
0200
0400
0C00
1480
2440
4460
8420
0400
0040
FFE0
ENDCHAR
STARTCHAR uni4E16
ENCODING 19990
SWIDTH 500 0
DWIDTH 6 0
BBX 11 11 0 -1
BITMAP
0480
2480
2480
FFE0
2480
2480
2480
2780
2000
2040
3FE0
ENDCHAR
STARTCHAR uni4E18
ENCODING 19992
SWIDTH 500 0
DWIDTH 6 0
BBX 10 11 0 -1
BITMAP
0300
3C00
2000
2000
3F80
2200
2200
2200
2200
2200
FFC0
ENDCHAR
STARTCHAR uni4E19
ENCODING 19993
SWIDTH 500 0
DWIDTH 6 0
BBX 10 11 0 -1
BITMAP
FFC0
0800
0800
FFC0
8840
8C40
9240
A140
8040
8240
8180
ENDCHAR
STARTCHAR uni4E1A
ENCODING 19994
SWIDTH 500 0
DWIDTH 6 0
BBX 11 11 0 -1
BITMAP
0900
0900
8920
8920
4940
4940
2980
2900
0900
0900
FFE0
ENDCHAR
STARTCHAR uni4E1B
ENCODING 19995
SWIDTH 500 0
DWIDTH 6 0
BBX 11 11 0 -1
BITMAP
1080
1080
1080
1880
1480
2480
2140
4220
8C20
0000
FFE0
ENDCHAR
STARTCHAR uni4E1C
ENCODING 19996
SWIDTH 500 0
DWIDTH 6 0
BBX 11 11 0 -1
BITMAP
0800
0840
FFE0
1400
2400
7FC0
0400
1500
24C0
5C60
8820
ENDCHAR
STARTCHAR uni4E1D
ENCODING 19997
SWIDTH 500 0
DWIDTH 6 0
BBX 11 11 0 -1
BITMAP
2100
2100
2940
4A40
F780
1080
2100
5AC0
E700
0000
FFE0
ENDCHAR
STARTCHAR uni4E1E
ENCODING 19998
SWIDTH 500 0
DWIDTH 6 0
BBX 11 11 0 -1
BITMAP
7FC0
0080
0100
7620
1440
2580
4480
9440
0C20
0000
FFE0
ENDCHAR
STARTCHAR uni4E1F
ENCODING 19999
SWIDTH 500 0
DWIDTH 6 0
BBX 11 11 0 -1
BITMAP
FFE0
0400
0400
7FC0
0400
0400
FFE0
0800
1040
FFE0
4020
ENDCHAR
STARTCHAR uni4E22
ENCODING 20002
SWIDTH 500 0
DWIDTH 6 0
BBX 11 11 0 -1
BITMAP
0180
3E00
0400
7FC0
0400
0400
FFE0
0800
1080
7FC0
2040
ENDCHAR
STARTCHAR uni4E24
ENCODING 20004
SWIDTH 500 0
DWIDTH 6 0
BBX 10 11 0 -1
BITMAP
FFC0
1200
FFC0
9240
9240
9240
AD40
C8C0
9040
8140
8080
ENDCHAR
STARTCHAR uni4E25
ENCODING 20005
SWIDTH 500 0
DWIDTH 6 0
BBX 11 11 0 -1
BITMAP
7FE0
4920
2940
1980
7FE0
4000
4000
4000
4000
4000
8000
ENDCHAR
STARTCHAR uni4E26
ENCODING 20006
SWIDTH 500 0
DWIDTH 6 0
BBX 11 11 0 -1
BITMAP
1100
0A00
FFE0
0A00
4A40
4A40
2A80
2A80
0A00
0A00
FFE0
ENDCHAR
STARTCHAR uni4E27
ENCODING 20007
SWIDTH 500 0
DWIDTH 6 0
BBX 11 11 0 -1
BITMAP
0400
0400
FFE0
2480
1500
FFE0
2440
2280
2100
2C80
3060
ENDCHAR
STARTCHAR uni4E28
ENCODING 20008
SWIDTH 500 0
DWIDTH 6 0
BBX 2 11 0 -1
BITMAP
80
C0
80
80
80
80
80
80
80
80
80
ENDCHAR
STARTCHAR uni4E2A
ENCODING 20010
SWIDTH 500 0
DWIDTH 6 0
BBX 11 11 0 -1
BITMAP
0400
0A00
1100
2480
4460
8420
0400
0400
0400
0400
0400
ENDCHAR
STARTCHAR uni4E2B
ENCODING 20011
SWIDTH 500 0
DWIDTH 6 0
BBX 9 11 0 -1
BITMAP
8180
6100
2200
0400
0800
0800
0800
0800
0800
0800
0800
ENDCHAR
STARTCHAR uni4E2C
ENCODING 20012
SWIDTH 500 0
DWIDTH 6 0
BBX 5 11 0 -1
BITMAP
08
48
28
08
08
28
48
88
08
08
08
ENDCHAR
STARTCHAR uni4E2D
ENCODING 20013
SWIDTH 500 0
DWIDTH 6 0
BBX 10 11 0 -1
BITMAP
0800
8880
FFC0
8880
8880
8880
FF80
8880
0800
0800
0800
ENDCHAR
STARTCHAR uni4E2E
ENCODING 20014
SWIDTH 500 0
DWIDTH 6 0
BBX 10 11 0 -1
BITMAP
FF00
1100
1100
7D00
1100
1100
FF00
1140
2140
40C0
8040
ENDCHAR
STARTCHAR uni4E30
ENCODING 20016
SWIDTH 500 0
DWIDTH 6 0
BBX 11 11 0 -1
BITMAP
0400
0400
7FC0
0400
0400
3F80
0400
0400
FFE0
0400
0400
ENDCHAR
STARTCHAR uni4E31
ENCODING 20017
SWIDTH 500 0
DWIDTH 6 0
BBX 10 11 0 -1
BITMAP
1200
9240
9240
9240
9240
F3C0
9240
1200
2200
4200
8200
ENDCHAR
STARTCHAR uni4E32
ENCODING 20018
SWIDTH 500 0
DWIDTH 6 0
BBX 11 11 0 -1
BITMAP
0400
7FC0
4440
7FC0
0400
FFE0
8420
FFE0
8420
0400
0400
ENDCHAR
STARTCHAR uni4E33
ENCODING 20019
SWIDTH 500 0
DWIDTH 6 0
BBX 10 11 0 -1
BITMAP
1200
7F80
5280
7F80
1200
FFC0
9240
FFC0
1200
2200
C200
ENDCHAR
STARTCHAR uni4E34
ENCODING 20020
SWIDTH 500 0
DWIDTH 6 0
BBX 11 11 0 -1
BITMAP
2400
A7E0
A800
B100
A080
AFE0
A920
A920
2920
2FE0
2820
ENDCHAR
STARTCHAR uni4E36
ENCODING 20022
SWIDTH 500 0
DWIDTH 6 0
BBX 3 4 0 3
BITMAP
80
40
20
20
ENDCHAR
STARTCHAR uni4E38
ENCODING 20024
SWIDTH 500 0
DWIDTH 6 0
BBX 11 11 0 -1
BITMAP
0800
0800
7F00
0900
2900
1900
0900
1500
2120
4120
80E0
ENDCHAR
STARTCHAR uni4E39
ENCODING 20025
SWIDTH 500 0
DWIDTH 6 0
BBX 10 11 0 -1
BITMAP
3F00
2100
2900
2500
2100
FFC0
2100
2100
2100
4700
8200
ENDCHAR
STARTCHAR uni4E3A
ENCODING 20026
SWIDTH 500 0
DWIDTH 6 0
BBX 11 11 0 -1
BITMAP
4400
2400
2400
FFE0
0420
0620
0520
0920
1020
21C0
C080
ENDCHAR
STARTCHAR uni4E3B
ENCODING 20027
SWIDTH 500 0
DWIDTH 6 0
BBX 11 11 0 -1
BITMAP
0800
0400
FFE0
0400
0400
0400
7FC0
0400
0400
0400
FFE0
ENDCHAR
STARTCHAR uni4E3C
ENCODING 20028
SWIDTH 500 0
DWIDTH 6 0
BBX 10 11 0 -1
BITMAP
2200
2200
FFC0
2A00
2600
2200
FFC0
2200
2200
4200
8200
ENDCHAR
STARTCHAR uni4E3D
ENCODING 20029
SWIDTH 500 0
DWIDTH 6 0
BBX 11 11 0 -1
BITMAP
FFE0
0000
7BC0
4A40
4A40
6B40
5AC0
4A40
4A40
5AC0
4A40
ENDCHAR
STARTCHAR uni4E3E
ENCODING 20030
SWIDTH 500 0
DWIDTH 6 0
BBX 11 11 0 -1
BITMAP
4880
4880
2500
FFE0
1500
2480
5F40
0400
FFE0
0400
0400
ENDCHAR
STARTCHAR uni4E3F
ENCODING 20031
SWIDTH 500 0
DWIDTH 6 0
BBX 5 11 0 -1
BITMAP
08
08
08
08
08
08
08
10
10
20
C0
ENDCHAR
STARTCHAR uni4E42
ENCODING 20034
SWIDTH 500 0
DWIDTH 6 0
BBX 11 11 0 -1
BITMAP
2080
2080
2080
2100
1100
1200
0A00
0400
0A00
3180
C060
ENDCHAR
STARTCHAR uni4E43
ENCODING 20035
SWIDTH 500 0
DWIDTH 6 0
BBX 11 11 0 -1
BITMAP
7F80
0880
0880
0900
13E0
1020
1020
2020
2020
4240
8180
ENDCHAR
STARTCHAR uni4E45
ENCODING 20037
SWIDTH 500 0
DWIDTH 6 0
BBX 10 11 0 -1
BITMAP
2000
3F00
2100
4100
8200
0400
0C00
1200
2100
40C0
8040
ENDCHAR
STARTCHAR uni4E47
ENCODING 20039
SWIDTH 500 0
DWIDTH 6 0
BBX 11 11 0 -1
BITMAP
0180
0E00
F800
0800
0800
09C0
FE00
0800
0820
0820
07E0
ENDCHAR
STARTCHAR uni4E48
ENCODING 20040
SWIDTH 500 0
DWIDTH 6 0
BBX 10 11 0 -1
BITMAP
1000
1000
2300
2200
4400
4400
0900
1080
27C0
F840
4040
ENDCHAR
STARTCHAR uni4E49
ENCODING 20041
SWIDTH 500 0
DWIDTH 6 0
BBX 11 11 0 -1
BITMAP
2880
2480
2480
2100
1100
1200
0A00
0400
0A00
3180
C060
ENDCHAR
STARTCHAR uni4E4B
ENCODING 20043
SWIDTH 500 0
DWIDTH 6 0
BBX 11 11 0 -1
BITMAP
0800
0400
7FC0
0080
0100
0200
0400
0800
3000
4800
87E0
ENDCHAR
STARTCHAR uni4E4C
ENCODING 20044
SWIDTH 500 0
DWIDTH 6 0
BBX 10 11 0 -1
BITMAP
0800
3F00
2100
2500
2200
3FC0
0040
0040
FE40
0080
0300
ENDCHAR
STARTCHAR uni4E4D
ENCODING 20045
SWIDTH 500 0
DWIDTH 6 0
BBX 11 11 0 -1
BITMAP
1000
1000
3FE0
4400
8400
07C0
0400
0400
07E0
0400
0400
ENDCHAR
STARTCHAR uni4E4E
ENCODING 20046
SWIDTH 500 0
DWIDTH 6 0
BBX 11 11 0 -1
BITMAP
01C0
7E00
2440
1480
1500
FFE0
0400
0400
2400
1C00
0800
ENDCHAR
STARTCHAR uni4E4F
ENCODING 20047
SWIDTH 500 0
DWIDTH 6 0
BBX 10 11 0 -1
BITMAP
0300
FC00
0800
0400
7F00
0200
0400
0800
3000
4800
87C0
ENDCHAR
STARTCHAR uni4E50
ENCODING 20048
SWIDTH 500 0
DWIDTH 6 0
BBX 10 11 0 -1
BITMAP
4700
7800
4400
4400
FFC0
0400
1400
2500
4480
9C40
0800
ENDCHAR
STARTCHAR uni4E52
ENCODING 20050
SWIDTH 500 0
DWIDTH 6 0
BBX 10 11 0 -1
BITMAP
0300
3C00
2000
3F80
2200
2200
2200
FFC0
1000
2000
C000
ENDCHAR
STARTCHAR uni4E53
ENCODING 20051
SWIDTH 500 0
DWIDTH 6 0
BBX 10 11 0 -1
BITMAP
0300
3C00
2000
3F80
2200
2200
2200
FFC0
0200
0100
00C0
ENDCHAR
STARTCHAR uni4E54
ENCODING 20052
SWIDTH 500 0
DWIDTH 6 0
BBX 11 11 0 -1
BITMAP
01C0
7E00
0800
FFE0
1100
2080
D160
1100
1100
2100
4100
ENDCHAR
STARTCHAR uni4E56
ENCODING 20054
SWIDTH 500 0
DWIDTH 6 0
BBX 11 11 0 -1
BITMAP
01C0
7E00
0400
FFE0
1500
7540
1580
3520
C4E0
0400
0400
ENDCHAR
STARTCHAR uni4E58
ENCODING 20056
SWIDTH 500 0
DWIDTH 6 0
BBX 11 11 0 -1
BITMAP
0380
7C00
0400
FFE0
1540
75A0
1520
FFE0
1500
2480
C460
ENDCHAR
STARTCHAR uni4E59
ENCODING 20057
SWIDTH 500 0
DWIDTH 6 0
BBX 9 11 0 -1
BITMAP
FE00
0200
0400
0800
1000
2000
4000
8080
8080
8080
7F80
ENDCHAR
STARTCHAR uni4E5C
ENCODING 20060
SWIDTH 500 0
DWIDTH 6 0
BBX 10 11 0 -1
BITMAP
2000
2080
2780
3880
E080
2080
2300
2100
2040
2040
1FC0
ENDCHAR
STARTCHAR uni4E5D
ENCODING 20061
SWIDTH 500 0
DWIDTH 6 0
BBX 11 11 0 -1
BITMAP
0800
0800
0900
FF80
0900
0900
0900
1100
2120
4120
80E0
ENDCHAR
STARTCHAR uni4E5E
ENCODING 20062
SWIDTH 500 0
DWIDTH 6 0
BBX 10 11 0 -1
BITMAP
2000
2080
3FC0
4000
BE00
0400
0800
1000
2040
2040
1FC0
ENDCHAR
STARTCHAR uni4E5F
ENCODING 20063
SWIDTH 500 0
DWIDTH 6 0
BBX 11 11 0 -1
BITMAP
0200
0240
22E0
2740
3A40
E240
2240
2380
2220
2020
1FE0
ENDCHAR
STARTCHAR uni4E60
ENCODING 20064
SWIDTH 500 0
DWIDTH 6 0
BBX 9 11 0 -1
BITMAP
FF80
0080
4080
2080
1080
0080
0C80
3080
C080
0480
0300
ENDCHAR
STARTCHAR uni4E61
ENCODING 20065
SWIDTH 500 0
DWIDTH 6 0
BBX 9 11 0 -1
BITMAP
0800
1000
2200
7C00
0980
1100
7F00
2200
0400
1800
E000
ENDCHAR
STARTCHAR uni4E66
ENCODING 20070
SWIDTH 500 0
DWIDTH 6 0
BBX 10 11 0 -1
BITMAP
0900
0880
7F40
0900
0900
FFC0
0840
0A40
0980
0800
0800
ENDCHAR
STARTCHAR uni4E69
ENCODING 20073
SWIDTH 500 0
DWIDTH 6 0
BBX 11 11 0 -1
BITMAP
2100
2100
3D00
2100
2100
FD00
8500
8500
8520
FD20
84E0
ENDCHAR
STARTCHAR uni4E70
ENCODING 20080
SWIDTH 500 0
DWIDTH 6 0
BBX 10 11 0 -1
BITMAP
FFC0
0040
2480
1400
4400
2400
FFC0
0800
1600
2100
C0C0
ENDCHAR
STARTCHAR uni4E71
ENCODING 20081
SWIDTH 500 0
DWIDTH 6 0
BBX 10 11 0 -1
BITMAP
1A00
E200
2200
FA00
2200
2200
FA00
8A00
8A40
FA40
89C0
ENDCHAR
STARTCHAR uni4E73
ENCODING 20083
SWIDTH 500 0
DWIDTH 6 0
BBX 11 11 0 -1
BITMAP
FD00
A500
5500
FD00
0900
1100
1D00
F100
1120
7120
20E0
ENDCHAR
STARTCHAR uni4E7E
ENCODING 20094
SWIDTH 500 0
DWIDTH 6 0
BBX 11 11 0 -1
BITMAP
2100
FD00
21E0
FA00
8BC0
F840
8880
F900
2220
FA20
21E0
ENDCHAR
STARTCHAR uni4E7F
ENCODING 20095
SWIDTH 500 0
DWIDTH 6 0
BBX 11 11 0 -1
BITMAP
FE80
4A80
3480
2480
7880
2480
7E80
0880
2CA0
4AA0
9960
ENDCHAR
STARTCHAR uni4E82
ENCODING 20098
SWIDTH 500 0
DWIDTH 6 0
BBX 11 11 0 -1
BITMAP
FD00
5500
FD00
2900
FD00
A500
FD00
AD00
9520
AD20
84E0
ENDCHAR
STARTCHAR uni4E83
ENCODING 20099
SWIDTH 500 0
DWIDTH 6 0
BBX 11 11 0 -1
BITMAP
9280
5480
FE80
5480
9280
4480
7E80
D480
3FA0
44A0
8460
ENDCHAR
STARTCHAR uni4E84
ENCODING 20100
SWIDTH 500 0
DWIDTH 6 0
BBX 11 11 0 -1
BITMAP
FE80
1080
FE80
8280
BA80
0080
7C80
4480
7CA0
28A0
FE60
ENDCHAR
STARTCHAR uni4E85
ENCODING 20101
SWIDTH 500 0
DWIDTH 6 0
BBX 4 10 0 0
BITMAP
10
20
20
20
20
20
20
20
20
E0
ENDCHAR
STARTCHAR uni4E86
ENCODING 20102
SWIDTH 500 0
DWIDTH 6 0
BBX 9 11 0 -1
BITMAP
FF80
0100
0200
0400
0400
0400
0400
0400
2400
1C00
0800
ENDCHAR
STARTCHAR uni4E88
ENCODING 20104
SWIDTH 500 0
DWIDTH 6 0
BBX 11 11 0 -1
BITMAP
7FC0
0080
0D00
0200
FFE0
0440
0480
0400
2400
1C00
0800
ENDCHAR
STARTCHAR uni4E89
ENCODING 20105
SWIDTH 500 0
DWIDTH 6 0
BBX 11 11 0 -1
BITMAP
1F00
2200
7FC0
0440
FFE0
0440
7FC0
0440
2400
1C00
0800
ENDCHAR
STARTCHAR uni4E8B
ENCODING 20107
SWIDTH 500 0
DWIDTH 6 0
BBX 11 11 0 -1
BITMAP
FFE0
0400
3F80
2480
7FC0
0440
FFE0
0440
7FC0
0400
1C00
ENDCHAR
STARTCHAR uni4E8C
ENCODING 20108
SWIDTH 500 0
DWIDTH 6 0
BBX 10 9 0 0
BITMAP
0100
7F80
0000
0000
0000
0000
0000
0080
FFC0
ENDCHAR
STARTCHAR uni4E8D
ENCODING 20109
SWIDTH 500 0
DWIDTH 6 0
BBX 10 11 0 -1
BITMAP
7F80
0000
0000
0000
FFC0
0400
0400
0400
2400
1C00
0800
ENDCHAR
STARTCHAR uni4E8E
ENCODING 20110
SWIDTH 500 0
DWIDTH 6 0
BBX 11 11 0 -1
BITMAP
7FC0
0400
0400
0400
FFE0
0400
0400
0400
2400
1C00
0800
ENDCHAR
STARTCHAR uni4E8F
ENCODING 20111
SWIDTH 500 0
DWIDTH 6 0
BBX 11 11 0 -1
BITMAP
3F80
0000
0000
FFE0
0800
1000
3FC0
0040
0040
0480
0300
ENDCHAR
STARTCHAR uni4E91
ENCODING 20113
SWIDTH 500 0
DWIDTH 6 0
BBX 11 11 0 -1
BITMAP
3F80
0000
0000
0000
FFE0
0800
0800
1100
2080
FFC0
4040
ENDCHAR
STARTCHAR uni4E92
ENCODING 20114
SWIDTH 500 0
DWIDTH 6 0
BBX 10 11 0 -1
BITMAP
FFC0
1000
1000
1F80
2100
2100
2100
7E00
0200
0200
FFC0
ENDCHAR
STARTCHAR uni4E93
ENCODING 20115
SWIDTH 500 0
DWIDTH 6 0
BBX 10 11 0 -1
BITMAP
7F80
0000
0000
0000
FFC0
2100
2100
2100
2100
4100
8100
ENDCHAR
STARTCHAR uni4E94
ENCODING 20116
SWIDTH 500 0
DWIDTH 6 0
BBX 10 11 0 -1
BITMAP
FFC0
0800
0800
0800
7F00
1100
1100
1100
2100
2100
FFC0
ENDCHAR
STARTCHAR uni4E95
ENCODING 20117
SWIDTH 500 0
DWIDTH 6 0
BBX 10 11 0 -1
BITMAP
1200
1200
FFC0
1200
1200
1200
FFC0
2200
2200
4200
8200
ENDCHAR
STARTCHAR uni4E98
ENCODING 20120
SWIDTH 500 0
DWIDTH 6 0
BBX 10 11 0 -1
BITMAP
FFC0
0000
3F00
2100
2100
3F00
2100
2100
3F00
0000
FFC0
ENDCHAR
STARTCHAR uni4E99
ENCODING 20121
SWIDTH 500 0
DWIDTH 6 0
BBX 10 11 0 -1
BITMAP
FFC0
1000
1000
1F00
2900
2500
5200
4A00
0400
0400
FFC0
ENDCHAR
STARTCHAR uni4E9A
ENCODING 20122
SWIDTH 500 0
DWIDTH 6 0
BBX 10 11 0 -1
BITMAP
FFC0
1200
1200
1200
9240
5280
5280
1200
1200
1200
FFC0
ENDCHAR
STARTCHAR uni4E9B
ENCODING 20123
SWIDTH 500 0
DWIDTH 6 0
BBX 10 11 0 -1
BITMAP
1200
1240
5A80
5300
5240
5E40
E1C0
0000
3F00
0000
FFC0
ENDCHAR
STARTCHAR uni4E9E
ENCODING 20126
SWIDTH 500 0
DWIDTH 6 0
BBX 10 11 0 -1
BITMAP
FFC0
1200
1200
7380
4080
4080
4080
7380
1200
1200
FFC0
ENDCHAR
STARTCHAR uni4E9F
ENCODING 20127
SWIDTH 500 0
DWIDTH 6 0
BBX 10 11 0 -1
BITMAP
FF80
1000
3800
0B80
E880
AA80
A900
EA80
0C40
1000
FFC0
ENDCHAR
STARTCHAR uni4EA0
ENCODING 20128
SWIDTH 500 0
DWIDTH 6 0
BBX 10 4 0 4
BITMAP
0800
0400
0400
FFC0
ENDCHAR
STARTCHAR uni4EA1
ENCODING 20129
SWIDTH 500 0
DWIDTH 6 0
BBX 10 11 0 -1
BITMAP
0800
0400
FFC0
2000
2000
2000
2000
2000
2080
3FC0
2000
ENDCHAR
STARTCHAR uni4EA2
ENCODING 20130
SWIDTH 500 0
DWIDTH 6 0
BBX 10 11 0 -1
BITMAP
0800
0400
FFC0
0000
3E00
2200
2200
2200
2240
4240
81C0
ENDCHAR
STARTCHAR uni4EA4
ENCODING 20132
SWIDTH 500 0
DWIDTH 6 0
BBX 10 11 0 -1
BITMAP
0800
FFC0
0000
2100
4280
A240
1200
1400
0C00
3300
C0C0
ENDCHAR
STARTCHAR uni4EA5
ENCODING 20133
SWIDTH 500 0
DWIDTH 6 0
BBX 10 11 0 -1
BITMAP
0800
0400
FFC0
1000
2200
7C80
0900
3200
C600
1900
E0C0
ENDCHAR
STARTCHAR uni4EA6
ENCODING 20134
SWIDTH 500 0
DWIDTH 6 0
BBX 10 11 0 -1
BITMAP
0800
0400
FFC0
1200
5280
5240
9240
1200
2200
4E00
8400
ENDCHAR
STARTCHAR uni4EA7
ENCODING 20135
SWIDTH 500 0
DWIDTH 6 0
BBX 11 11 0 -1
BITMAP
0200
7FE0
0880
0500
3FE0
2000
2000
2000
2000
4000
8000
ENDCHAR
STARTCHAR uni4EA8
ENCODING 20136
SWIDTH 500 0
DWIDTH 6 0
BBX 10 11 0 -1
BITMAP
0400
FFC0
2100
3F00
0000
FF80
0200
0400
2400
1C00
0800
ENDCHAR
STARTCHAR uni4EA9
ENCODING 20137
SWIDTH 500 0
DWIDTH 6 0
BBX 10 11 0 -1
BITMAP
0800
0400
FFC0
0000
FF80
8880
FF80
8880
8880
FF80
8080
ENDCHAR
STARTCHAR uni4EAB
ENCODING 20139
SWIDTH 500 0
DWIDTH 6 0
BBX 11 11 0 -1
BITMAP
0200
FFE0
2080
3F80
0000
3F80
0100
7FE0
0200
1200
0C00
ENDCHAR
STARTCHAR uni4EAC
ENCODING 20140
SWIDTH 500 0
DWIDTH 6 0
BBX 10 11 0 -1
BITMAP
0400
FFC0
0000
3F80
2080
2080
3F80
0400
2480
4440
9C40
ENDCHAR
STARTCHAR uni4EAD
ENCODING 20141
SWIDTH 500 0
DWIDTH 6 0
BBX 11 11 0 -1
BITMAP
0400
FFE0
2080
3F80
0000
FFE0
8020
BFA0
0400
0400
1C00
ENDCHAR
STARTCHAR uni4EAE
ENCODING 20142
SWIDTH 500 0
DWIDTH 6 0
BBX 11 11 0 -1
BITMAP
0400
FFE0
2080
3F80
0000
FFE0
8020
1F00
1120
2120
C0E0
ENDCHAR
STARTCHAR uni4EB2
ENCODING 20146
SWIDTH 500 0
DWIDTH 6 0
BBX 10 11 0 -1
BITMAP
0400
FFC0
1100
0A00
FFC0
0400
7F80
1500
2480
4440
9C40
ENDCHAR
STARTCHAR uni4EB3
ENCODING 20147
SWIDTH 500 0
DWIDTH 6 0
BBX 11 11 0 -1
BITMAP
0400
FFE0
1080
FFE0
8020
0380
3C00
0400
7FC0
0420
03E0
ENDCHAR
STARTCHAR uni4EB5
ENCODING 20149
SWIDTH 500 0
DWIDTH 6 0
BBX 11 11 0 -1
BITMAP
0800
FFE0
2200
FF80
2A80
76A0
A960
3480
E300
2900
70E0
ENDCHAR
STARTCHAR uni4EB6
ENCODING 20150
SWIDTH 500 0
DWIDTH 6 0
BBX 11 11 0 -1
BITMAP
0400
FFE0
5140
5F40
4040
7FC0
2080
3E80
2780
2080
FFE0
ENDCHAR
STARTCHAR uni4EB9
ENCODING 20153
SWIDTH 500 0
DWIDTH 6 0
BBX 11 11 0 -1
BITMAP
0400
FFE0
5140
7FC0
5540
5540
FFE0
A0A0
3F80
2080
FFE0
ENDCHAR
STARTCHAR uni4EBA
ENCODING 20154
SWIDTH 500 0
DWIDTH 6 0
BBX 11 11 0 -1
BITMAP
0400
0400
0400
0400
0400
0400
0A00
1100
2080
4060
8020
ENDCHAR
STARTCHAR uni4EBB
ENCODING 20155
SWIDTH 500 0
DWIDTH 6 0
BBX 4 11 0 -1
BITMAP
10
10
20
20
60
A0
20
20
20
20
20
ENDCHAR
STARTCHAR uni4EBF
ENCODING 20159
SWIDTH 500 0
DWIDTH 6 0
BBX 11 11 0 -1
BITMAP
1000
17C0
2080
2100
6200
A200
2400
2400
2820
2820
27E0
ENDCHAR
STARTCHAR uni4EC0
ENCODING 20160
SWIDTH 500 0
DWIDTH 6 0
BBX 11 11 0 -1
BITMAP
1100
1100
2100
2100
6FE0
A100
2100
2100
2100
2100
2100
ENDCHAR
STARTCHAR uni4EC1
ENCODING 20161
SWIDTH 500 0
DWIDTH 6 0
BBX 11 11 0 -1
BITMAP
1000
1000
27C0
2000
6000
A000
2000
2000
2000
2FE0
2000
ENDCHAR
STARTCHAR uni4EC2
ENCODING 20162
SWIDTH 500 0
DWIDTH 6 0
BBX 11 11 0 -1
BITMAP
1200
1200
2200
2FE0
6220
A220
2220
2220
2420
2920
30C0
ENDCHAR
STARTCHAR uni4EC3
ENCODING 20163
SWIDTH 500 0
DWIDTH 6 0
BBX 11 11 0 -1
BITMAP
1000
17E0
2080
2080
6080
A080
2080
2080
2480
2380
2100
ENDCHAR
STARTCHAR uni4EC4
ENCODING 20164
SWIDTH 500 0
DWIDTH 6 0
BBX 11 11 0 -1
BITMAP
3FE0
2000
2200
2200
2200
2200
2200
2500
4880
9040
2020
ENDCHAR
STARTCHAR uni4EC5
ENCODING 20165
SWIDTH 500 0
DWIDTH 6 0
BBX 11 11 0 -1
BITMAP
1000
1FE0
2440
2440
6440
A280
2280
2100
2280
2440
2820
ENDCHAR
STARTCHAR uni4EC6
ENCODING 20166
SWIDTH 500 0
DWIDTH 6 0
BBX 10 11 0 -1
BITMAP
1200
1200
2200
6300
A280
2240
2240
2200
2200
2200
2200
ENDCHAR
STARTCHAR uni4EC7
ENCODING 20167
SWIDTH 500 0
DWIDTH 6 0
BBX 11 11 0 -1
BITMAP
1200
1200
2200
2F80
6280
A280
2280
2280
24A0
28A0
30E0
ENDCHAR
STARTCHAR uni4EC8
ENCODING 20168
SWIDTH 500 0
DWIDTH 6 0
BBX 11 11 0 -1
BITMAP
1080
1080
2480
2480
6480
A480
2480
2840
2840
3020
3020
ENDCHAR
STARTCHAR uni4EC9
ENCODING 20169
SWIDTH 500 0
DWIDTH 6 0
BBX 11 11 0 -1
BITMAP
1780
1480
1480
2480
6480
A480
2480
2480
24A0
28A0
3060
ENDCHAR
STARTCHAR uni4ECA
ENCODING 20170
SWIDTH 500 0
DWIDTH 6 0
BBX 11 11 0 -1
BITMAP
0400
0A00
1100
2480
C260
0000
3F80
0100
0100
0200
0200
ENDCHAR
STARTCHAR uni4ECB
ENCODING 20171
SWIDTH 500 0
DWIDTH 6 0
BBX 11 11 0 -1
BITMAP
0400
0A00
1100
2080
C960
0900
0900
0900
1100
2100
4100
ENDCHAR
STARTCHAR uni4ECD
ENCODING 20173
SWIDTH 500 0
DWIDTH 6 0
BBX 11 11 0 -1
BITMAP
17E0
1220
2240
2240
22E0
6220
A220
2420
2420
2920
30C0
ENDCHAR
STARTCHAR uni4ECE
ENCODING 20174
SWIDTH 500 0
DWIDTH 6 0
BBX 11 11 0 -1
BITMAP
1100
1100
1100
1100
1100
1900
1500
2280
4440
8820
1020
ENDCHAR
STARTCHAR uni4ED1
ENCODING 20177
SWIDTH 500 0
DWIDTH 6 0
BBX 11 11 0 -1
BITMAP
0400
0A00
1100
2080
D060
1100
1200
1C00
1040
1040
0FC0
ENDCHAR
STARTCHAR uni4ED3
ENCODING 20179
SWIDTH 500 0
DWIDTH 6 0
BBX 10 11 0 -1
BITMAP
0C00
1200
2100
4080
BF40
2100
2100
2600
2080
2080
1F80
ENDCHAR
STARTCHAR uni4ED4
ENCODING 20180
SWIDTH 500 0
DWIDTH 6 0
BBX 11 11 0 -1
BITMAP
1000
1FE0
2080
2100
6100
AFE0
2100
2100
2900
2700
2200
ENDCHAR
STARTCHAR uni4ED5
ENCODING 20181
SWIDTH 500 0
DWIDTH 6 0
BBX 11 11 0 -1
BITMAP
1100
1100
2100
2100
6FE0
A100
2100
2100
2100
2100
27C0
ENDCHAR
STARTCHAR uni4ED6
ENCODING 20182
SWIDTH 500 0
DWIDTH 6 0
BBX 11 11 0 -1
BITMAP
1100
1100
2540
25C0
6F40
A540
2540
2580
2520
2420
23E0
ENDCHAR
STARTCHAR uni4ED7
ENCODING 20183
SWIDTH 500 0
DWIDTH 6 0
BBX 11 11 0 -1
BITMAP
1080
1080
2FE0
2080
6480
A480
2280
2100
2300
2480
2860
ENDCHAR
STARTCHAR uni4ED8
ENCODING 20184
SWIDTH 500 0
DWIDTH 6 0
BBX 11 11 0 -1
BITMAP
1080
1080
2080
2FE0
6080
A480
2280
2280
2080
2280
2100
ENDCHAR
STARTCHAR uni4ED9
ENCODING 20185
SWIDTH 500 0
DWIDTH 6 0
BBX 11 11 0 -1
BITMAP
1100
1100
2100
2920
6920
A920
2920
2920
2920
2FE0
2820
ENDCHAR
STARTCHAR uni4EDA
ENCODING 20186
SWIDTH 500 0
DWIDTH 6 0
BBX 11 11 0 -1
BITMAP
0400
0A00
1100
2480
C460
0400
4440
4440
4440
7FC0
4040
ENDCHAR
STARTCHAR uni4EDC
ENCODING 20188
SWIDTH 500 0
DWIDTH 6 0
BBX 11 11 0 -1
BITMAP
1000
17C0
2100
2100
6100
A100
2100
2100
2100
2100
2FE0
ENDCHAR
STARTCHAR uni4EDD
ENCODING 20189
SWIDTH 500 0
DWIDTH 6 0
BBX 11 11 0 -1
BITMAP
0400
0A00
1100
2080
C060
3F80
0400
0400
0400
0400
FFE0
ENDCHAR
STARTCHAR uni4EDE
ENCODING 20190
SWIDTH 500 0
DWIDTH 6 0
BBX 11 11 0 -1
BITMAP
1000
17E0
2120
2120
6520
A520
2920
2220
2220
2420
28C0
ENDCHAR
STARTCHAR uni4EDF
ENCODING 20191
SWIDTH 500 0
DWIDTH 6 0
BBX 11 11 0 -1
BITMAP
10C0
1700
2100
2100
6100
AFE0
2100
2100
2100
2100
2100
ENDCHAR
STARTCHAR uni4EE1
ENCODING 20193
SWIDTH 500 0
DWIDTH 6 0
BBX 11 11 0 -1
BITMAP
1200
1200
27E0
2800
67C0
A040
2080
2100
2220
2420
27E0
ENDCHAR
STARTCHAR uni4EE3
ENCODING 20195
SWIDTH 500 0
DWIDTH 6 0
BBX 11 11 0 -1
BITMAP
1280
1240
2200
23E0
6E00
A200
2200
2100
2120
20A0
2060
ENDCHAR
STARTCHAR uni4EE4
ENCODING 20196
SWIDTH 500 0
DWIDTH 6 0
BBX 10 11 0 -1
BITMAP
0C00
1200
2100
4880
8440
7F80
0100
0200
1C00
0400
0200
ENDCHAR
STARTCHAR uni4EE5
ENCODING 20197
SWIDTH 500 0
DWIDTH 6 0
BBX 11 11 0 -1
BITMAP
0040
2440
2240
2240
2040
2440
2840
3080
E180
4260
0C20
ENDCHAR
STARTCHAR uni4EE8
ENCODING 20200
SWIDTH 500 0
DWIDTH 6 0
BBX 11 11 0 -1
BITMAP
1000
1000
2FE0
2000
6000
A000
27C0
2000
2000
2000
2FE0
ENDCHAR
STARTCHAR uni4EE9
ENCODING 20201
SWIDTH 500 0
DWIDTH 6 0
BBX 11 11 0 -1
BITMAP
1200
1200
2200
2200
63C0
A200
2200
2200
2200
2200
3FE0
ENDCHAR
STARTCHAR uni4EEA
ENCODING 20202
SWIDTH 500 0
DWIDTH 6 0
BBX 11 11 0 -1
BITMAP
1200
1140
2940
2840
6840
A480
2280
2100
2280
2440
2820
ENDCHAR
STARTCHAR uni4EEB
ENCODING 20203
SWIDTH 500 0
DWIDTH 6 0
BBX 11 11 0 -1
BITMAP
1000
1300
2200
2400
6980
B100
2200
2440
2820
3FE0
2820
ENDCHAR
STARTCHAR uni4EEC
ENCODING 20204
SWIDTH 500 0
DWIDTH 6 0
BBX 11 11 0 -1
BITMAP
25E0
2220
2820
2820
6820
A820
2820
2820
2920
28E0
2840
ENDCHAR
STARTCHAR uni4EF0
ENCODING 20208
SWIDTH 500 0
DWIDTH 6 0
BBX 11 11 0 -1
BITMAP
1200
1CE0
28A0
28A0
68A0
A8A0
2AA0
2CA0
28E0
2080
2080
ENDCHAR
STARTCHAR uni4EF1
ENCODING 20209
SWIDTH 500 0
DWIDTH 6 0
BBX 11 11 0 -1
BITMAP
1100
1280
2440
2A20
6100
A000
2FC0
2080
2080
2100
2200
ENDCHAR
STARTCHAR uni4EF2
ENCODING 20210
SWIDTH 500 0
DWIDTH 6 0
BBX 11 11 0 -1
BITMAP
1100
1100
2FE0
2920
6920
A920
2FE0
2920
2100
2100
2100
ENDCHAR
STARTCHAR uni4EF3
ENCODING 20211
SWIDTH 500 0
DWIDTH 6 0
BBX 11 11 0 -1
BITMAP
1480
1480
2480
24A0
67C0
A480
2480
2480
25A0
26A0
2460
ENDCHAR
STARTCHAR uni4EF4
ENCODING 20212
SWIDTH 500 0
DWIDTH 6 0
BBX 11 11 0 -1
BITMAP
17E0
1420
2420
27E0
6420
A420
27E0
2420
2520
28E0
3040
ENDCHAR
STARTCHAR uni4EF5
ENCODING 20213
SWIDTH 500 0
DWIDTH 6 0
BBX 11 11 0 -1
BITMAP
1400
1400
27C0
2900
6100
A100
2FE0
2100
2100
2100
2100
ENDCHAR
STARTCHAR uni4EF6
ENCODING 20214
SWIDTH 500 0
DWIDTH 6 0
BBX 11 11 0 -1
BITMAP
1100
1500
2500
2FC0
7100
A100
2100
3FE0
2100
2100
2100
ENDCHAR
STARTCHAR uni4EF7
ENCODING 20215
SWIDTH 500 0
DWIDTH 6 0
BBX 11 11 0 -1
BITMAP
1100
1280
2440
2820
6480
A480
2480
2480
2480
2880
3080
ENDCHAR
STARTCHAR uni4EFB
ENCODING 20219
SWIDTH 500 0
DWIDTH 6 0
BBX 11 11 0 -1
BITMAP
1040
1780
2100
2100
6100
AFE0
2100
2100
2100
2100
27C0
ENDCHAR
STARTCHAR uni4EFD
ENCODING 20221
SWIDTH 500 0
DWIDTH 6 0
BBX 11 11 0 -1
BITMAP
1280
1280
2480
2840
7020
AFC0
2240
2240
2240
2440
2980
ENDCHAR
STARTCHAR uni4EFF
ENCODING 20223
SWIDTH 500 0
DWIDTH 6 0
BBX 11 11 0 -1
BITMAP
1200
1100
2FE0
2200
6200
A3C0
2240
2240
2440
2440
2980
ENDCHAR
STARTCHAR uni4F00
ENCODING 20224
SWIDTH 500 0
DWIDTH 6 0
BBX 11 11 0 -1
BITMAP
1280
1280
2480
2440
6920
A100
2200
2240
2440
3FE0
2820
ENDCHAR
STARTCHAR uni4F01
ENCODING 20225
SWIDTH 500 0
DWIDTH 6 0
BBX 10 11 0 -1
BITMAP
0C00
1200
2100
4480
8440
2400
2700
2400
2400
2400
FFC0
ENDCHAR
STARTCHAR uni4F02
ENCODING 20226
SWIDTH 500 0
DWIDTH 6 0
BBX 11 11 0 -1
BITMAP
1100
1100
2FE0
2100
6FE0
A920
2920
2920
2960
2100
2100
ENDCHAR
STARTCHAR uni4F04
ENCODING 20228
SWIDTH 500 0
DWIDTH 6 0
BBX 11 11 0 -1
BITMAP
17C0
1140
2140
2FC0
6900
A900
2FE0
2120
2120
21C0
2100
ENDCHAR
STARTCHAR uni4F05
ENCODING 20229
SWIDTH 500 0
DWIDTH 6 0
BBX 11 11 0 -1
BITMAP
1100
1100
2FE0
2100
6920
A920
2FE0
2100
2120
2120
20E0
ENDCHAR
STARTCHAR uni4F08
ENCODING 20232
SWIDTH 500 0
DWIDTH 6 0
BBX 11 11 0 -1
BITMAP
1100
1080
2080
2200
6200
AA40
2A20
3220
2240
2240
21C0
ENDCHAR
STARTCHAR uni4F09
ENCODING 20233
SWIDTH 500 0
DWIDTH 6 0
BBX 11 11 0 -1
BITMAP
1200
1100
2FE0
2000
6780
A480
2480
2480
24A0
28A0
3060
ENDCHAR
STARTCHAR uni4F0A
ENCODING 20234
SWIDTH 500 0
DWIDTH 6 0
BBX 11 11 0 -1
BITMAP
1000
17C0
2240
2240
6FE0
A240
2240
2FC0
2200
2400
2800
ENDCHAR
STARTCHAR uni4F0B
ENCODING 20235
SWIDTH 500 0
DWIDTH 6 0
BBX 11 11 0 -1
BITMAP
1FC0
1240
2280
22E0
6220
A220
2240
2540
2480
2940
3220
ENDCHAR
STARTCHAR uni4F0D
ENCODING 20237
SWIDTH 500 0
DWIDTH 6 0
BBX 11 11 0 -1
BITMAP
1000
1FE0
2200
2200
6200
AFC0
2440
2440
2440
2440
3FE0
ENDCHAR
STARTCHAR uni4F0E
ENCODING 20238
SWIDTH 500 0
DWIDTH 6 0
BBX 11 11 0 -1
BITMAP
1100
1100
2FE0
2100
6100
AFE0
2440
2280
2100
2280
2C60
ENDCHAR
STARTCHAR uni4F0F
ENCODING 20239
SWIDTH 500 0
DWIDTH 6 0
BBX 11 11 0 -1
BITMAP
1100
1140
2120
2100
6FE0
A100
2100
2100
2280
2440
2820
ENDCHAR
STARTCHAR uni4F10
ENCODING 20240
SWIDTH 500 0
DWIDTH 6 0
BBX 11 11 0 -1
BITMAP
1280
1240
2200
23E0
7E20
A240
2280
2100
22A0
2460
2820
ENDCHAR
STARTCHAR uni4F11
ENCODING 20241
SWIDTH 500 0
DWIDTH 6 0
BBX 11 11 0 -1
BITMAP
1100
1100
2100
3FE0
6100
A100
2380
2540
2920
3120
2100
ENDCHAR
STARTCHAR uni4F12
ENCODING 20242
SWIDTH 500 0
DWIDTH 6 0
BBX 11 11 0 -1
BITMAP
1040
1780
2400
2400
67E0
A480
2480
2480
2480
2880
3080
ENDCHAR
STARTCHAR uni4F13
ENCODING 20243
SWIDTH 500 0
DWIDTH 6 0
BBX 11 11 0 -1
BITMAP
1000
1FE0
2080
2100
6300
A540
2920
3120
2100
2100
2100
ENDCHAR
STARTCHAR uni4F14
ENCODING 20244
SWIDTH 500 0
DWIDTH 6 0
BBX 11 11 0 -1
BITMAP
2000
2FE0
2820
2820
6780
A480
2480
2480
24A0
28A0
3060
ENDCHAR
STARTCHAR uni4F15
ENCODING 20245
SWIDTH 500 0
DWIDTH 6 0
BBX 11 11 0 -1
BITMAP
1100
1100
27C0
2100
6100
AFE0
2100
2280
2440
2820
3020
ENDCHAR
STARTCHAR uni4F17
ENCODING 20247
SWIDTH 500 0
DWIDTH 6 0
BBX 11 11 0 -1
BITMAP
0400
0A00
1100
2080
4140
9120
1100
1100
2A80
4440
8820
ENDCHAR
STARTCHAR uni4F18
ENCODING 20248
SWIDTH 500 0
DWIDTH 6 0
BBX 11 11 0 -1
BITMAP
1140
1120
2100
2FE0
6100
A100
2100
2100
2320
2520
28E0
ENDCHAR
STARTCHAR uni4F19
ENCODING 20249
SWIDTH 500 0
DWIDTH 6 0
BBX 11 11 0 -1
BITMAP
1100
1100
2120
2540
6580
A900
2100
2100
2280
2440
2820
ENDCHAR
STARTCHAR uni4F1A
ENCODING 20250
SWIDTH 500 0
DWIDTH 6 0
BBX 11 11 0 -1
BITMAP
0400
0A00
3180
C060
1F00
0000
7FC0
0800
1080
7FC0
2040
ENDCHAR
STARTCHAR uni4F1B
ENCODING 20251
SWIDTH 500 0
DWIDTH 6 0
BBX 11 11 0 -1
BITMAP
2FE0
2800
2840
2A40
6980
A880
2940
2A20
2800
2800
2FE0
ENDCHAR
STARTCHAR uni4F1D
ENCODING 20253
SWIDTH 500 0
DWIDTH 6 0
BBX 11 11 0 -1
BITMAP
17C0
1000
2000
2000
6FE0
A100
2100
2200
2440
3FE0
2820
ENDCHAR
STARTCHAR uni4F1E
ENCODING 20254
SWIDTH 500 0
DWIDTH 6 0
BBX 11 11 0 -1
BITMAP
0400
0A00
1100
2080
4440
A4A0
1500
0400
FFE0
0400
0400
ENDCHAR
STARTCHAR uni4F1F
ENCODING 20255
SWIDTH 500 0
DWIDTH 6 0
BBX 11 11 0 -1
BITMAP
1100
1100
2FE0
2100
67C0
A100
2FE0
2120
2120
2160
2100
ENDCHAR
STARTCHAR uni4F20
ENCODING 20256
SWIDTH 500 0
DWIDTH 6 0
BBX 11 11 0 -1
BITMAP
1100
1100
27E0
2100
6FE0
A200
27E0
2080
2300
2080
2040
ENDCHAR
STARTCHAR uni4F22
ENCODING 20258
SWIDTH 500 0
DWIDTH 6 0
BBX 11 11 0 -1
BITMAP
1000
1FE0
2480
2480
6FE0
A080
2180
2280
2480
2880
2380
ENDCHAR
STARTCHAR uni4F24
ENCODING 20260
SWIDTH 500 0
DWIDTH 6 0
BBX 11 11 0 -1
BITMAP
1400
1400
27E0
2900
6100
A7E0
2120
2120
2220
2420
28C0
ENDCHAR
STARTCHAR uni4F25
ENCODING 20261
SWIDTH 500 0
DWIDTH 6 0
BBX 11 11 0 -1
BITMAP
1400
1440
2480
2500
6600
BFC0
2500
2480
2440
2520
2620
ENDCHAR
STARTCHAR uni4F26
ENCODING 20262
SWIDTH 500 0
DWIDTH 6 0
BBX 11 11 0 -1
BITMAP
1100
1280
2440
2820
7200
A240
2280
2300
2220
2220
21E0
ENDCHAR
STARTCHAR uni4F27
ENCODING 20263
SWIDTH 500 0
DWIDTH 6 0
BBX 11 11 0 -1
BITMAP
1100
1280
2440
2820
67C0
A440
2440
25C0
2420
2420
23E0
ENDCHAR
STARTCHAR uni4F2A
ENCODING 20266
SWIDTH 500 0
DWIDTH 6 0
BBX 11 11 0 -1
BITMAP
1900
1500
2100
2FE0
6220
A320
22A0
24A0
2420
2820
30C0
ENDCHAR
STARTCHAR uni4F2B
ENCODING 20267
SWIDTH 500 0
DWIDTH 6 0
BBX 11 11 0 -1
BITMAP
1200
1100
2FE0
2820
7040
A000
2000
2000
2000
2FE0
2000
ENDCHAR
STARTCHAR uni4F2C
ENCODING 20268
SWIDTH 500 0
DWIDTH 6 0
BBX 11 11 0 -1
BITMAP
17E0
1420
2420
2420
67E0
A480
2480
2480
2440
2820
3020
ENDCHAR
STARTCHAR uni4F2D
ENCODING 20269
SWIDTH 500 0
DWIDTH 6 0
BBX 11 11 0 -1
BITMAP
1200
1100
2FE0
2200
6480
AF80
2100
2200
2440
2FE0
2420
ENDCHAR
STARTCHAR uni4F2F
ENCODING 20271
SWIDTH 500 0
DWIDTH 6 0
BBX 11 11 0 -1
BITMAP
1100
1200
27E0
2420
6420
A420
27E0
2420
2420
27E0
2420
ENDCHAR
STARTCHAR uni4F30
ENCODING 20272
SWIDTH 500 0
DWIDTH 6 0
BBX 11 11 0 -1
BITMAP
1100
1100
2100
2FE0
6100
A100
27C0
2440
2440
27C0
2440
ENDCHAR
STARTCHAR uni4F32
ENCODING 20274
SWIDTH 500 0
DWIDTH 6 0
BBX 11 11 0 -1
BITMAP
17E0
1420
2420
27E0
6400
A520
2540
2580
2920
2920
30E0
ENDCHAR
STARTCHAR uni4F33
ENCODING 20275
SWIDTH 500 0
DWIDTH 6 0
BBX 11 11 0 -1
BITMAP
1540
1540
2540
2FE0
6540
A540
2540
25C0
2400
2400
27E0
ENDCHAR
STARTCHAR uni4F34
ENCODING 20276
SWIDTH 500 0
DWIDTH 6 0
BBX 11 11 0 -1
BITMAP
1100
1920
2540
2100
67C0
A100
2100
2FE0
2100
2100
2100
ENDCHAR
STARTCHAR uni4F36
ENCODING 20278
SWIDTH 500 0
DWIDTH 6 0
BBX 11 11 0 -1
BITMAP
1100
1280
2440
2920
7080
A000
2FE0
2040
2480
2300
20C0
ENDCHAR
STARTCHAR uni4F38
ENCODING 20280
SWIDTH 500 0
DWIDTH 6 0
BBX 11 11 0 -1
BITMAP
1100
1100
2FE0
2920
6FE0
A920
2920
2FE0
2920
2100
2100
ENDCHAR
STARTCHAR uni4F3A
ENCODING 20282
SWIDTH 500 0
DWIDTH 6 0
BBX 11 11 0 -1
BITMAP
1000
17E0
2020
2FA0
6020
A720
2520
2520
2720
2020
20E0
ENDCHAR
STARTCHAR uni4F3B
ENCODING 20283
SWIDTH 500 0
DWIDTH 6 0
BBX 11 11 0 -1
BITMAP
1000
1FE0
2100
2920
6540
A540
2FE0
2100
2100
2100
2100
ENDCHAR
STARTCHAR uni4F3C
ENCODING 20284
SWIDTH 500 0
DWIDTH 6 0
BBX 11 11 0 -1
BITMAP
2040
2A40
2940
2940
6840
A840
2840
2A40
2C80
3160
2620
ENDCHAR
STARTCHAR uni4F3D
ENCODING 20285
SWIDTH 500 0
DWIDTH 6 0
BBX 11 11 0 -1
BITMAP
2800
2800
3EE0
2AA0
6AA0
AAA0
2AA0
2AA0
2AA0
32E0
26A0
ENDCHAR
STARTCHAR uni4F3E
ENCODING 20286
SWIDTH 500 0
DWIDTH 6 0
BBX 11 11 0 -1
BITMAP
1000
1FE0
2080
2100
6300
A540
2920
2120
2100
2100
2FE0
ENDCHAR
STARTCHAR uni4F3F
ENCODING 20287
SWIDTH 500 0
DWIDTH 6 0
BBX 11 11 0 -1
BITMAP
1000
17C0
2440
2440
6440
A7C0
2440
2280
2240
2420
2820
ENDCHAR
STARTCHAR uni4F41
ENCODING 20289
SWIDTH 500 0
DWIDTH 6 0
BBX 11 11 0 -1
BITMAP
1100
1100
2200
2440
6FE0
A020
27C0
2440
2440
27C0
2440
ENDCHAR
STARTCHAR uni4F43
ENCODING 20291
SWIDTH 500 0
DWIDTH 6 0
BBX 11 11 0 -1
BITMAP
1000
1FE0
2920
2920
6920
AFE0
2920
2920
2920
2FE0
2820
ENDCHAR
STARTCHAR uni4F46
ENCODING 20294
SWIDTH 500 0
DWIDTH 6 0
BBX 11 11 0 -1
BITMAP
1000
17C0
2440
2440
67C0
A440
2440
27C0
2000
2000
2FE0
ENDCHAR
STARTCHAR uni4F47
ENCODING 20295
SWIDTH 500 0
DWIDTH 6 0
BBX 11 11 0 -1
BITMAP
1100
1080
2FE0
2820
6000
AFE0
2100
2100
2900
2700
2200
ENDCHAR
STARTCHAR uni4F48
ENCODING 20296
SWIDTH 500 0
DWIDTH 6 0
BBX 11 11 0 -1
BITMAP
2200
2200
3FE0
2500
6500
AFE0
3920
2920
2960
2100
2100
ENDCHAR
STARTCHAR uni4F49
ENCODING 20297
SWIDTH 500 0
DWIDTH 6 0
BBX 11 11 0 -1
BITMAP
1100
1100
2FE0
2100
6100
BFE0
2200
2280
2440
2FE0
2420
ENDCHAR
STARTCHAR uni4F4C
ENCODING 20300
SWIDTH 500 0
DWIDTH 6 0
BBX 11 11 0 -1
BITMAP
2480
2480
4480
54A0
D6C0
5480
5480
5480
55A0
56A0
5860
ENDCHAR
STARTCHAR uni4F4D
ENCODING 20301
SWIDTH 500 0
DWIDTH 6 0
BBX 11 11 0 -1
BITMAP
1200
1100
2000
2FE0
6000
A440
2240
2280
2080
2100
2FE0
ENDCHAR
STARTCHAR uni4F4E
ENCODING 20302
SWIDTH 500 0
DWIDTH 6 0
BBX 11 11 0 -1
BITMAP
1060
1F80
2900
2900
6900
AFE0
2900
2920
2AA0
2D60
28A0
ENDCHAR
STARTCHAR uni4F4F
ENCODING 20303
SWIDTH 500 0
DWIDTH 6 0
BBX 11 11 0 -1
BITMAP
1200
1100
2FE0
2100
6100
A100
27C0
2100
2100
2100
2FE0
ENDCHAR
STARTCHAR uni4F50
ENCODING 20304
SWIDTH 500 0
DWIDTH 6 0
BBX 11 11 0 -1
BITMAP
1200
1200
2FE0
2200
6400
A7C0
2900
3100
2100
2100
2FE0
ENDCHAR
STARTCHAR uni4F51
ENCODING 20305
SWIDTH 500 0
DWIDTH 6 0
BBX 11 11 0 -1
BITMAP
1100
1100
2FE0
2200
6400
AFE0
3420
2420
2420
27E0
2420
ENDCHAR
STARTCHAR uni4F52
ENCODING 20306
SWIDTH 500 0
DWIDTH 6 0
BBX 11 11 0 -1
BITMAP
1100
1100
27C0
2540
6540
A540
2FE0
2100
2280
2440
2820
ENDCHAR
STARTCHAR uni4F53
ENCODING 20307
SWIDTH 500 0
DWIDTH 6 0
BBX 11 11 0 -1
BITMAP
1100
1100
2FE0
2100
6380
A540
2920
3120
27C0
2100
2100
ENDCHAR
STARTCHAR uni4F54
ENCODING 20308
SWIDTH 500 0
DWIDTH 6 0
BBX 11 11 0 -1
BITMAP
1100
1100
21E0
2100
6100
A7C0
2440
2440
2440
27C0
2440
ENDCHAR
STARTCHAR uni4F55
ENCODING 20309
SWIDTH 500 0
DWIDTH 6 0
BBX 11 11 0 -1
BITMAP
1000
17E0
2040
2040
6F40
A940
2940
2F40
2040
21C0
2080
ENDCHAR
STARTCHAR uni4F56
ENCODING 20310
SWIDTH 500 0
DWIDTH 6 0
BBX 11 11 0 -1
BITMAP
2240
2140
2480
2480
6C80
B540
3520
2620
2440
2C40
33C0
ENDCHAR
STARTCHAR uni4F57
ENCODING 20311
SWIDTH 500 0
DWIDTH 6 0
BBX 11 11 0 -1
BITMAP
1200
1100
2FE0
2820
6400
A480
2500
2600
2420
2420
23E0
ENDCHAR
STARTCHAR uni4F58
ENCODING 20312
SWIDTH 500 0
DWIDTH 6 0
BBX 11 11 0 -1
BITMAP
0F00
1080
2040
4FA0
0000
3FE0
0200
1280
2240
4E20
8420
ENDCHAR
STARTCHAR uni4F59
ENCODING 20313
SWIDTH 500 0
DWIDTH 6 0
BBX 10 11 0 -1
BITMAP
1E00
2100
4080
9F40
0400
7FC0
0400
1500
2480
5C40
8840
ENDCHAR
STARTCHAR uni4F5A
ENCODING 20314
SWIDTH 500 0
DWIDTH 6 0
BBX 11 11 0 -1
BITMAP
1100
1500
2500
2FC0
6900
A100
2FE0
2100
2280
2440
2820
ENDCHAR
STARTCHAR uni4F5B
ENCODING 20315
SWIDTH 500 0
DWIDTH 6 0
BBX 11 11 0 -1
BITMAP
2500
2500
3FE0
2520
7FE0
B500
3FE0
2520
2560
2900
3100
ENDCHAR
STARTCHAR uni4F5C
ENCODING 20316
SWIDTH 500 0
DWIDTH 6 0
BBX 11 11 0 -1
BITMAP
1400
1400
27E0
2A00
7200
A3C0
2200
23E0
2200
2200
2200
ENDCHAR
STARTCHAR uni4F5D
ENCODING 20317
SWIDTH 500 0
DWIDTH 6 0
BBX 11 11 0 -1
BITMAP
1400
1400
27E0
2820
7720
A520
2520
2720
2520
2020
20C0
ENDCHAR
STARTCHAR uni4F5E
ENCODING 20318
SWIDTH 500 0
DWIDTH 6 0
BBX 11 11 0 -1
BITMAP
17C0
1000
2000
2FE0
6100
A200
3FE0
2440
2480
2380
2E60
ENDCHAR
STARTCHAR uni4F5F
ENCODING 20319
SWIDTH 500 0
DWIDTH 6 0
BBX 11 11 0 -1
BITMAP
1400
17C0
2440
2A80
6100
A280
2540
28A0
2000
2300
20C0
ENDCHAR
STARTCHAR uni4F60
ENCODING 20320
SWIDTH 500 0
DWIDTH 6 0
BBX 11 11 0 -1
BITMAP
1400
1400
27E0
2920
6100
A540
2540
2920
3120
2520
2200
ENDCHAR
STARTCHAR uni4F61
ENCODING 20321
SWIDTH 500 0
DWIDTH 6 0
BBX 11 11 0 -1
BITMAP
1100
1280
2440
2920
7100
A920
2920
2920
2920
2FE0
2820
ENDCHAR
STARTCHAR uni4F62
ENCODING 20322
SWIDTH 500 0
DWIDTH 6 0
BBX 11 11 0 -1
BITMAP
17E0
1400
2400
27C0
6440
A440
27C0
2440
2400
2400
27E0
ENDCHAR
STARTCHAR uni4F63
ENCODING 20323
SWIDTH 500 0
DWIDTH 6 0
BBX 11 11 0 -1
BITMAP
2FE0
2920
2920
2FE0
6920
A920
2FE0
2920
2920
2920
30E0
ENDCHAR
STARTCHAR uni4F64
ENCODING 20324
SWIDTH 500 0
DWIDTH 6 0
BBX 11 11 0 -1
BITMAP
1FE0
1400
2400
2780
6880
AA80
2980
2880
2AA0
2CA0
2860
ENDCHAR
STARTCHAR uni4F65
ENCODING 20325
SWIDTH 500 0
DWIDTH 6 0
BBX 10 11 0 -1
BITMAP
0C00
1200
2100
4080
BF40
0000
0880
4480
2500
2100
FFC0
ENDCHAR
STARTCHAR uni4F67
ENCODING 20327
SWIDTH 500 0
DWIDTH 6 0
BBX 11 11 0 -1
BITMAP
1200
1200
23C0
2200
6200
AFE0
2200
2300
2280
2240
2200
ENDCHAR
STARTCHAR uni4F69
ENCODING 20329
SWIDTH 500 0
DWIDTH 6 0
BBX 11 11 0 -1
BITMAP
5FC0
5040
5FC0
5140
D7C0
5540
5540
5540
55C0
5520
6120
ENDCHAR
STARTCHAR uni4F6A
ENCODING 20330
SWIDTH 500 0
DWIDTH 6 0
BBX 11 11 0 -1
BITMAP
1000
1FE0
2820
2BA0
6AA0
AAA0
2BA0
2AA0
2820
2FE0
2820
ENDCHAR
STARTCHAR uni4F6B
ENCODING 20331
SWIDTH 500 0
DWIDTH 6 0
BBX 11 11 0 -1
BITMAP
1400
17C0
2440
2680
6900
A280
2460
2FC0
2440
2440
27C0
ENDCHAR
STARTCHAR uni4F6C
ENCODING 20332
SWIDTH 500 0
DWIDTH 6 0
BBX 11 11 0 -1
BITMAP
1200
1FA0
2240
2280
7FE0
A100
2240
2680
2B20
3220
21E0
ENDCHAR
STARTCHAR uni4F6E
ENCODING 20334
SWIDTH 500 0
DWIDTH 6 0
BBX 11 11 0 -1
BITMAP
1200
1200
2500
2880
7040
A7A0
2000
2FC0
2840
2840
2FC0
ENDCHAR
STARTCHAR uni4F6F
ENCODING 20335
SWIDTH 500 0
DWIDTH 6 0
BBX 11 11 0 -1
BITMAP
1440
1280
2FE0
2100
6100
A7C0
2100
2100
2FE0
2100
2100
ENDCHAR
STARTCHAR uni4F70
ENCODING 20336
SWIDTH 500 0
DWIDTH 6 0
BBX 11 11 0 -1
BITMAP
1FE0
1100
2200
27C0
6440
A440
27C0
2440
2440
27C0
2440
ENDCHAR
STARTCHAR uni4F73
ENCODING 20339
SWIDTH 500 0
DWIDTH 6 0
BBX 11 11 0 -1
BITMAP
1100
17C0
2100
2100
6FE0
A100
2100
27C0
2100
2100
2FE0
ENDCHAR
STARTCHAR uni4F74
ENCODING 20340
SWIDTH 500 0
DWIDTH 6 0
BBX 11 11 0 -1
BITMAP
1FE0
1440
2440
27C0
6440
A440
27C0
2440
2440
3FE0
2040
ENDCHAR
STARTCHAR uni4F75
ENCODING 20341
SWIDTH 500 0
DWIDTH 6 0
BBX 11 11 0 -1
BITMAP
2840
2480
2FE0
2480
6480
A480
3FE0
2480
2480
2880
3080
ENDCHAR
STARTCHAR uni4F76
ENCODING 20342
SWIDTH 500 0
DWIDTH 6 0
BBX 11 11 0 -1
BITMAP
1100
1100
2FE0
2100
6100
A7C0
2000
27C0
2440
2440
27C0
ENDCHAR
STARTCHAR uni4F77
ENCODING 20343
SWIDTH 500 0
DWIDTH 6 0
BBX 11 11 0 -1
BITMAP
17C0
1440
27C0
2440
67C0
A500
2520
24C0
2480
2740
2420
ENDCHAR
STARTCHAR uni4F78
ENCODING 20344
SWIDTH 500 0
DWIDTH 6 0
BBX 11 11 0 -1
BITMAP
1040
1780
2100
2100
6FE0
A100
2100
27C0
2440
2440
27C0
ENDCHAR
STARTCHAR uni4F79
ENCODING 20345
SWIDTH 500 0
DWIDTH 6 0
BBX 11 11 0 -1
BITMAP
1200
13C0
2480
27E0
6C00
A5C0
2540
25C0
2520
2920
30E0
ENDCHAR
STARTCHAR uni4F7A
ENCODING 20346
SWIDTH 500 0
DWIDTH 6 0
BBX 11 11 0 -1
BITMAP
1100
1280
2440
2820
67C0
A100
2100
27C0
2100
2100
2FE0
ENDCHAR
STARTCHAR uni4F7B
ENCODING 20347
SWIDTH 500 0
DWIDTH 6 0
BBX 11 11 0 -1
BITMAP
1280
1280
2AA0
26C0
6280
A2C0
26A0
2A80
22A0
24A0
2860
ENDCHAR
STARTCHAR uni4F7C
ENCODING 20348
SWIDTH 500 0
DWIDTH 6 0
BBX 11 11 0 -1
BITMAP
1200
1100
2FE0
2280
6440
AAA0
3280
2280
2100
2280
3C60
ENDCHAR
STARTCHAR uni4F7D
ENCODING 20349
SWIDTH 500 0
DWIDTH 6 0
BBX 11 11 0 -1
BITMAP
1100
1100
2BE0
2420
60A0
A480
3880
2880
2940
2220
2420
ENDCHAR
STARTCHAR uni4F7E
ENCODING 20350
SWIDTH 500 0
DWIDTH 6 0
BBX 11 11 0 -1
BITMAP
1280
1440
2820
27C0
6440
A7C0
2440
27C0
2440
2840
31C0
ENDCHAR
STARTCHAR uni4F7F
ENCODING 20351
SWIDTH 500 0
DWIDTH 6 0
BBX 11 11 0 -1
BITMAP
1100
1FE0
2100
2FE0
6920
AFE0
2920
2500
2300
2480
2860
ENDCHAR
STARTCHAR uni4F80
ENCODING 20352
SWIDTH 500 0
DWIDTH 6 0
BBX 11 11 0 -1
BITMAP
3F20
2AA0
2AA0
6AA0
BFA0
2AA0
2AA0
2AA0
2A20
3220
22E0
ENDCHAR
STARTCHAR uni4F81
ENCODING 20353
SWIDTH 500 0
DWIDTH 6 0
BBX 11 11 0 -1
BITMAP
1500
1500
27E0
2900
6100
AFE0
2280
2280
22A0
24A0
2860
ENDCHAR
STARTCHAR uni4F82
ENCODING 20354
SWIDTH 500 0
DWIDTH 6 0
BBX 11 11 0 -1
BITMAP
1100
1FE0
2800
2840
6B80
A900
29E0
2F00
2920
2920
30E0
ENDCHAR
STARTCHAR uni4F83
ENCODING 20355
SWIDTH 500 0
DWIDTH 6 0
BBX 11 11 0 -1
BITMAP
27C0
2440
2440
27C0
6000
A540
2540
2540
2540
2940
3160
ENDCHAR
STARTCHAR uni4F84
ENCODING 20356
SWIDTH 500 0
DWIDTH 6 0
BBX 11 11 0 -1
BITMAP
2FE0
2200
2440
2FE0
6020
A100
2100
27C0
2100
2100
2FE0
ENDCHAR
STARTCHAR uni4F85
ENCODING 20357
SWIDTH 500 0
DWIDTH 6 0
BBX 11 11 0 -1
BITMAP
1100
1FE0
2200
2440
6F80
A120
2240
2C80
2140
2220
2C20
ENDCHAR
STARTCHAR uni4F86
ENCODING 20358
SWIDTH 500 0
DWIDTH 6 0
BBX 11 11 0 -1
BITMAP
0400
FFE0
0400
2480
2480
5540
8E20
1500
2480
4440
8420
ENDCHAR
STARTCHAR uni4F87
ENCODING 20359
SWIDTH 500 0
DWIDTH 6 0
BBX 11 11 0 -1
BITMAP
1100
1FE0
2100
27E0
6120
AFE0
2900
2FE0
2120
2280
2C60
ENDCHAR
STARTCHAR uni4F88
ENCODING 20360
SWIDTH 500 0
DWIDTH 6 0
BBX 11 11 0 -1
BITMAP
13E0
1440
2A80
2100
6200
ADE0
2120
22A0
2440
2080
2F00
ENDCHAR
STARTCHAR uni4F89
ENCODING 20361
SWIDTH 500 0
DWIDTH 6 0
BBX 11 11 0 -1
BITMAP
1100
1FE0
2440
2BA0
7000
AFE0
2200
27C0
2040
2240
2180
ENDCHAR
STARTCHAR uni4F8B
ENCODING 20363
SWIDTH 500 0
DWIDTH 6 0
BBX 11 11 0 -1
BITMAP
3F20
2420
24A0
2EA0
72A0
AAA0
26A0
22A0
2420
2820
30E0
ENDCHAR
STARTCHAR uni4F8D
ENCODING 20365
SWIDTH 500 0
DWIDTH 6 0
BBX 11 11 0 -1
BITMAP
1100
17C0
2100
2100
6FE0
A040
2FE0
2440
2240
2040
21C0
ENDCHAR
STARTCHAR uni4F8F
ENCODING 20367
SWIDTH 500 0
DWIDTH 6 0
BBX 11 11 0 -1
BITMAP
1100
1500
27C0
2900
6100
AFE0
2540
2540
2920
2920
2100
ENDCHAR
STARTCHAR uni4F90
ENCODING 20368
SWIDTH 500 0
DWIDTH 6 0
BBX 11 11 0 -1
BITMAP
1100
1200
2FE0
2AA0
6AA0
AAA0
2AA0
2AA0
2AA0
2AA0
3FE0
ENDCHAR
STARTCHAR uni4F91
ENCODING 20369
SWIDTH 500 0
DWIDTH 6 0
BBX 11 11 0 -1
BITMAP
1200
1FE0
2200
27C0
6440
AFC0
3440
27C0
2440
2440
24C0
ENDCHAR
STARTCHAR uni4F92
ENCODING 20370
SWIDTH 500 0
DWIDTH 6 0
BBX 11 11 0 -1
BITMAP
1100
1FE0
2920
2100
6FE0
A240
2440
2280
2180
2240
2C20
ENDCHAR
STARTCHAR uni4F94
ENCODING 20372
SWIDTH 500 0
DWIDTH 6 0
BBX 11 11 0 -1
BITMAP
1200
1440
2FC0
2120
6900
AFC0
3100
2FE0
2100
2100
2100
ENDCHAR
STARTCHAR uni4F95
ENCODING 20373
SWIDTH 500 0
DWIDTH 6 0
BBX 11 11 0 -1
BITMAP
1FE0
1100
2200
2FE0
6AA0
AAA0
2AA0
2AA0
2AA0
2AA0
2860
ENDCHAR
STARTCHAR uni4F96
ENCODING 20374
SWIDTH 500 0
DWIDTH 6 0
BBX 11 11 0 -1
BITMAP
0E00
1100
2E80
4040
FFE0
4A40
4A40
7FC0
4A40
4A40
40C0
ENDCHAR
STARTCHAR uni4F97
ENCODING 20375
SWIDTH 500 0
DWIDTH 6 0
BBX 11 11 0 -1
BITMAP
2FE0
2820
2BA0
6820
ABA0
2AA0
2AA0
2BA0
2820
28E0
2840
ENDCHAR
STARTCHAR uni4F98
ENCODING 20376
SWIDTH 500 0
DWIDTH 6 0
BBX 11 11 0 -1
BITMAP
1200
1100
2FE0
2820
2080
6700
A260
2F80
2220
2220
21E0
ENDCHAR
STARTCHAR uni4F9A
ENCODING 20378
SWIDTH 500 0
DWIDTH 6 0
BBX 11 11 0 -1
BITMAP
1400
1400
27E0
2820
77A0
A4A0
27A0
24A0
27A0
2020
20C0
ENDCHAR
STARTCHAR uni4F9B
ENCODING 20379
SWIDTH 500 0
DWIDTH 6 0
BBX 11 11 0 -1
BITMAP
1480
1480
2480
2FE0
6480
A480
3FE0
2000
2480
2840
3020
ENDCHAR
STARTCHAR uni4F9C
ENCODING 20380
SWIDTH 500 0
DWIDTH 6 0
BBX 11 11 0 -1
BITMAP
1200
17C0
2440
2640
6540
AFE0
2440
2540
24C0
2840
31C0
ENDCHAR
STARTCHAR uni4F9D
ENCODING 20381
SWIDTH 500 0
DWIDTH 6 0
BBX 11 11 0 -1
BITMAP
1200
1100
2FE0
2100
6320
A540
2C80
3480
2440
2720
2C20
ENDCHAR
STARTCHAR uni4F9E
ENCODING 20382
SWIDTH 500 0
DWIDTH 6 0
BBX 11 11 0 -1
BITMAP
2400
24E0
3FA0
6AA0
AAA0
2AA0
2AA0
26A0
25E0
28A0
3000
ENDCHAR
STARTCHAR uni4FA0
ENCODING 20384
SWIDTH 500 0
DWIDTH 6 0
BBX 11 11 0 -1
BITMAP
1100
1100
2FE0
2920
6540
A100
2FE0
2100
2280
2440
2820
ENDCHAR
STARTCHAR uni4FA3
ENCODING 20387
SWIDTH 500 0
DWIDTH 6 0
BBX 11 11 0 -1
BITMAP
17C0
1440
2440
2440
67C0
A000
2FE0
2820
2820
2FE0
2820
ENDCHAR
STARTCHAR uni4FA5
ENCODING 20389
SWIDTH 500 0
DWIDTH 6 0
BBX 11 11 0 -1
BITMAP
1200
1FE0
2240
22A0
6120
AEE0
2000
3FE0
2480
28A0
3060
ENDCHAR
STARTCHAR uni4FA6
ENCODING 20390
SWIDTH 500 0
DWIDTH 6 0
BBX 11 11 0 -1
BITMAP
1100
11E0
2100
2FE0
6820
A920
2920
2920
2280
2440
2820
ENDCHAR
STARTCHAR uni4FA7
ENCODING 20391
SWIDTH 500 0
DWIDTH 6 0
BBX 11 11 0 -1
BITMAP
2FA0
28A0
2AA0
6AA0
AAA0
2AA0
2AA0
2AA0
2220
2520
28E0
ENDCHAR
STARTCHAR uni4FA8
ENCODING 20392
SWIDTH 500 0
DWIDTH 6 0
BBX 11 11 0 -1
BITMAP
20C0
2F00
4200
5FE0
C480
4840
54A0
4480
4480
4880
5080
ENDCHAR
STARTCHAR uni4FA9
ENCODING 20393
SWIDTH 500 0
DWIDTH 6 0
BBX 11 11 0 -1
BITMAP
1100
1280
2440
2820
67C0
A000
2FE0
2100
2200
2440
2FA0
ENDCHAR
STARTCHAR uni4FAA
ENCODING 20394
SWIDTH 500 0
DWIDTH 6 0
BBX 11 11 0 -1
BITMAP
1100
1FE0
2440
2280
6180
A240
2C20
2440
2440
2840
3040
ENDCHAR
STARTCHAR uni4FAC
ENCODING 20396
SWIDTH 500 0
DWIDTH 6 0
BBX 11 11 0 -1
BITMAP
1100
1100
2FE0
2920
6220
A340
2680
2A40
22A0
2320
2620
ENDCHAR
STARTCHAR uni4FAE
ENCODING 20398
SWIDTH 500 0
DWIDTH 6 0
BBX 11 11 0 -1
BITMAP
17E0
1800
27E0
2520
64A0
AFE0
2520
24A0
2FE0
2020
20C0
ENDCHAR
STARTCHAR uni4FAF
ENCODING 20399
SWIDTH 500 0
DWIDTH 6 0
BBX 11 11 0 -1
BITMAP
1780
1080
2FE0
2400
67C0
A900
2100
2FE0
2280
2440
2820
ENDCHAR
STARTCHAR uni4FB2
ENCODING 20402
SWIDTH 500 0
DWIDTH 6 0
BBX 11 11 0 -1
BITMAP
2FE0
2800
4BC0
4800
CFE0
4A80
4AA0
4A40
4A40
53A0
6220
ENDCHAR
STARTCHAR uni4FB3
ENCODING 20403
SWIDTH 500 0
DWIDTH 6 0
BBX 11 11 0 -1
BITMAP
1100
1540
2540
2540
6BA0
A100
27C0
2100
2100
2100
2FE0
ENDCHAR
STARTCHAR uni4FB5
ENCODING 20405
SWIDTH 500 0
DWIDTH 6 0
BBX 11 11 0 -1
BITMAP
2FC0
2040
4FC0
4040
DFC0
4000
5FE0
54A0
4300
4480
5860
ENDCHAR
STARTCHAR uni4FB6
ENCODING 20406
SWIDTH 500 0
DWIDTH 6 0
BBX 11 11 0 -1
BITMAP
17C0
1440
2440
27C0
6100
A200
2FE0
2820
2820
2FE0
2820
ENDCHAR
STARTCHAR uni4FB7
ENCODING 20407
SWIDTH 500 0
DWIDTH 6 0
BBX 11 11 0 -1
BITMAP
2FE0
2820
2FE0
2800
6FE0
A820
2BA0
2AA0
2BA0
2820
30C0
ENDCHAR
STARTCHAR uni4FB9
ENCODING 20409
SWIDTH 500 0
DWIDTH 6 0
BBX 11 11 0 -1
BITMAP
3C60
2580
2480
6880
BDE0
2480
2480
2FE0
2400
2A00
31E0
ENDCHAR
STARTCHAR uni4FBA
ENCODING 20410
SWIDTH 500 0
DWIDTH 6 0
BBX 11 11 0 -1
BITMAP
2920
2920
2FE0
6100
A280
2540
28A0
27C0
2040
2080
2100
ENDCHAR
STARTCHAR uni4FBB
ENCODING 20411
SWIDTH 500 0
DWIDTH 6 0
BBX 11 11 0 -1
BITMAP
1440
1280
2FC0
2840
6840
AFC0
2280
2280
22A0
24A0
38E0
ENDCHAR
STARTCHAR uni4FBF
ENCODING 20415
SWIDTH 500 0
DWIDTH 6 0
BBX 11 11 0 -1
BITMAP
2FE0
2100
2FE0
2920
6FE0
A920
2FE0
2500
2200
2500
28E0
ENDCHAR
STARTCHAR uni4FC0
ENCODING 20416
SWIDTH 500 0
DWIDTH 6 0
BBX 11 11 0 -1
BITMAP
10C0
1F20
2A20
2540
6100
AFE0
2240
2440
2380
2140
2E20
ENDCHAR
STARTCHAR uni4FC1
ENCODING 20417
SWIDTH 500 0
DWIDTH 6 0
BBX 11 11 0 -1
BITMAP
13C0
1240
2A40
2BC0
6800
AFC0
2140
3FE0
2100
2280
2C60
ENDCHAR
STARTCHAR uni4FC2
ENCODING 20418
SWIDTH 500 0
DWIDTH 6 0
BBX 11 11 0 -1
BITMAP
20C0
2F00
2200
6480
AF00
2240
2FE0
2120
2540
2920
3320
ENDCHAR
STARTCHAR uni4FC3
ENCODING 20419
SWIDTH 500 0
DWIDTH 6 0
BBX 11 11 0 -1
BITMAP
17C0
1440
2440
27C0
6540
A100
2500
25E0
2500
2B00
31E0
ENDCHAR
STARTCHAR uni4FC4
ENCODING 20420
SWIDTH 500 0
DWIDTH 6 0
BBX 11 11 0 -1
BITMAP
2340
2D20
2500
3FE0
6500
A720
2D40
3480
24A0
3560
2E20
ENDCHAR
STARTCHAR uni4FC5
ENCODING 20421
SWIDTH 500 0
DWIDTH 6 0
BBX 11 11 0 -1
BITMAP
1180
1140
2FE0
2100
6920
A540
2380
2540
3920
2520
2300
ENDCHAR
STARTCHAR uni4FC7
ENCODING 20423
SWIDTH 500 0
DWIDTH 6 0
BBX 11 11 0 -1
BITMAP
2400
3BE0
4880
5480
C480
4DE0
5480
6480
4480
5480
4BE0
ENDCHAR
STARTCHAR uni4FC9
ENCODING 20425
SWIDTH 500 0
DWIDTH 6 0
BBX 11 11 0 -1
BITMAP
1FE0
1100
2FC0
2240
6240
BFE0
2000
27C0
2440
27C0
2440
ENDCHAR
STARTCHAR uni4FCA
ENCODING 20426
SWIDTH 500 0
DWIDTH 6 0
BBX 11 11 0 -1
BITMAP
1200
1440
2FE0
22A0
6640
ABE0
2440
2A80
2100
2280
2C60
ENDCHAR
STARTCHAR uni4FCB
ENCODING 20427
SWIDTH 500 0
DWIDTH 6 0
BBX 11 11 0 -1
BITMAP
17C0
1440
27C0
2000
6FE0
A920
2FE0
2820
2800
2820
27E0
ENDCHAR
STARTCHAR uni4FCD
ENCODING 20429
SWIDTH 500 0
DWIDTH 6 0
BBX 11 11 0 -1
BITMAP
1200
1100
2FC0
2840
6FC0
A840
2FC0
2920
28C0
2A40
2C20
ENDCHAR
STARTCHAR uni4FCE
ENCODING 20430
SWIDTH 500 0
DWIDTH 6 0
BBX 11 11 0 -1
BITMAP
23C0
2240
2240
53C0
8A40
2240
23C0
2240
5240
8A40
0FE0
ENDCHAR
STARTCHAR uni4FCF
ENCODING 20431
SWIDTH 500 0
DWIDTH 6 0
BBX 11 11 0 -1
BITMAP
1080
14A0
22C0
2080
67E0
A420
27E0
2420
27E0
2420
24E0
ENDCHAR
STARTCHAR uni4FD0
ENCODING 20432
SWIDTH 500 0
DWIDTH 6 0
BBX 11 11 0 -1
BITMAP
2220
3C20
24A0
24A0
7FA0
A4A0
2EA0
35A0
2420
2420
24E0
ENDCHAR
STARTCHAR uni4FD1
ENCODING 20433
SWIDTH 500 0
DWIDTH 6 0
BBX 11 11 0 -1
BITMAP
2FC0
2280
2100
2FE0
6920
AFE0
2920
2FE0
2920
2920
2860
ENDCHAR
STARTCHAR uni4FD3
ENCODING 20435
SWIDTH 500 0
DWIDTH 6 0
BBX 11 11 0 -1
BITMAP
1FE0
1540
2540
2A80
6540
A540
2FE0
2100
2100
2100
2FE0
ENDCHAR
STARTCHAR uni4FD4
ENCODING 20436
SWIDTH 500 0
DWIDTH 6 0
BBX 11 11 0 -1
BITMAP
17C0
1440
27C0
2440
67C0
A440
27C0
2280
22A0
24A0
2860
ENDCHAR
STARTCHAR uni4FD6
ENCODING 20438
SWIDTH 500 0
DWIDTH 6 0
BBX 11 11 0 -1
BITMAP
1FE0
1100
2380
2540
6920
A100
27C0
2440
2440
27C0
2440
ENDCHAR
STARTCHAR uni4FD7
ENCODING 20439
SWIDTH 500 0
DWIDTH 6 0
BBX 11 11 0 -1
BITMAP
1280
1440
2920
2280
6440
A820
27C0
2440
2440
27C0
2440
ENDCHAR
STARTCHAR uni4FD8
ENCODING 20440
SWIDTH 500 0
DWIDTH 6 0
BBX 11 11 0 -1
BITMAP
10C0
1F20
2A40
2500
6FE0
A080
2100
3FE0
2100
2500
2300
ENDCHAR
STARTCHAR uni4FD9
ENCODING 20441
SWIDTH 500 0
DWIDTH 6 0
BBX 11 11 0 -1
BITMAP
1660
1180
2660
2100
7FE0
A500
2FE0
2520
2520
2560
2100
ENDCHAR
STARTCHAR uni4FDA
ENCODING 20442
SWIDTH 500 0
DWIDTH 6 0
BBX 11 11 0 -1
BITMAP
2FE0
2920
2920
2FE0
6920
AFE0
2920
2100
2FE0
2100
3FE0
ENDCHAR
STARTCHAR uni4FDB
ENCODING 20443
SWIDTH 500 0
DWIDTH 6 0
BBX 11 11 0 -1
BITMAP
1400
17C0
2880
3FE0
6920
A920
2FE0
2280
22A0
24A0
2860
ENDCHAR
STARTCHAR uni4FDC
ENCODING 20444
SWIDTH 500 0
DWIDTH 6 0
BBX 11 11 0 -1
BITMAP
1100
17C0
2540
27C0
6540
BFE0
2200
27C0
2040
2240
2180
ENDCHAR
STARTCHAR uni4FDD
ENCODING 20445
SWIDTH 500 0
DWIDTH 6 0
BBX 11 11 0 -1
BITMAP
17C0
1440
2440
27C0
6540
A100
2FE0
2100
2540
2920
3120
ENDCHAR
STARTCHAR uni4FDE
ENCODING 20446
SWIDTH 500 0
DWIDTH 6 0
BBX 10 11 0 -1
BITMAP
0C00
1200
2100
DEC0
7880
4A80
7A80
4A80
7A80
4880
5980
ENDCHAR
STARTCHAR uni4FDF
ENCODING 20447
SWIDTH 500 0
DWIDTH 6 0
BBX 11 11 0 -1
BITMAP
1200
1440
2FE0
2020
6400
AFC0
2100
3FE0
2280
2440
2820
ENDCHAR
STARTCHAR uni4FE0
ENCODING 20448
SWIDTH 500 0
DWIDTH 6 0
BBX 11 11 0 -1
BITMAP
1100
1100
2FE0
2540
6540
A540
2BA0
2100
2280
2440
2820
ENDCHAR
STARTCHAR uni4FE1
ENCODING 20449
SWIDTH 500 0
DWIDTH 6 0
BBX 11 11 0 -1
BITMAP
1300
1100
2FE0
2000
67E0
A000
27E0
2000
27E0
2420
27E0
ENDCHAR
STARTCHAR uni4FE3
ENCODING 20451
SWIDTH 500 0
DWIDTH 6 0
BBX 11 11 0 -1
BITMAP
17C0
1440
2440
27C0
6000
A7C0
2100
2FE0
2280
2440
2820
ENDCHAR
STARTCHAR uni4FE6
ENCODING 20454
SWIDTH 500 0
DWIDTH 6 0
BBX 11 11 0 -1
BITMAP
1200
1FE0
2200
2FE0
6200
AFE0
2440
2FE0
2440
2240
20C0
ENDCHAR
STARTCHAR uni4FE8
ENCODING 20456
SWIDTH 500 0
DWIDTH 6 0
BBX 11 11 0 -1
BITMAP
1FE0
1280
2AA0
26C0
6FE0
A800
2800
2800
2800
2800
3000
ENDCHAR
STARTCHAR uni4FE9
ENCODING 20457
SWIDTH 500 0
DWIDTH 6 0
BBX 11 11 0 -1
BITMAP
3FE0
2480
4480
5FE0
D4A0
54A0
56A0
5560
5920
5220
50E0
ENDCHAR
STARTCHAR uni4FEA
ENCODING 20458
SWIDTH 500 0
DWIDTH 6 0
BBX 11 11 0 -1
BITMAP
3FE0
2000
5DE0
5520
D520
5DA0
5560
5520
5520
5520
5560
ENDCHAR
STARTCHAR uni4FEC
ENCODING 20460
SWIDTH 500 0
DWIDTH 6 0
BBX 11 11 0 -1
BITMAP
2240
3C40
4440
4440
DF40
4480
4E80
55A0
6520
45E0
4520
ENDCHAR
STARTCHAR uni4FED
ENCODING 20461
SWIDTH 500 0
DWIDTH 6 0
BBX 11 11 0 -1
BITMAP
1200
1300
2480
2840
77A0
A000
3240
2940
2440
2080
3FE0
ENDCHAR
STARTCHAR uni4FEE
ENCODING 20462
SWIDTH 500 0
DWIDTH 6 0
BBX 11 11 0 -1
BITMAP
1200
13E0
2D40
2880
6B40
ACA0
2940
2A80
2920
20C0
2700
ENDCHAR
STARTCHAR uni4FEF
ENCODING 20463
SWIDTH 500 0
DWIDTH 6 0
BBX 11 11 0 -1
BITMAP
1100
1FE0
2A40
2A40
6BE0
AE40
2B40
2AC0
2A40
2A40
32C0
ENDCHAR
STARTCHAR uni4FF1
ENCODING 20465
SWIDTH 500 0
DWIDTH 6 0
BBX 11 11 0 -1
BITMAP
17C0
1440
27C0
2440
6740
A5C0
2440
2FE0
2280
2440
2820
ENDCHAR
STARTCHAR uni4FF3
ENCODING 20467
SWIDTH 500 0
DWIDTH 6 0
BBX 11 11 0 -1
BITMAP
1280
1280
2EE0
2280
6280
AEE0
2280
2280
2EE0
2280
2280
ENDCHAR
STARTCHAR uni4FF4
ENCODING 20468
SWIDTH 500 0
DWIDTH 6 0
BBX 11 11 0 -1
BITMAP
1240
1FE0
2140
23A0
6D60
A280
21E0
2E20
2140
21A0
2E60
ENDCHAR
STARTCHAR uni4FF5
ENCODING 20469
SWIDTH 500 0
DWIDTH 6 0
BBX 11 11 0 -1
BITMAP
1100
1FE0
2100
27C0
6100
AFE0
2520
2CC0
3480
2540
2620
ENDCHAR
STARTCHAR uni4FF6
ENCODING 20470
SWIDTH 500 0
DWIDTH 6 0
BBX 11 11 0 -1
BITMAP
2800
29E0
2EA0
48A0
FEA0
48A0
5CA0
6A40
4840
48A0
5920
ENDCHAR
STARTCHAR uni4FF7
ENCODING 20471
SWIDTH 500 0
DWIDTH 6 0
BBX 11 11 0 -1
BITMAP
2000
3FE0
52A0
D2A0
5EA0
53E0
5E00
5200
5220
5220
57E0
ENDCHAR
STARTCHAR uni4FF8
ENCODING 20472
SWIDTH 500 0
DWIDTH 6 0
BBX 11 11 0 -1
BITMAP
1100
1FE0
2100
27E0
6200
AFE0
2540
2BA0
2100
2FE0
2100
ENDCHAR
STARTCHAR uni4FFA
ENCODING 20474
SWIDTH 500 0
DWIDTH 6 0
BBX 11 11 0 -1
BITMAP
2200
2FC0
2500
2A80
6FC0
BAA0
2F80
2A80
2FA0
2220
21E0
ENDCHAR
STARTCHAR uni4FFE
ENCODING 20478
SWIDTH 500 0
DWIDTH 6 0
BBX 11 11 0 -1
BITMAP
1200
1FE0
2920
2FE0
6920
AFE0
2500
2900
3FE0
2100
2100
ENDCHAR
STARTCHAR uni5000
ENCODING 20480
SWIDTH 500 0
DWIDTH 6 0
BBX 11 11 0 -1
BITMAP
17E0
1400
27C0
2400
67C0
A400
2FE0
2540
2480
2540
2620
ENDCHAR
STARTCHAR uni5005
ENCODING 20485
SWIDTH 500 0
DWIDTH 6 0
BBX 11 11 0 -1
BITMAP
1200
1100
2FE0
2440
6440
AAA0
2100
3FE0
2100
2100
2100
ENDCHAR
STARTCHAR uni5006
ENCODING 20486
SWIDTH 500 0
DWIDTH 6 0
BBX 11 11 0 -1
BITMAP
1000
1FE0
2100
2FE0
6920
ADA0
2B60
2DA0
2B60
2920
2960
ENDCHAR
STARTCHAR uni5007
ENCODING 20487
SWIDTH 500 0
DWIDTH 6 0
BBX 11 11 0 -1
BITMAP
1100
1FE0
2820
27E0
6AA0
B2A0
2AA0
22E0
2480
28A0
3060
ENDCHAR
STARTCHAR uni5009
ENCODING 20489
SWIDTH 500 0
DWIDTH 6 0
BBX 10 11 0 -1
BITMAP
1E00
2900
4480
BF40
2100
3F00
2100
3F80
5080
5F80
9080
ENDCHAR
STARTCHAR uni500B
ENCODING 20491
SWIDTH 500 0
DWIDTH 6 0
BBX 11 11 0 -1
BITMAP
2FE0
2920
2920
2FE0
6920
ABA0
2AA0
2BA0
2820
2FE0
2820
ENDCHAR
STARTCHAR uni500C
ENCODING 20492
SWIDTH 500 0
DWIDTH 6 0
BBX 11 11 0 -1
BITMAP
1300
1100
2FE0
2820
67C0
A440
27C0
2400
27E0
2420
27E0
ENDCHAR
STARTCHAR uni500D
ENCODING 20493
SWIDTH 500 0
DWIDTH 6 0
BBX 11 11 0 -1
BITMAP
1300
1100
2FE0
2440
6280
AFE0
2000
2FE0
2820
2FE0
2820
ENDCHAR
STARTCHAR uni500E
ENCODING 20494
SWIDTH 500 0
DWIDTH 6 0
BBX 11 11 0 -1
BITMAP
2280
2FE0
2AA0
2AA0
6FE0
AAA0
2AA0
3FE0
2480
2860
3020
ENDCHAR
STARTCHAR uni500F
ENCODING 20495
SWIDTH 500 0
DWIDTH 6 0
BBX 11 11 0 -1
BITMAP
1200
13E0
2E40
2980
6E60
A980
2940
2FE0
2900
2280
2C60
ENDCHAR
STARTCHAR uni5011
ENCODING 20497
SWIDTH 500 0
DWIDTH 6 0
BBX 11 11 0 -1
BITMAP
2EE0
2AA0
2EE0
2AA0
6EE0
A820
2820
2820
2820
28E0
2840
ENDCHAR
STARTCHAR uni5012
ENCODING 20498
SWIDTH 500 0
DWIDTH 6 0
BBX 11 11 0 -1
BITMAP
2020
3F20
48A0
4AA0
DFA0
44A0
44A0
5FA0
44A0
4720
5CE0
ENDCHAR
STARTCHAR uni5013
ENCODING 20499
SWIDTH 500 0
DWIDTH 6 0
BBX 11 11 0 -1
BITMAP
1540
1580
2900
2280
6440
A920
2540
2580
2A80
2440
3820
ENDCHAR
STARTCHAR uni5014
ENCODING 20500
SWIDTH 500 0
DWIDTH 6 0
BBX 11 11 0 -1
BITMAP
2FE0
2820
2FE0
6880
AAA0
2AA0
2BE0
2880
2AA0
2AA0
33E0
ENDCHAR
STARTCHAR uni5015
ENCODING 20501
SWIDTH 500 0
DWIDTH 6 0
BBX 11 11 0 -1
BITMAP
17C0
1100
2FE0
2540
6540
AFE0
2540
2540
2FE0
2100
27C0
ENDCHAR
STARTCHAR uni5016
ENCODING 20502
SWIDTH 500 0
DWIDTH 6 0
BBX 11 11 0 -1
BITMAP
1100
17C0
2100
6FE0
A440
2280
2FE0
2100
2FE0
2100
2100
ENDCHAR
STARTCHAR uni5017
ENCODING 20503
SWIDTH 500 0
DWIDTH 6 0
BBX 11 11 0 -1
BITMAP
2EE0
2AA0
2AA0
6EE0
AAA0
2AA0
2EE0
2AA0
2AA0
2AA0
3760
ENDCHAR
STARTCHAR uni5018
ENCODING 20504
SWIDTH 500 0
DWIDTH 6 0
BBX 11 11 0 -1
BITMAP
1100
1920
2540
2FE0
6820
ABA0
2AA0
2AA0
2BA0
2820
2860
ENDCHAR
STARTCHAR uni5019
ENCODING 20505
SWIDTH 500 0
DWIDTH 6 0
BBX 11 11 0 -1
BITMAP
27C0
2040
5FE0
5400
D7C0
5900
5FE0
5100
5280
4440
4820
ENDCHAR
STARTCHAR uni501A
ENCODING 20506
SWIDTH 500 0
DWIDTH 6 0
BBX 11 11 0 -1
BITMAP
1100
1FE0
2280
2440
7FE0
A040
2F40
2940
2F40
2040
21C0
ENDCHAR
STARTCHAR uni501B
ENCODING 20507
SWIDTH 500 0
DWIDTH 6 0
BBX 11 11 0 -1
BITMAP
1440
1FE0
2440
27C0
6440
A7C0
2440
3FE0
2280
2460
2820
ENDCHAR
STARTCHAR uni501C
ENCODING 20508
SWIDTH 500 0
DWIDTH 6 0
BBX 11 11 0 -1
BITMAP
2FE0
2920
2BA0
2920
6FE0
A820
2BA0
2AA0
2BA0
2820
30E0
ENDCHAR
STARTCHAR uni501E
ENCODING 20510
SWIDTH 500 0
DWIDTH 6 0
BBX 11 11 0 -1
BITMAP
1300
1100
2FE0
2000
67C0
A440
27C0
2100
2540
2920
3320
ENDCHAR
STARTCHAR uni501F
ENCODING 20511
SWIDTH 500 0
DWIDTH 6 0
BBX 11 11 0 -1
BITMAP
1480
1FE0
2480
2480
7FE0
A000
2FE0
2820
2FE0
2820
2FE0
ENDCHAR
STARTCHAR uni5020
ENCODING 20512
SWIDTH 500 0
DWIDTH 6 0
BBX 11 11 0 -1
BITMAP
1280
1480
27E0
6C80
B480
27E0
2480
27E0
2480
2480
27E0
ENDCHAR
STARTCHAR uni5021
ENCODING 20513
SWIDTH 500 0
DWIDTH 6 0
BBX 11 11 0 -1
BITMAP
17C0
1440
27C0
2440
67C0
A000
2FE0
2820
2FE0
2820
2FE0
ENDCHAR
STARTCHAR uni5022
ENCODING 20514
SWIDTH 500 0
DWIDTH 6 0
BBX 11 11 0 -1
BITMAP
1FE0
1100
2FC0
2140
7FE0
A140
2FC0
2500
25E0
2B00
31E0
ENDCHAR
STARTCHAR uni5023
ENCODING 20515
SWIDTH 500 0
DWIDTH 6 0
BBX 11 11 0 -1
BITMAP
2880
2480
3FE0
68A0
AFA0
2AA0
2AA0
2AA0
2A40
32A0
2720
ENDCHAR
STARTCHAR uni5025
ENCODING 20517
SWIDTH 500 0
DWIDTH 6 0
BBX 11 11 0 -1
BITMAP
1300
1100
2FE0
2AA0
6440
A820
27C0
2100
2100
2100
2FE0
ENDCHAR
STARTCHAR uni5026
ENCODING 20518
SWIDTH 500 0
DWIDTH 6 0
BBX 11 11 0 -1
BITMAP
3240
2A80
3FE0
6400
BFE0
2840
37A0
2480
2580
2420
23E0
ENDCHAR
STARTCHAR uni5027
ENCODING 20519
SWIDTH 500 0
DWIDTH 6 0
BBX 11 11 0 -1
BITMAP
1300
1100
2FE0
2820
67C0
A000
2FE0
2100
2540
2920
3320
ENDCHAR
STARTCHAR uni5028
ENCODING 20520
SWIDTH 500 0
DWIDTH 6 0
BBX 11 11 0 -1
BITMAP
17E0
1420
2420
27E0
6480
A7E0
2480
2BE0
2A20
3220
23E0
ENDCHAR
STARTCHAR uni5029
ENCODING 20521
SWIDTH 500 0
DWIDTH 6 0
BBX 11 11 0 -1
BITMAP
1FE0
1100
27C0
2100
6FE0
A440
27C0
2440
27C0
2440
24C0
ENDCHAR
STARTCHAR uni502A
ENCODING 20522
SWIDTH 500 0
DWIDTH 6 0
BBX 11 11 0 -1
BITMAP
2200
2CE0
2820
2EE0
6820
AFE0
2280
2280
22A0
24A0
2860
ENDCHAR
STARTCHAR uni502B
ENCODING 20523
SWIDTH 500 0
DWIDTH 6 0
BBX 11 11 0 -1
BITMAP
1380
1440
2BA0
2000
6FE0
AAA0
2AA0
2FE0
2AA0
2AA0
2860
ENDCHAR
STARTCHAR uni502C
ENCODING 20524
SWIDTH 500 0
DWIDTH 6 0
BBX 11 11 0 -1
BITMAP
1200
13E0
2200
6FC0
A840
2FC0
2840
2FC0
2200
3FE0
2200
ENDCHAR
STARTCHAR uni502D
ENCODING 20525
SWIDTH 500 0
DWIDTH 6 0
BBX 11 11 0 -1
BITMAP
1060
1780
2100
2FE0
6540
A920
3FE0
2440
2280
2180
2E60
ENDCHAR
STARTCHAR uni502E
ENCODING 20526
SWIDTH 500 0
DWIDTH 6 0
BBX 11 11 0 -1
BITMAP
2FC0
2940
2FC0
2940
6FC0
A100
3FE0
2100
2580
2940
3120
ENDCHAR
STARTCHAR uni502F
ENCODING 20527
SWIDTH 500 0
DWIDTH 6 0
BBX 11 11 0 -1
BITMAP
4840
4940
4940
7F40
CA20
4AA0
5E80
6900
4940
4960
4BA0
ENDCHAR
STARTCHAR uni5030
ENCODING 20528
SWIDTH 500 0
DWIDTH 6 0
BBX 11 11 0 -1
BITMAP
1100
17C0
2100
2FE0
6440
A920
33C0
2640
2980
2240
2C20
ENDCHAR
STARTCHAR uni5031
ENCODING 20529
SWIDTH 500 0
DWIDTH 6 0
BBX 11 11 0 -1
BITMAP
2FC0
2840
2FC0
2840
6FC0
A020
2940
2F80
2920
2B20
2CE0
ENDCHAR
STARTCHAR uni5033
ENCODING 20531
SWIDTH 500 0
DWIDTH 6 0
BBX 11 11 0 -1
BITMAP
7FE0
4200
5FC0
D240
5FC0
4240
7FE0
4240
5FC0
4200
4600
ENDCHAR
STARTCHAR uni5035
ENCODING 20533
SWIDTH 500 0
DWIDTH 6 0
BBX 11 11 0 -1
BITMAP
2EC0
20A0
5FE0
4080
C480
5480
5780
54A0
54A0
5660
5820
ENDCHAR
STARTCHAR uni5037
ENCODING 20535
SWIDTH 500 0
DWIDTH 6 0
BBX 11 11 0 -1
BITMAP
1200
1FE0
2480
2840
77A0
A000
2FC0
2100
2540
2920
3320
ENDCHAR
STARTCHAR uni503A
ENCODING 20538
SWIDTH 500 0
DWIDTH 6 0
BBX 11 11 0 -1
BITMAP
1FE0
1100
27C0
2100
7FE0
A000
2FE0
2820
2920
2280
2C60
ENDCHAR
STARTCHAR uni503C
ENCODING 20540
SWIDTH 500 0
DWIDTH 6 0
BBX 11 11 0 -1
BITMAP
1100
1FE0
2100
27C0
6440
A7C0
2440
2740
25C0
2440
2FE0
ENDCHAR
STARTCHAR uni503E
ENCODING 20542
SWIDTH 500 0
DWIDTH 6 0
BBX 11 11 0 -1
BITMAP
13E0
1900
2BE0
2E20
6AA0
AAA0
2AA0
2EA0
3AA0
2140
2220
ENDCHAR
STARTCHAR uni5040
ENCODING 20544
SWIDTH 500 0
DWIDTH 6 0
BBX 11 11 0 -1
BITMAP
1480
1FE0
2480
2100
6FC0
A940
2940
3FE0
2280
2440
2820
ENDCHAR
STARTCHAR uni5041
ENCODING 20545
SWIDTH 500 0
DWIDTH 6 0
BBX 11 11 0 -1
BITMAP
2FC0
2A20
2540
2100
6FC0
A940
2FC0
2940
3FE0
2840
29C0
ENDCHAR
STARTCHAR uni5043
ENCODING 20547
SWIDTH 500 0
DWIDTH 6 0
BBX 11 11 0 -1
BITMAP
2FE0
2A40
2BC0
2A40
6BC0
A900
2FE0
2A40
2980
2A40
2FE0
ENDCHAR
STARTCHAR uni5045
ENCODING 20549
SWIDTH 500 0
DWIDTH 6 0
BBX 11 11 0 -1
BITMAP
27C0
2100
3FE0
2940
6FC0
A940
2FC0
2100
2FC0
2100
3FE0
ENDCHAR
STARTCHAR uni5046
ENCODING 20550
SWIDTH 500 0
DWIDTH 6 0
BBX 11 11 0 -1
BITMAP
2FE0
2100
27C0
2200
7FE0
A440
2FE0
3440
27C0
2440
27C0
ENDCHAR
STARTCHAR uni5047
ENCODING 20551
SWIDTH 500 0
DWIDTH 6 0
BBX 11 11 0 -1
BITMAP
2EE0
2A20
2A20
2EE0
6800
AFE0
2940
2F40
2880
2940
2A20
ENDCHAR
STARTCHAR uni5048
ENCODING 20552
SWIDTH 500 0
DWIDTH 6 0
BBX 11 11 0 -1
BITMAP
2FC0
2840
2FC0
2840
6FC0
A400
2FE0
3920
2AA0
2FA0
20C0
ENDCHAR
STARTCHAR uni5049
ENCODING 20553
SWIDTH 500 0
DWIDTH 6 0
BBX 11 11 0 -1
BITMAP
1200
17C0
2240
2FE0
6440
A7C0
2100
2FE0
2500
2FE0
2100
ENDCHAR
STARTCHAR uni504A
ENCODING 20554
SWIDTH 500 0
DWIDTH 6 0
BBX 11 11 0 -1
BITMAP
17C0
1100
27C0
2540
67C0
A100
2FE0
29A0
2F60
2820
28E0
ENDCHAR
STARTCHAR uni504B
ENCODING 20555
SWIDTH 500 0
DWIDTH 6 0
BBX 11 11 0 -1
BITMAP
2FE0
2820
2FE0
2A20
6940
AFE0
2940
2FE0
2940
3240
2440
ENDCHAR
STARTCHAR uni504C
ENCODING 20556
SWIDTH 500 0
DWIDTH 6 0
BBX 11 11 0 -1
BITMAP
1480
1FE0
2480
2100
6FE0
A200
27C0
2C40
3440
27C0
2440
ENDCHAR
STARTCHAR uni504D
ENCODING 20557
SWIDTH 500 0
DWIDTH 6 0
BBX 11 11 0 -1
BITMAP
17C0
1440
27C0
2440
67C0
A000
2FE0
2500
25E0
2B00
31E0
ENDCHAR
STARTCHAR uni504E
ENCODING 20558
SWIDTH 500 0
DWIDTH 6 0
BBX 11 11 0 -1
BITMAP
2FC0
2940
2FC0
2940
6FC0
A000
3FE0
2540
2480
2640
2C20
ENDCHAR
STARTCHAR uni504F
ENCODING 20559
SWIDTH 500 0
DWIDTH 6 0
BBX 11 11 0 -1
BITMAP
2100
2FE0
2820
2FE0
6800
AFE0
2AA0
2FE0
2AA0
3AA0
2860
ENDCHAR
STARTCHAR uni5051
ENCODING 20561
SWIDTH 500 0
DWIDTH 6 0
BBX 11 11 0 -1
BITMAP
2FC0
2840
28C0
2F40
6A40
AFC0
2AC0
2FC0
2A40
2AA0
37A0
ENDCHAR
STARTCHAR uni5053
ENCODING 20563
SWIDTH 500 0
DWIDTH 6 0
BBX 11 11 0 -1
BITMAP
2FE0
2820
2FE0
2800
6FE0
AA40
2FE0
2880
2BE0
3080
27E0
ENDCHAR
STARTCHAR uni5055
ENCODING 20565
SWIDTH 500 0
DWIDTH 6 0
BBX 11 11 0 -1
BITMAP
2880
2EA0
28C0
2AA0
6C60
A100
27E0
2420
27E0
2420
27E0
ENDCHAR
STARTCHAR uni5057
ENCODING 20567
SWIDTH 500 0
DWIDTH 6 0
BBX 11 11 0 -1
BITMAP
1140
1520
2940
3080
67E0
BC20
27E0
2420
27E0
2420
27E0
ENDCHAR
STARTCHAR uni505A
ENCODING 20570
SWIDTH 500 0
DWIDTH 6 0
BBX 11 11 0 -1
BITMAP
2880
2880
4880
7FE0
4940
CB40
5D40
5540
5480
5D40
4220
ENDCHAR
STARTCHAR uni505B
ENCODING 20571
SWIDTH 500 0
DWIDTH 6 0
BBX 11 11 0 -1
BITMAP
10C0
1700
2100
3FE0
6100
AD60
2920
2D60
2920
2FE0
2820
ENDCHAR
STARTCHAR uni505C
ENCODING 20572
SWIDTH 500 0
DWIDTH 6 0
BBX 11 11 0 -1
BITMAP
1100
1FE0
2000
27C0
6440
AFE0
2820
27C0
2100
2500
2300
ENDCHAR
STARTCHAR uni505D
ENCODING 20573
SWIDTH 500 0
DWIDTH 6 0
BBX 11 11 0 -1
BITMAP
22A0
2EC0
22A0
2E60
67C0
A440
27C0
2440
27C0
2440
24C0
ENDCHAR
STARTCHAR uni505E
ENCODING 20574
SWIDTH 500 0
DWIDTH 6 0
BBX 11 11 0 -1
BITMAP
1540
1FE0
2540
25C0
6400
A7E0
2100
2FE0
2380
2540
2920
ENDCHAR
STARTCHAR uni505F
ENCODING 20575
SWIDTH 500 0
DWIDTH 6 0
BBX 11 11 0 -1
BITMAP
1100
1200
27C0
2440
67C0
A440
2FE0
2100
27C0
2100
2FE0
ENDCHAR
STARTCHAR uni5060
ENCODING 20576
SWIDTH 500 0
DWIDTH 6 0
BBX 11 11 0 -1
BITMAP
2FE0
2280
2FE0
6AA0
AFE0
2200
2FE0
2440
2680
2300
2CE0
ENDCHAR
STARTCHAR uni5061
ENCODING 20577
SWIDTH 500 0
DWIDTH 6 0
BBX 11 11 0 -1
BITMAP
2440
2FE0
2440
27C0
6440
A7C0
2440
3FE0
2A80
2C40
2FE0
ENDCHAR
STARTCHAR uni5062
ENCODING 20578
SWIDTH 500 0
DWIDTH 6 0
BBX 11 11 0 -1
BITMAP
2240
2C40
2540
3F60
6540
A640
2D40
3440
2440
24A0
2520
ENDCHAR
STARTCHAR uni5063
ENCODING 20579
SWIDTH 500 0
DWIDTH 6 0
BBX 11 11 0 -1
BITMAP
1100
1FE0
2440
2280
6FE0
A000
27C0
2440
27C0
2440
27C0
ENDCHAR
STARTCHAR uni5064
ENCODING 20580
SWIDTH 500 0
DWIDTH 6 0
BBX 11 11 0 -1
BITMAP
1440
1280
2FE0
2280
6FE0
AAA0
2CE0
2820
2FE0
2820
2FE0
ENDCHAR
STARTCHAR uni5065
ENCODING 20581
SWIDTH 500 0
DWIDTH 6 0
BBX 11 11 0 -1
BITMAP
23C0
3940
4FE0
4940
D3C0
5900
4FC0
6900
57E0
5900
67E0
ENDCHAR
STARTCHAR uni5068
ENCODING 20584
SWIDTH 500 0
DWIDTH 6 0
BBX 11 11 0 -1
BITMAP
2480
24A0
56C0
5480
D6A0
5960
4100
5FE0
4580
4940
5120
ENDCHAR
STARTCHAR uni5069
ENCODING 20585
SWIDTH 500 0
DWIDTH 6 0
BBX 11 11 0 -1
BITMAP
13C0
1480
2FE0
2420
67E0
A420
27E0
2420
27E0
2280
2C60
ENDCHAR
STARTCHAR uni506A
ENCODING 20586
SWIDTH 500 0
DWIDTH 6 0
BBX 11 11 0 -1
BITMAP
1FE0
1000
27C0
2440
67C0
A000
2FE0
2920
2FE0
2920
2FE0
ENDCHAR
STARTCHAR uni506B
ENCODING 20587
SWIDTH 500 0
DWIDTH 6 0
BBX 11 11 0 -1
BITMAP
2480
2BE0
5080
4480
CBE0
5840
4FE0
4A40
4940
4840
48C0
ENDCHAR
STARTCHAR uni506C
ENCODING 20588
SWIDTH 500 0
DWIDTH 6 0
BBX 11 11 0 -1
BITMAP
2800
2FE0
5AA0
64A0
CF20
52A0
4460
4240
5520
5440
63C0
ENDCHAR
STARTCHAR uni506D
ENCODING 20589
SWIDTH 500 0
DWIDTH 6 0
BBX 11 11 0 -1
BITMAP
2000
3FE0
4200
5FE0
D4A0
57A0
54A0
57A0
54A0
5FE0
5020
ENDCHAR
STARTCHAR uni506E
ENCODING 20590
SWIDTH 500 0
DWIDTH 6 0
BBX 11 11 0 -1
BITMAP
17C0
1440
27C0
2000
6FE0
A440
27C0
2440
27C0
2440
2FE0
ENDCHAR
STARTCHAR uni506F
ENCODING 20591
SWIDTH 500 0
DWIDTH 6 0
BBX 11 11 0 -1
BITMAP
1100
1FE0
2000
27C0
6440
A7C0
2320
2540
2C80
2540
2620
ENDCHAR
STARTCHAR uni5070
ENCODING 20592
SWIDTH 500 0
DWIDTH 6 0
BBX 11 11 0 -1
BITMAP
49E0
7EA0
48A0
FEA0
4920
7E60
4A00
7FE0
4500
4880
7060
ENDCHAR
STARTCHAR uni5072
ENCODING 20594
SWIDTH 500 0
DWIDTH 6 0
BBX 11 11 0 -1
BITMAP
2FE0
2920
2FE0
6920
AFE0
2820
2200
2540
2C20
3440
23C0
ENDCHAR
STARTCHAR uni5073
ENCODING 20595
SWIDTH 500 0
DWIDTH 6 0
BBX 11 11 0 -1
BITMAP
1540
1540
27C0
2000
6FE0
A100
2FE0
2AA0
2AA0
2AA0
2860
ENDCHAR
STARTCHAR uni5074
ENCODING 20596
SWIDTH 500 0
DWIDTH 6 0
BBX 11 11 0 -1
BITMAP
2020
3E20
52A0
5EA0
D2A0
5EA0
52A0
5EA0
4420
4A20
5160
ENDCHAR
STARTCHAR uni5075
ENCODING 20597
SWIDTH 500 0
DWIDTH 6 0
BBX 11 11 0 -1
BITMAP
2200
23E0
2200
2FC0
6840
AFC0
2840
2FC0
2840
2FC0
3860
ENDCHAR
STARTCHAR uni5076
ENCODING 20598
SWIDTH 500 0
DWIDTH 6 0
BBX 11 11 0 -1
BITMAP
17C0
1540
27C0
2540
67C0
A100
2FE0
2920
29A0
2F60
2860
ENDCHAR
STARTCHAR uni5077
ENCODING 20599
SWIDTH 500 0
DWIDTH 6 0
BBX 11 11 0 -1
BITMAP
2700
2880
5760
6000
5E20
D2A0
5EA0
52A0
5EA0
5220
56E0
ENDCHAR
STARTCHAR uni507A
ENCODING 20602
SWIDTH 500 0
DWIDTH 6 0
BBX 11 11 0 -1
BITMAP
2480
2EC0
2AA0
7680
A5E0
2800
37C0
2440
27C0
2440
27C0
ENDCHAR
STARTCHAR uni507B
ENCODING 20603
SWIDTH 500 0
DWIDTH 6 0
BBX 11 11 0 -1
BITMAP
2920
2540
2100
2FE0
6540
A920
2FE0
2240
2680
2140
2E20
ENDCHAR
STARTCHAR uni507D
ENCODING 20605
SWIDTH 500 0
DWIDTH 6 0
BBX 11 11 0 -1
BITMAP
2A00
2600
2200
3FC0
6480
A7C0
2440
2FE0
3520
2AA0
2060
ENDCHAR
STARTCHAR uni507E
ENCODING 20606
SWIDTH 500 0
DWIDTH 6 0
BBX 11 11 0 -1
BITMAP
1100
1FE0
2540
2FE0
6440
AFE0
2820
2920
2920
2280
2C60
ENDCHAR
STARTCHAR uni507F
ENCODING 20607
SWIDTH 500 0
DWIDTH 6 0
BBX 11 11 0 -1
BITMAP
2920
2540
4100
5FE0
D020
4FC0
4000
5FE0
4200
4440
4FA0
ENDCHAR
STARTCHAR uni5080
ENCODING 20608
SWIDTH 500 0
DWIDTH 6 0
BBX 11 11 0 -1
BITMAP
2200
3FC0
5240
5FC0
D240
5FC0
4240
42A0
46E0
4A20
51E0
ENDCHAR
STARTCHAR uni5082
ENCODING 20610
SWIDTH 500 0
DWIDTH 6 0
BBX 11 11 0 -1
BITMAP
5FC0
5100
51C0
5100
D7E0
5520
57E0
5400
65C0
4940
5260
ENDCHAR
STARTCHAR uni5083
ENCODING 20611
SWIDTH 500 0
DWIDTH 6 0
BBX 11 11 0 -1
BITMAP
3FE0
2100
27E0
2100
6FE0
A280
2F00
2440
2FA0
2940
3320
ENDCHAR
STARTCHAR uni5085
ENCODING 20613
SWIDTH 500 0
DWIDTH 6 0
BBX 11 11 0 -1
BITMAP
0280
4240
7FE0
5240
5FC0
D240
5FC0
4080
5FE0
4880
4580
ENDCHAR
STARTCHAR uni5087
ENCODING 20615
SWIDTH 500 0
DWIDTH 6 0
BBX 11 11 0 -1
BITMAP
1240
1FE0
2240
2FE0
6440
A7C0
2440
27C0
2440
2FE0
2040
ENDCHAR
STARTCHAR uni5088
ENCODING 20616
SWIDTH 500 0
DWIDTH 6 0
BBX 11 11 0 -1
BITMAP
2FE0
2280
2FE0
2AA0
6AA0
AFE0
2100
2FE0
2540
2920
3120
ENDCHAR
STARTCHAR uni508B
ENCODING 20619
SWIDTH 500 0
DWIDTH 6 0
BBX 11 11 0 -1
BITMAP
2480
3FE0
2480
2FC0
6480
BFE0
2A40
2FC0
2A40
3FE0
28C0
ENDCHAR
STARTCHAR uni508C
ENCODING 20620
SWIDTH 500 0
DWIDTH 6 0
BBX 11 11 0 -1
BITMAP
2FE0
2900
2FC0
2900
6FC0
A900
2FE0
2020
2D20
2AA0
32E0
ENDCHAR
STARTCHAR uni508D
ENCODING 20621
SWIDTH 500 0
DWIDTH 6 0
BBX 11 11 0 -1
BITMAP
2100
2FE0
2280
6FE0
A920
2FE0
2200
23E0
2220
2420
28C0
ENDCHAR
STARTCHAR uni508E
ENCODING 20622
SWIDTH 500 0
DWIDTH 6 0
BBX 11 11 0 -1
BITMAP
1100
1FE0
2440
27C0
6440
A740
25C0
2440
3FE0
2480
3860
ENDCHAR
STARTCHAR uni5091
ENCODING 20625
SWIDTH 500 0
DWIDTH 6 0
BBX 11 11 0 -1
BITMAP
2840
2FE0
5540
5D40
C7E0
4840
5240
7FE0
4A80
5240
6220
ENDCHAR
STARTCHAR uni5092
ENCODING 20626
SWIDTH 500 0
DWIDTH 6 0
BBX 11 11 0 -1
BITMAP
2FC0
3220
2940
2480
6700
A240
2FA0
2100
2FE0
2280
2C60
ENDCHAR
STARTCHAR uni5094
ENCODING 20628
SWIDTH 500 0
DWIDTH 6 0
BBX 11 11 0 -1
BITMAP
2500
3FE0
4500
5FC0
C540
7FE0
4540
5FC0
4500
5540
6520
ENDCHAR
STARTCHAR uni5095
ENCODING 20629
SWIDTH 500 0
DWIDTH 6 0
BBX 11 11 0 -1
BITMAP
2100
2FE0
2AA0
23E0
6480
AFE0
3480
27E0
2480
2480
27E0
ENDCHAR
STARTCHAR uni5096
ENCODING 20630
SWIDTH 500 0
DWIDTH 6 0
BBX 11 11 0 -1
BITMAP
2300
2480
4A40
5120
CFC0
4840
4FC0
4840
4FE0
5420
67E0
ENDCHAR
STARTCHAR uni5098
ENCODING 20632
SWIDTH 500 0
DWIDTH 6 0
BBX 11 11 0 -1
BITMAP
0E00
3180
C460
2480
5540
2480
5540
0400
FFE0
0400
0400
ENDCHAR
STARTCHAR uni5099
ENCODING 20633
SWIDTH 500 0
DWIDTH 6 0
BBX 11 11 0 -1
BITMAP
2480
2FC0
2480
3FE0
6400
AFE0
2920
3FE0
2920
2FE0
2960
ENDCHAR
STARTCHAR uni509A
ENCODING 20634
SWIDTH 500 0
DWIDTH 6 0
BBX 11 11 0 -1
BITMAP
2480
3FE0
2AA0
69A0
B2A0
2AA0
24A0
26A0
2540
28A0
3320
ENDCHAR
STARTCHAR uni509B
ENCODING 20635
SWIDTH 500 0
DWIDTH 6 0
BBX 11 11 0 -1
BITMAP
2200
2100
5FE0
54A0
CA40
54A0
4840
5FE0
4840
4840
4FC0
ENDCHAR
STARTCHAR uni509C
ENCODING 20636
SWIDTH 500 0
DWIDTH 6 0
BBX 11 11 0 -1
BITMAP
2200
27C0
5A80
4500
C200
7C00
4FC0
5100
5FE0
4920
4FE0
ENDCHAR
STARTCHAR uni509D
ENCODING 20637
SWIDTH 500 0
DWIDTH 6 0
BBX 11 11 0 -1
BITMAP
2FC0
2840
4FC0
4840
CFC0
4000
5FE0
4AA0
4660
5BA0
4660
ENDCHAR
STARTCHAR uni509E
ENCODING 20638
SWIDTH 500 0
DWIDTH 6 0
BBX 11 11 0 -1
BITMAP
1440
1280
2FE0
2100
67C0
A100
3FE0
2400
2FC0
3100
2FE0
ENDCHAR
STARTCHAR uni50A2
ENCODING 20642
SWIDTH 500 0
DWIDTH 6 0
BBX 11 11 0 -1
BITMAP
2200
3FE0
3020
2FC0
6440
AA80
3500
2B80
3540
2920
2620
ENDCHAR
STARTCHAR uni50A3
ENCODING 20643
SWIDTH 500 0
DWIDTH 6 0
BBX 11 11 0 -1
BITMAP
2FE0
2200
2FE0
2200
7FE0
A940
3560
2380
2D40
3120
2700
ENDCHAR
STARTCHAR uni50A5
ENCODING 20645
SWIDTH 500 0
DWIDTH 6 0
BBX 11 11 0 -1
BITMAP
2920
2540
2FE0
2820
67C0
A440
27C0
2280
22A0
24A0
2860
ENDCHAR
STARTCHAR uni50A7
ENCODING 20647
SWIDTH 500 0
DWIDTH 6 0
BBX 11 11 0 -1
BITMAP
1100
1FE0
28A0
2700
6400
A7C0
2480
2480
3FE0
2480
3860
ENDCHAR
STARTCHAR uni50A8
ENCODING 20648
SWIDTH 500 0
DWIDTH 6 0
BBX 11 11 0 -1
BITMAP
6120
57E0
4140
77E0
D100
53E0
5620
53E0
5620
7BE0
4220
ENDCHAR
STARTCHAR uni50A9
ENCODING 20649
SWIDTH 500 0
DWIDTH 6 0
BBX 11 11 0 -1
BITMAP
2140
3DE0
4640
5640
D7E0
4A40
4BE0
5640
6240
43E0
4200
ENDCHAR
STARTCHAR uni50AC
ENCODING 20652
SWIDTH 500 0
DWIDTH 6 0
BBX 11 11 0 -1
BITMAP
2920
2920
2FE0
2500
6FE0
A900
3FC0
2900
2FC0
2900
2FE0
ENDCHAR
STARTCHAR uni50AD
ENCODING 20653
SWIDTH 500 0
DWIDTH 6 0
BBX 11 11 0 -1
BITMAP
2100
2FE0
2940
2BE0
6940
AFE0
2AA0
2BE0
2AA0
2BE0
32A0
ENDCHAR
STARTCHAR uni50AE
ENCODING 20654
SWIDTH 500 0
DWIDTH 6 0
BBX 11 11 0 -1
BITMAP
2FE0
2280
2FE0
2AA0
6FE0
AAA0
2FE0
2440
27C0
2440
27C0
ENDCHAR
STARTCHAR uni50AF
ENCODING 20655
SWIDTH 500 0
DWIDTH 6 0
BBX 11 11 0 -1
BITMAP
2200
2FC0
2940
2B40
6EC0
A940
2FC0
2540
2CA0
3460
23C0
ENDCHAR
STARTCHAR uni50B0
ENCODING 20656
SWIDTH 500 0
DWIDTH 6 0
BBX 11 11 0 -1
BITMAP
2920
2FE0
2000
2EE0
6AA0
AEE0
2AA0
2EE0
2AA0
2AA0
3760
ENDCHAR
STARTCHAR uni50B1
ENCODING 20657
SWIDTH 500 0
DWIDTH 6 0
BBX 11 11 0 -1
BITMAP
2540
2940
32A0
66A0
A800
3A80
2AE0
2A80
2A80
2D80
28E0
ENDCHAR
STARTCHAR uni50B2
ENCODING 20658
SWIDTH 500 0
DWIDTH 6 0
BBX 11 11 0 -1
BITMAP
2900
3F00
4900
5FE0
C940
7F40
4940
5D40
5480
6540
4A20
ENDCHAR
STARTCHAR uni50B3
ENCODING 20659
SWIDTH 500 0
DWIDTH 6 0
BBX 11 11 0 -1
BITMAP
2200
3FE0
2A40
2FC0
6A40
AFC0
2A20
3FE0
2880
2480
2180
ENDCHAR
STARTCHAR uni50B4
ENCODING 20660
SWIDTH 500 0
DWIDTH 6 0
BBX 11 11 0 -1
BITMAP
2FE0
2A40
2A40
2BC0
6800
AEE0
2AA0
2AA0
2EE0
2800
2FE0
ENDCHAR
STARTCHAR uni50B5
ENCODING 20661
SWIDTH 500 0
DWIDTH 6 0
BBX 11 11 0 -1
BITMAP
1100
1FE0
2100
27C0
6100
AFE0
2440
27C0
2440
27C0
2C60
ENDCHAR
STARTCHAR uni50B6
ENCODING 20662
SWIDTH 500 0
DWIDTH 6 0
BBX 11 11 0 -1
BITMAP
2140
3FE0
5500
5700
D520
5F20
5540
5E80
55A0
54E0
6D20
ENDCHAR
STARTCHAR uni50B7
ENCODING 20663
SWIDTH 500 0
DWIDTH 6 0
BBX 11 11 0 -1
BITMAP
2400
27E0
2C40
37C0
6440
BFE0
2400
2FE0
3520
2A20
24C0
ENDCHAR
STARTCHAR uni50B8
ENCODING 20664
SWIDTH 500 0
DWIDTH 6 0
BBX 11 11 0 -1
BITMAP
2200
3FC0
2200
3740
6A80
B740
2A80
3740
2200
2580
3860
ENDCHAR
STARTCHAR uni50BA
ENCODING 20666
SWIDTH 500 0
DWIDTH 6 0
BBX 11 11 0 -1
BITMAP
5FE0
52A0
5AC0
6440
5BA0
D000
6FE0
4100
4940
5120
6720
ENDCHAR
STARTCHAR uni50BB
ENCODING 20667
SWIDTH 500 0
DWIDTH 6 0
BBX 11 11 0 -1
BITMAP
2200
2FE0
2AA0
2920
6AA0
AFE0
2840
37A0
2480
2300
3CE0
ENDCHAR
STARTCHAR uni50BD
ENCODING 20669
SWIDTH 500 0
DWIDTH 6 0
BBX 11 11 0 -1
BITMAP
2100
2FE0
2280
2FE0
6440
A7C0
2440
27C0
2100
2FE0
2100
ENDCHAR
STARTCHAR uni50BE
ENCODING 20670
SWIDTH 500 0
DWIDTH 6 0
BBX 11 11 0 -1
BITMAP
13E0
1080
2BE0
2A20
6FE0
AA20
2BE0
2E20
2BE0
3140
2620
ENDCHAR
STARTCHAR uni50BF
ENCODING 20671
SWIDTH 500 0
DWIDTH 6 0
BBX 11 11 0 -1
BITMAP
2FE0
2100
25C0
2500
6FE0
A400
2FC0
2800
2FE0
2AA0
3560
ENDCHAR
STARTCHAR uni50C1
ENCODING 20673
SWIDTH 500 0
DWIDTH 6 0
BBX 11 11 0 -1
BITMAP
4FC0
5240
4A80
5FE0
CA80
7260
4000
4640
5520
54A0
6380
ENDCHAR
STARTCHAR uni50C2
ENCODING 20674
SWIDTH 500 0
DWIDTH 6 0
BBX 11 11 0 -1
BITMAP
2100
27C0
2540
2FE0
6540
AFC0
2940
3FE0
2440
2380
3E60
ENDCHAR
STARTCHAR uni50C4
ENCODING 20676
SWIDTH 500 0
DWIDTH 6 0
BBX 11 11 0 -1
BITMAP
5FE0
4480
5FE0
54A0
DFE0
4000
4FC0
4000
5FE0
4940
5320
ENDCHAR
STARTCHAR uni50C5
ENCODING 20677
SWIDTH 500 0
DWIDTH 6 0
BBX 11 11 0 -1
BITMAP
1280
1FE0
2280
27C0
6540
A540
2FE0
2100
27C0
2100
2FE0
ENDCHAR
STARTCHAR uni50C6
ENCODING 20678
SWIDTH 500 0
DWIDTH 6 0
BBX 11 11 0 -1
BITMAP
2080
37E0
2AA0
23E0
7AA0
ABE0
2880
2BE0
2880
3480
23E0
ENDCHAR
STARTCHAR uni50C7
ENCODING 20679
SWIDTH 500 0
DWIDTH 6 0
BBX 11 11 0 -1
BITMAP
3EE0
2AA0
4660
4AA0
57A0
C840
5220
4C80
4320
4040
4F80
ENDCHAR
STARTCHAR uni50C8
ENCODING 20680
SWIDTH 500 0
DWIDTH 6 0
BBX 11 11 0 -1
BITMAP
17C0
1440
27C0
2440
6FE0
AAA0
2AA0
2FE0
2480
2300
3CE0
ENDCHAR
STARTCHAR uni50C9
ENCODING 20681
SWIDTH 500 0
DWIDTH 6 0
BBX 11 11 0 -1
BITMAP
0E00
1100
2080
DF60
0000
7BC0
4A40
7BC0
1080
2940
C620
ENDCHAR
STARTCHAR uni50CA
ENCODING 20682
SWIDTH 500 0
DWIDTH 6 0
BBX 11 11 0 -1
BITMAP
3FE0
2280
2FE0
2AA0
6FE0
A200
3FE0
2CC0
35A0
2440
23C0
ENDCHAR
STARTCHAR uni50CB
ENCODING 20683
SWIDTH 500 0
DWIDTH 6 0
BBX 11 11 0 -1
BITMAP
2300
2480
4A40
57A0
4100
CFC0
4840
4FC0
4840
4FC0
5860
ENDCHAR
STARTCHAR uni50CE
ENCODING 20686
SWIDTH 500 0
DWIDTH 6 0
BBX 11 11 0 -1
BITMAP
2EE0
2AA0
2EE0
2880
6EE0
A480
2FE0
2480
3FE0
2480
3860
ENDCHAR
STARTCHAR uni50CF
ENCODING 20687
SWIDTH 500 0
DWIDTH 6 0
BBX 11 11 0 -1
BITMAP
2780
2480
2FE0
3920
6FE0
AA20
3540
2A80
34C0
2CA0
2320
ENDCHAR
STARTCHAR uni50D1
ENCODING 20689
SWIDTH 500 0
DWIDTH 6 0
BBX 11 11 0 -1
BITMAP
2FC0
2200
5FE0
4840
57A0
E480
5FE0
5020
57A0
54A0
57E0
ENDCHAR
STARTCHAR uni50D3
ENCODING 20691
SWIDTH 500 0
DWIDTH 6 0
BBX 11 11 0 -1
BITMAP
2200
2FC0
2A40
3FE0
6840
AFC0
2840
2FC0
2840
2FC0
3860
ENDCHAR
STARTCHAR uni50D4
ENCODING 20692
SWIDTH 500 0
DWIDTH 6 0
BBX 11 11 0 -1
BITMAP
2440
2FE0
2280
2FE0
6AA0
AC60
2FE0
2080
3FE0
2880
2580
ENDCHAR
STARTCHAR uni50D5
ENCODING 20693
SWIDTH 500 0
DWIDTH 6 0
BBX 11 11 0 -1
BITMAP
2AA0
26C0
2FE0
2280
6FE0
A100
27E0
2100
3FE0
2280
2C60
ENDCHAR
STARTCHAR uni50D6
ENCODING 20694
SWIDTH 500 0
DWIDTH 6 0
BBX 11 11 0 -1
BITMAP
2200
3FE0
2200
2FC0
6840
AFC0
2480
3FE0
2840
2FC0
2840
ENDCHAR
STARTCHAR uni50D7
ENCODING 20695
SWIDTH 500 0
DWIDTH 6 0
BBX 11 11 0 -1
BITMAP
4AA0
5DC0
6A80
5540
E220
5FE0
5220
4FC0
4240
4440
5980
ENDCHAR
STARTCHAR uni50DA
ENCODING 20698
SWIDTH 500 0
DWIDTH 6 0
BBX 11 11 0 -1
BITMAP
2200
3FE0
5540
4F80
D8C0
6F80
4880
4F80
4A80
5240
6620
ENDCHAR
STARTCHAR uni50DB
ENCODING 20699
SWIDTH 500 0
DWIDTH 6 0
BBX 11 11 0 -1
BITMAP
5280
7E80
53E0
DEA0
5280
5E80
5280
7F80
48C0
5520
6220
ENDCHAR
STARTCHAR uni50DD
ENCODING 20701
SWIDTH 500 0
DWIDTH 6 0
BBX 11 11 0 -1
BITMAP
2FE0
2820
2FE0
6880
AFE0
2880
2FE0
2A40
2FE0
3240
26C0
ENDCHAR
STARTCHAR uni50E0
ENCODING 20704
SWIDTH 500 0
DWIDTH 6 0
BBX 11 11 0 -1
BITMAP
1060
1FA0
2540
2FE0
6540
A920
2FE0
2920
2FA0
2960
2FE0
ENDCHAR
STARTCHAR uni50E3
ENCODING 20707
SWIDTH 500 0
DWIDTH 6 0
BBX 11 11 0 -1
BITMAP
2880
3DE0
4880
7DE0
C880
5540
6FE0
4840
4FC0
4840
4FC0
ENDCHAR
STARTCHAR uni50E4
ENCODING 20708
SWIDTH 500 0
DWIDTH 6 0
BBX 11 11 0 -1
BITMAP
2EE0
2AA0
2FE0
2920
6FE0
A920
2FE0
2100
2FE0
2100
2100
ENDCHAR
STARTCHAR uni50E5
ENCODING 20709
SWIDTH 500 0
DWIDTH 6 0
BBX 11 11 0 -1
BITMAP
2100
27C0
2100
6FE0
A440
2EE0
2440
3FE0
2480
24A0
3860
ENDCHAR
STARTCHAR uni50E6
ENCODING 20710
SWIDTH 500 0
DWIDTH 6 0
BBX 11 11 0 -1
BITMAP
4880
7EC0
40A0
5FE0
D280
5E80
4880
5C80
6AA0
49A0
5A60
ENDCHAR
STARTCHAR uni50E7
ENCODING 20711
SWIDTH 500 0
DWIDTH 6 0
BBX 11 11 0 -1
BITMAP
1440
1280
2FE0
2AA0
6920
AFE0
2440
27C0
2440
27C0
2440
ENDCHAR
STARTCHAR uni50E8
ENCODING 20712
SWIDTH 500 0
DWIDTH 6 0
BBX 11 11 0 -1
BITMAP
1100
1FE0
2540
3FE0
6440
AFC0
2840
2FC0
2840
2FC0
3860
ENDCHAR
STARTCHAR uni50E9
ENCODING 20713
SWIDTH 500 0
DWIDTH 6 0
BBX 11 11 0 -1
BITMAP
2EE0
2AA0
2EE0
2AA0
6EE0
ABA0
2AA0
2BA0
2AA0
2BA0
2CE0
ENDCHAR
STARTCHAR uni50EA
ENCODING 20714
SWIDTH 500 0
DWIDTH 6 0
BBX 11 11 0 -1
BITMAP
2FC0
2280
5FE0
4540
C900
5FE0
54A0
5FE0
54A0
57A0
5060
ENDCHAR
STARTCHAR uni50EC
ENCODING 20716
SWIDTH 500 0
DWIDTH 6 0
BBX 11 11 0 -1
BITMAP
1300
1480
2FE0
3480
67E0
A480
27E0
2480
27E0
2540
2AA0
ENDCHAR
STARTCHAR uni50ED
ENCODING 20717
SWIDTH 500 0
DWIDTH 6 0
BBX 11 11 0 -1
BITMAP
5EE0
4540
5540
7FE0
CD40
5560
6FC0
4840
4FC0
4840
4FC0
ENDCHAR
STARTCHAR uni50EE
ENCODING 20718
SWIDTH 500 0
DWIDTH 6 0
BBX 11 11 0 -1
BITMAP
1100
1FE0
2440
2280
6FE0
A540
27C0
2540
2FE0
2100
2FE0
ENDCHAR
STARTCHAR uni50EF
ENCODING 20719
SWIDTH 500 0
DWIDTH 6 0
BBX 11 11 0 -1
BITMAP
2920
2540
2FE0
2540
6920
B140
2EE0
2B40
35E0
2840
3040
ENDCHAR
STARTCHAR uni50F0
ENCODING 20720
SWIDTH 500 0
DWIDTH 6 0
BBX 11 11 0 -1
BITMAP
2080
FBE0
2080
FFE0
A4A0
7180
AAC0
24A0
0A00
1100
E0E0
ENDCHAR
STARTCHAR uni50F1
ENCODING 20721
SWIDTH 500 0
DWIDTH 6 0
BBX 11 11 0 -1
BITMAP
4100
5FE0
5020
5FE0
D500
5480
5FE0
5480
57E0
5480
67E0
ENDCHAR
STARTCHAR uni50F3
ENCODING 20723
SWIDTH 500 0
DWIDTH 6 0
BBX 11 11 0 -1
BITMAP
2FE0
2280
2FE0
2AA0
6FE0
A920
2540
3FE0
2580
2940
3120
ENDCHAR
STARTCHAR uni50F5
ENCODING 20725
SWIDTH 500 0
DWIDTH 6 0
BBX 11 11 0 -1
BITMAP
2FE0
2000
27C0
2540
67C0
A540
2FE0
2540
27C0
2540
2FE0
ENDCHAR
STARTCHAR uni50F6
ENCODING 20726
SWIDTH 500 0
DWIDTH 6 0
BBX 11 11 0 -1
BITMAP
2FE0
2AA0
2EE0
6280
AEE0
2AA0
2EE0
2AA0
2EE0
2280
21E0
ENDCHAR
STARTCHAR uni50F8
ENCODING 20728
SWIDTH 500 0
DWIDTH 6 0
BBX 11 11 0 -1
BITMAP
2440
2EE0
2440
6EE0
B540
2FC0
2000
2FE0
2540
2920
3320
ENDCHAR
STARTCHAR uni50F9
ENCODING 20729
SWIDTH 500 0
DWIDTH 6 0
BBX 11 11 0 -1
BITMAP
2FE0
2280
2FE0
2AA0
6FE0
A440
2740
25C0
2440
27C0
2C60
ENDCHAR
STARTCHAR uni50FB
ENCODING 20731
SWIDTH 500 0
DWIDTH 6 0
BBX 11 11 0 -1
BITMAP
5E40
53E0
52A0
5E40
D1E0
5040
5F40
59E0
6940
4F40
4940
ENDCHAR
STARTCHAR uni50FD
ENCODING 20733
SWIDTH 500 0
DWIDTH 6 0
BBX 11 11 0 -1
BITMAP
3E40
2940
5F60
4940
DC40
6AA0
4920
4240
5520
54A0
6380
ENDCHAR
STARTCHAR uni50FE
ENCODING 20734
SWIDTH 500 0
DWIDTH 6 0
BBX 11 11 0 -1
BITMAP
2FC0
2540
2FE0
2920
6640
ABE0
2200
27E0
2A40
2180
2E60
ENDCHAR
STARTCHAR uni50FF
ENCODING 20735
SWIDTH 500 0
DWIDTH 6 0
BBX 11 11 0 -1
BITMAP
2100
3FE0
34A0
2FC0
6480
BFE0
2480
2A40
3FA0
2200
2FE0
ENDCHAR
STARTCHAR uni5100
ENCODING 20736
SWIDTH 500 0
DWIDTH 6 0
BBX 11 11 0 -1
BITMAP
2440
3FE0
4100
5FE0
C2C0
44A0
5FE0
44A0
5EC0
44A0
4D60
ENDCHAR
STARTCHAR uni5102
ENCODING 20738
SWIDTH 500 0
DWIDTH 6 0
BBX 11 11 0 -1
BITMAP
2280
2FE0
4AA0
4FE0
CAA0
5FE0
5000
5FE0
54A0
5540
6620
ENDCHAR
STARTCHAR uni5103
ENCODING 20739
SWIDTH 500 0
DWIDTH 6 0
BBX 11 11 0 -1
BITMAP
4200
7FE0
5540
5740
5040
DFC0
4F80
4880
4F80
4880
7FE0
ENDCHAR
STARTCHAR uni5104
ENCODING 20740
SWIDTH 500 0
DWIDTH 6 0
BBX 11 11 0 -1
BITMAP
2200
3FE0
4480
5FE0
C840
4FC0
4840
4FC0
4540
54A0
63A0
ENDCHAR
STARTCHAR uni5105
ENCODING 20741
SWIDTH 500 0
DWIDTH 6 0
BBX 11 11 0 -1
BITMAP
3240
2A80
5FE0
5020
C780
4480
5FE0
5120
5FE0
5120
5FE0
ENDCHAR
STARTCHAR uni5106
ENCODING 20742
SWIDTH 500 0
DWIDTH 6 0
BBX 11 11 0 -1
BITMAP
2A80
3E80
4BE0
48A0
DEA0
62A0
5EA0
56A0
5E40
42A0
4D20
ENDCHAR
STARTCHAR uni5107
ENCODING 20743
SWIDTH 500 0
DWIDTH 6 0
BBX 11 11 0 -1
BITMAP
2FE0
2AA0
2AA0
3FE0
6000
AFC0
2840
2FC0
2520
2CC0
3660
ENDCHAR
STARTCHAR uni5108
ENCODING 20744
SWIDTH 500 0
DWIDTH 6 0
BBX 11 11 0 -1
BITMAP
1380
1440
2BA0
2000
6FE0
AAA0
2FE0
2440
27C0
2440
27C0
ENDCHAR
STARTCHAR uni5109
ENCODING 20745
SWIDTH 500 0
DWIDTH 6 0
BBX 11 11 0 -1
BITMAP
1380
1440
2BA0
3000
6EE0
AAA0
2AA0
2EE0
2440
2AA0
3120
ENDCHAR
STARTCHAR uni510A
ENCODING 20746
SWIDTH 500 0
DWIDTH 6 0
BBX 11 11 0 -1
BITMAP
1440
1FE0
2440
2EE0
7540
A000
3FE0
2520
25C0
2B00
31E0
ENDCHAR
STARTCHAR uni510B
ENCODING 20747
SWIDTH 500 0
DWIDTH 6 0
BBX 11 11 0 -1
BITMAP
13C0
1480
2FE0
3AA0
6FE0
A800
2BE0
2800
2BE0
2A20
33E0
ENDCHAR
STARTCHAR uni510C
ENCODING 20748
SWIDTH 500 0
DWIDTH 6 0
BBX 11 11 0 -1
BITMAP
5E80
5280
5EE0
5320
DEA0
48A0
7FA0
50A0
5E40
52A0
6D20
ENDCHAR
STARTCHAR uni5110
ENCODING 20752
SWIDTH 500 0
DWIDTH 6 0
BBX 11 11 0 -1
BITMAP
2100
2FE0
2820
27E0
6940
A7C0
3C40
27C0
2440
27C0
2C60
ENDCHAR
STARTCHAR uni5111
ENCODING 20753
SWIDTH 500 0
DWIDTH 6 0
BBX 11 11 0 -1
BITMAP
2FC0
2840
2FC0
2840
6FC0
AAA0
3540
2AA0
3FE0
2540
2AA0
ENDCHAR
STARTCHAR uni5112
ENCODING 20754
SWIDTH 500 0
DWIDTH 6 0
BBX 11 11 0 -1
BITMAP
2FE0
2100
2FE0
2920
6BA0
A540
2FE0
2100
2FE0
2AA0
2AE0
ENDCHAR
STARTCHAR uni5113
ENCODING 20755
SWIDTH 500 0
DWIDTH 6 0
BBX 11 11 0 -1
BITMAP
5FC0
4200
4F80
4880
FFE0
64A0
5FC0
4200
5FC0
4200
7FE0
ENDCHAR
STARTCHAR uni5114
ENCODING 20756
SWIDTH 500 0
DWIDTH 6 0
BBX 11 11 0 -1
BITMAP
5FE0
4200
5FE0
4220
DFC0
4000
5FE0
4040
5FE0
5540
5CC0
ENDCHAR
STARTCHAR uni5115
ENCODING 20757
SWIDTH 500 0
DWIDTH 6 0
BBX 11 11 0 -1
BITMAP
2200
3FE0
5540
4A80
DAC0
6AA0
4840
4FC0
4840
4FC0
5040
ENDCHAR
STARTCHAR uni5117
ENCODING 20759
SWIDTH 500 0
DWIDTH 6 0
BBX 11 11 0 -1
BITMAP
29E0
2C20
4AC0
4E40
D1E0
5E40
6940
5F60
4940
5540
62E0
ENDCHAR
STARTCHAR uni5118
ENCODING 20760
SWIDTH 500 0
DWIDTH 6 0
BBX 11 11 0 -1
BITMAP
17C0
1140
2FE0
2140
67C0
A100
3FE0
2AA0
3FC0
3540
3FE0
ENDCHAR
STARTCHAR uni511A
ENCODING 20762
SWIDTH 500 0
DWIDTH 6 0
BBX 11 11 0 -1
BITMAP
2480
3FE0
4480
5FC0
D540
5FE0
5420
4F80
5500
4200
5C00
ENDCHAR
STARTCHAR uni511C
ENCODING 20764
SWIDTH 500 0
DWIDTH 6 0
BBX 11 11 0 -1
BITMAP
2100
2FE0
2AA0
2540
6FE0
AAA0
3FE0
2000
3FE0
2100
2700
ENDCHAR
STARTCHAR uni511F
ENCODING 20767
SWIDTH 500 0
DWIDTH 6 0
BBX 11 11 0 -1
BITMAP
2540
3FE0
34A0
2480
6FC0
A840
2F40
2BC0
2840
2FC0
3860
ENDCHAR
STARTCHAR uni5120
ENCODING 20768
SWIDTH 500 0
DWIDTH 6 0
BBX 11 11 0 -1
BITMAP
2A80
3500
4A80
5FC0
D540
5FC0
56C0
5B40
56C0
5240
5B20
ENDCHAR
STARTCHAR uni5121
ENCODING 20769
SWIDTH 500 0
DWIDTH 6 0
BBX 11 11 0 -1
BITMAP
5FC0
5240
5FC0
5240
DFC0
4000
7FE0
6AA0
7FE0
6AA0
7FE0
ENDCHAR
STARTCHAR uni5122
ENCODING 20770
SWIDTH 500 0
DWIDTH 6 0
BBX 11 11 0 -1
BITMAP
23C0
2200
5FE0
5220
D7E0
5540
57C0
5540
57C0
6AA0
53C0
ENDCHAR
STARTCHAR uni5124
ENCODING 20772
SWIDTH 500 0
DWIDTH 6 0
BBX 11 11 0 -1
BITMAP
17C0
1440
27C0
2440
6FE0
A240
3FE0
2940
37A0
2940
3320
ENDCHAR
STARTCHAR uni5125
ENCODING 20773
SWIDTH 500 0
DWIDTH 6 0
BBX 11 11 0 -1
BITMAP
2100
2FE0
2100
2FE0
6AA0
AFE0
2440
27C0
2440
27C0
2C60
ENDCHAR
STARTCHAR uni5126
ENCODING 20774
SWIDTH 500 0
DWIDTH 6 0
BBX 11 11 0 -1
BITMAP
2200
3FE0
5540
5540
DFC0
54A0
56C0
54A0
56E0
5540
5AA0
ENDCHAR
STARTCHAR uni5129
ENCODING 20777
SWIDTH 500 0
DWIDTH 6 0
BBX 11 11 0 -1
BITMAP
5DE0
5520
55E0
5D20
D5E0
5D00
57E0
5D60
4AA0
5520
62C0
ENDCHAR
STARTCHAR uni512A
ENCODING 20778
SWIDTH 500 0
DWIDTH 6 0
BBX 11 11 0 -1
BITMAP
3FE0
2440
27C0
2440
7FE0
B220
2D40
37A0
2480
2300
3CE0
ENDCHAR
STARTCHAR uni512D
ENCODING 20781
SWIDTH 500 0
DWIDTH 6 0
BBX 11 11 0 -1
BITMAP
49E0
7F20
55E0
4920
FF20
49E0
5D20
49E0
5C80
69A0
5AE0
ENDCHAR
STARTCHAR uni512E
ENCODING 20782
SWIDTH 500 0
DWIDTH 6 0
BBX 11 11 0 -1
BITMAP
2FE0
2920
2A40
2FE0
6940
ABE0
2D40
2900
35E0
2500
2FE0
ENDCHAR
STARTCHAR uni5130
ENCODING 20784
SWIDTH 500 0
DWIDTH 6 0
BBX 11 11 0 -1
BITMAP
2480
3FE0
5480
4A00
DF80
4480
47C0
4840
5FE0
6AA0
5560
ENDCHAR
STARTCHAR uni5131
ENCODING 20785
SWIDTH 500 0
DWIDTH 6 0
BBX 11 11 0 -1
BITMAP
24E0
3E80
2BE0
3E20
6AE0
AE80
2AE0
2E80
2AE0
2AA0
36E0
ENDCHAR
STARTCHAR uni5132
ENCODING 20786
SWIDTH 500 0
DWIDTH 6 0
BBX 11 11 0 -1
BITMAP
2880
3DE0
40A0
5DE0
C080
5DE0
4320
5DE0
5520
5DE0
5520
ENDCHAR
STARTCHAR uni5133
ENCODING 20787
SWIDTH 500 0
DWIDTH 6 0
BBX 11 11 0 -1
BITMAP
2FC0
2840
5FC0
4AA0
CFE0
4480
4FC0
5940
4FC0
4520
59E0
ENDCHAR
STARTCHAR uni5134
ENCODING 20788
SWIDTH 500 0
DWIDTH 6 0
BBX 11 11 0 -1
BITMAP
2100
3FE0
2AA0
2EE0
6240
AFE0
2240
3FE0
24A0
2D40
3620
ENDCHAR
STARTCHAR uni5135
ENCODING 20789
SWIDTH 500 0
DWIDTH 6 0
BBX 11 11 0 -1
BITMAP
23E0
2640
5980
5240
DFE0
5AA0
5FE0
5100
5FE0
4540
4AA0
ENDCHAR
STARTCHAR uni5137
ENCODING 20791
SWIDTH 500 0
DWIDTH 6 0
BBX 11 11 0 -1
BITMAP
2EE0
2000
2FE0
2AA0
6FE0
AAA0
2FE0
2C80
37E0
2480
26E0
ENDCHAR
STARTCHAR uni5138
ENCODING 20792
SWIDTH 500 0
DWIDTH 6 0
BBX 11 11 0 -1
BITMAP
2FE0
2AA0
2FE0
2940
75E0
A940
37E0
3D40
21E0
2B40
35E0
ENDCHAR
STARTCHAR uni5139
ENCODING 20793
SWIDTH 500 0
DWIDTH 6 0
BBX 11 11 0 -1
BITMAP
2440
2FE0
3540
2FE0
6A40
B7E0
2440
27C0
2440
27C0
2C60
ENDCHAR
STARTCHAR uni513A
ENCODING 20794
SWIDTH 500 0
DWIDTH 6 0
BBX 11 11 0 -1
BITMAP
5540
7F40
55E0
4940
FFE0
4940
7FE0
4940
7FE0
5540
63E0
ENDCHAR
STARTCHAR uni513B
ENCODING 20795
SWIDTH 500 0
DWIDTH 6 0
BBX 11 11 0 -1
BITMAP
4A80
7FE0
68A0
5FC0
D540
5FC0
4200
4FC0
4200
5FE0
52A0
ENDCHAR
STARTCHAR uni513C
ENCODING 20796
SWIDTH 500 0
DWIDTH 6 0
BBX 11 11 0 -1
BITMAP
5DE0
5520
5FE0
5280
DE80
53E0
5EA0
53A0
5E40
52A0
6320
ENDCHAR
STARTCHAR uni513D
ENCODING 20797
SWIDTH 500 0
DWIDTH 6 0
BBX 11 11 0 -1
BITMAP
5FC0
5240
5FC0
7240
DFE0
6AA0
5FE0
4440
5FA0
4A80
7660
ENDCHAR
STARTCHAR uni513F
ENCODING 20799
SWIDTH 500 0
DWIDTH 6 0
BBX 11 11 0 -1
BITMAP
1100
1100
1100
1100
1100
1100
1100
1100
2120
4120
80E0
ENDCHAR
STARTCHAR uni5140
ENCODING 20800
SWIDTH 500 0
DWIDTH 6 0
BBX 10 11 0 -1
BITMAP
0080
FFC0
1200
1200
1200
1200
1200
2200
2240
4240
81C0
ENDCHAR
STARTCHAR uni5141
ENCODING 20801
SWIDTH 500 0
DWIDTH 6 0
BBX 10 11 0 -1
BITMAP
0800
1000
2100
4F80
7280
1200
1200
1200
2240
2240
C1C0
ENDCHAR
STARTCHAR uni5143
ENCODING 20803
SWIDTH 500 0
DWIDTH 6 0
BBX 11 11 0 -1
BITMAP
0080
7FC0
0000
0040
FFE0
1100
1100
1100
1120
2120
C0E0
ENDCHAR
STARTCHAR uni5144
ENCODING 20804
SWIDTH 500 0
DWIDTH 6 0
BBX 10 11 0 -1
BITMAP
7F80
4080
4080
4080
7F80
5280
1200
1200
2240
4240
81C0
ENDCHAR
STARTCHAR uni5145
ENCODING 20805
SWIDTH 500 0
DWIDTH 6 0
BBX 10 11 0 -1
BITMAP
0400
FFC0
0800
1100
7F80
1280
1200
1200
2240
2240
C1C0
ENDCHAR
STARTCHAR uni5146
ENCODING 20806
SWIDTH 500 0
DWIDTH 6 0
BBX 10 11 0 -1
BITMAP
1200
9240
5280
5300
1200
3380
5240
9200
2240
4240
81C0
ENDCHAR
STARTCHAR uni5147
ENCODING 20807
SWIDTH 500 0
DWIDTH 6 0
BBX 10 11 0 -1
BITMAP
1200
4A80
4480
4A80
5080
7F80
1200
1200
2240
4240
81C0
ENDCHAR
STARTCHAR uni5148
ENCODING 20808
SWIDTH 500 0
DWIDTH 6 0
BBX 11 11 0 -1
BITMAP
0400
4400
7FC0
8400
0400
FFE0
1100
1100
1120
2120
C0E0
ENDCHAR
STARTCHAR uni5149
ENCODING 20809
SWIDTH 500 0
DWIDTH 6 0
BBX 10 11 0 -1
BITMAP
0400
4480
2480
2500
FFC0
1200
1200
1200
2240
2240
C1C0
ENDCHAR
STARTCHAR uni514B
ENCODING 20811
SWIDTH 500 0
DWIDTH 6 0
BBX 11 11 0 -1
BITMAP
0400
FFE0
0400
3F80
2080
2080
3F80
0A00
1220
2220
C1E0
ENDCHAR
STARTCHAR uni514C
ENCODING 20812
SWIDTH 500 0
DWIDTH 6 0
BBX 10 11 0 -1
BITMAP
4100
2200
0400
7F00
4100
4100
7F00
1400
2440
4440
83C0
ENDCHAR
STARTCHAR uni514D
ENCODING 20813
SWIDTH 500 0
DWIDTH 6 0
BBX 10 11 0 -1
BITMAP
2000
3E00
4400
7F80
C880
4880
7F80
0C00
1440
2440
C3C0
ENDCHAR
STARTCHAR uni5151
ENCODING 20817
SWIDTH 500 0
DWIDTH 6 0
BBX 10 11 0 -1
BITMAP
2100
1200
3F00
2100
2100
2100
3F00
1200
1240
2240
C1C0
ENDCHAR
STARTCHAR uni5152
ENCODING 20818
SWIDTH 500 0
DWIDTH 6 0
BBX 10 11 0 -1
BITMAP
1000
6780
4080
7380
4080
7F80
5280
1200
1240
2240
C1C0
ENDCHAR
STARTCHAR uni5154
ENCODING 20820
SWIDTH 500 0
DWIDTH 6 0
BBX 11 11 0 -1
BITMAP
1000
1F00
2200
7FC0
A440
3FC0
2240
0680
0A40
1220
61E0
ENDCHAR
STARTCHAR uni5155
ENCODING 20821
SWIDTH 500 0
DWIDTH 6 0
BBX 10 11 0 -1
BITMAP
F780
9480
9480
9C80
8080
FF80
9280
1200
1240
2240
C1C0
ENDCHAR
STARTCHAR uni5156
ENCODING 20822
SWIDTH 500 0
DWIDTH 6 0
BBX 10 11 0 -1
BITMAP
0400
FFC0
2100
4880
9240
2100
3E80
1200
1240
2240
C1C0
ENDCHAR
STARTCHAR uni5157
ENCODING 20823
SWIDTH 500 0
DWIDTH 6 0
BBX 10 11 0 -1
BITMAP
0800
FFC0
2100
4080
BF40
2100
3F00
1400
1440
2440
C3C0
ENDCHAR
STARTCHAR uni5159
ENCODING 20825
SWIDTH 500 0
DWIDTH 6 0
BBX 11 11 0 -1
BITMAP
1080
7C80
1080
7FE0
4480
4480
7C80
2880
28A0
4820
87E0
ENDCHAR
STARTCHAR uni515A
ENCODING 20826
SWIDTH 500 0
DWIDTH 6 0
BBX 10 11 0 -1
BITMAP
4900
2A00
FFC0
8040
BF40
2100
3F00
1400
1440
2440
C3C0
ENDCHAR
STARTCHAR uni515B
ENCODING 20827
SWIDTH 500 0
DWIDTH 6 0
BBX 11 11 0 -1
BITMAP
1060
7F80
1080
7C80
47E0
4480
7C80
2880
28A0
4820
87E0
ENDCHAR
STARTCHAR uni515C
ENCODING 20828
SWIDTH 500 0
DWIDTH 6 0
BBX 10 11 0 -1
BITMAP
2800
DEC0
9240
9E40
9240
FEC0
8040
1200
1240
2240
C1C0
ENDCHAR
STARTCHAR uni515D
ENCODING 20829
SWIDTH 500 0
DWIDTH 6 0
BBX 11 11 0 -1
BITMAP
1040
FD40
1220
7C20
47E0
4540
7D40
2A40
2CE0
4820
87E0
ENDCHAR
STARTCHAR uni515E
ENCODING 20830
SWIDTH 500 0
DWIDTH 6 0
BBX 11 11 0 -1
BITMAP
10C0
FF00
11E0
FF00
89E0
8F00
F920
50E0
5000
5020
8FE0
ENDCHAR
STARTCHAR uni515F
ENCODING 20831
SWIDTH 500 0
DWIDTH 6 0
BBX 11 11 0 -1
BITMAP
A280
A280
FBE0
2480
2480
FBE0
5280
5680
9AA0
A4A0
08E0
ENDCHAR
STARTCHAR uni5161
ENCODING 20833
SWIDTH 500 0
DWIDTH 6 0
BBX 11 11 0 -1
BITMAP
23E0
F880
2100
FBE0
8A20
8BE0
FA20
53E0
5000
5020
8FE0
ENDCHAR
STARTCHAR uni5162
ENCODING 20834
SWIDTH 500 0
DWIDTH 6 0
BBX 11 11 0 -1
BITMAP
2080
FBE0
2080
FBE0
8A20
FBE0
5080
5580
5AA0
A2A0
8C60
ENDCHAR
STARTCHAR uni5163
ENCODING 20835
SWIDTH 500 0
DWIDTH 6 0
BBX 11 11 0 -1
BITMAP
27E0
FC00
27E0
F4A0
97E0
94A0
F7E0
5480
5BE0
9020
0FE0
ENDCHAR
STARTCHAR uni5165
ENCODING 20837
SWIDTH 500 0
DWIDTH 6 0
BBX 11 11 0 -1
BITMAP
1800
0400
0400
0400
0400
0400
0A00
1100
2080
4060
8020
ENDCHAR
STARTCHAR uni5167
ENCODING 20839
SWIDTH 500 0
DWIDTH 6 0
BBX 10 11 0 -1
BITMAP
0800
0800
FFC0
8840
8C40
8A40
9140
A140
8040
8240
8180
ENDCHAR
STARTCHAR uni5168
ENCODING 20840
SWIDTH 500 0
DWIDTH 6 0
BBX 10 11 0 -1
BITMAP
0C00
1200
2100
4080
BF40
0400
0400
7F80
0400
0400
FFC0
ENDCHAR
STARTCHAR uni5169
ENCODING 20841
SWIDTH 500 0
DWIDTH 6 0
BBX 10 11 0 -1
BITMAP
FFC0
0400
7FC0
4440
5540
5540
5540
6EC0
4440
4440
40C0
ENDCHAR
STARTCHAR uni516B
ENCODING 20843
SWIDTH 500 0
DWIDTH 6 0
BBX 11 10 0 0
BITMAP
0300
0100
1100
1100
1100
1100
1100
2080
4060
8020
ENDCHAR
STARTCHAR uni516C
ENCODING 20844
SWIDTH 500 0
DWIDTH 6 0
BBX 11 11 0 -1
BITMAP
0100
1100
1100
2080
4440
8420
0900
1080
23C0
FC20
4020
ENDCHAR
STARTCHAR uni516D
ENCODING 20845
SWIDTH 500 0
DWIDTH 6 0
BBX 10 10 0 0
BITMAP
0800
0400
0400
FFC0
0000
1200
1100
2080
4040
8040
ENDCHAR
STARTCHAR uni516E
ENCODING 20846
SWIDTH 500 0
DWIDTH 6 0
BBX 11 11 0 -1
BITMAP
0900
1100
2080
5F40
8820
1000
3F80
0080
0080
0480
0300
ENDCHAR
STARTCHAR uni5170
ENCODING 20848
SWIDTH 500 0
DWIDTH 6 0
BBX 11 11 0 -1
BITMAP
2080
1100
7FC0
0000
0000
0100
3F80
0000
0000
0040
FFE0
ENDCHAR
STARTCHAR uni5171
ENCODING 20849
SWIDTH 500 0
DWIDTH 6 0
BBX 10 11 0 -1
BITMAP
1200
1200
FFC0
1200
1200
1200
FFC0
0000
2100
4080
8040
ENDCHAR
STARTCHAR uni5173
ENCODING 20851
SWIDTH 500 0
DWIDTH 6 0
BBX 10 11 0 -1
BITMAP
2100
1200
7F80
0400
0400
FFC0
0400
0A00
1100
2080
C040
ENDCHAR
STARTCHAR uni5174
ENCODING 20852
SWIDTH 500 0
DWIDTH 6 0
BBX 11 11 0 -1
BITMAP
8840
4440
2480
2500
0000
FFE0
0000
1100
2080
4040
8020
ENDCHAR
STARTCHAR uni5175
ENCODING 20853
SWIDTH 500 0
DWIDTH 6 0
BBX 11 11 0 -1
BITMAP
0180
3E00
2000
3FE0
2100
2100
2100
FFE0
1100
2080
C060
ENDCHAR
STARTCHAR uni5176
ENCODING 20854
SWIDTH 500 0
DWIDTH 6 0
BBX 11 11 0 -1
BITMAP
2080
FFE0
2080
3F80
2080
3F80
2080
FFE0
0A00
3180
C060
ENDCHAR
STARTCHAR uni5177
ENCODING 20855
SWIDTH 500 0
DWIDTH 6 0
BBX 11 11 0 -1
BITMAP
3F80
2080
3F80
2080
3F80
2080
3F80
2080
FFE0
1100
E0E0
ENDCHAR
STARTCHAR uni5178
ENCODING 20856
SWIDTH 500 0
DWIDTH 6 0
BBX 11 11 0 -1
BITMAP
0A00
0A00
7FC0
4A40
4A40
7FC0
4A40
4A40
FFE0
2080
C060
ENDCHAR
STARTCHAR uni5179
ENCODING 20857
SWIDTH 500 0
DWIDTH 6 0
BBX 11 11 0 -1
BITMAP
2100
1200
FFE0
2100
4A40
D680
3380
2100
4A40
FFE0
0420
ENDCHAR
STARTCHAR uni517B
ENCODING 20859
SWIDTH 500 0
DWIDTH 6 0
BBX 11 11 0 -1
BITMAP
2100
1200
7FE0
0800
7FC0
1000
FFE0
5140
9120
2100
4100
ENDCHAR
STARTCHAR uni517C
ENCODING 20860
SWIDTH 500 0
DWIDTH 6 0
BBX 11 11 0 -1
BITMAP
2100
FFE0
1200
7F80
1280
FFE0
1280
7F80
3300
5280
9260
ENDCHAR
STARTCHAR uni517D
ENCODING 20861
SWIDTH 500 0
DWIDTH 6 0
BBX 11 11 0 -1
BITMAP
2080
1100
7FC0
4440
7FC0
4440
FFE0
0000
3F80
2080
3F80
ENDCHAR
STARTCHAR uni5180
ENCODING 20864
SWIDTH 500 0
DWIDTH 6 0
BBX 11 11 0 -1
BITMAP
7B80
0A20
7FE0
2480
3F80
2480
7FC0
0900
FFE0
0900
70E0
ENDCHAR
STARTCHAR uni5181
ENCODING 20865
SWIDTH 500 0
DWIDTH 6 0
BBX 11 11 0 -1
BITMAP
97E0
5420
27E0
FD40
A7E0
FD40
A7E0
FDA0
2540
F920
2BA0
ENDCHAR
STARTCHAR uni5182
ENCODING 20866
SWIDTH 500 0
DWIDTH 6 0
BBX 10 11 0 -1
BITMAP
FFC0
8040
8040
8040
8040
8040
8040
8040
8040
8240
8180
ENDCHAR
STARTCHAR uni5185
ENCODING 20869
SWIDTH 500 0
DWIDTH 6 0
BBX 10 11 0 -1
BITMAP
0800
0800
FFC0
8840
8840
8C40
9240
A140
8040
8040
81C0
ENDCHAR
STARTCHAR uni5187
ENCODING 20871
SWIDTH 500 0
DWIDTH 6 0
BBX 10 11 0 -1
BITMAP
0800
FFC0
1000
2000
3F80
6080
A080
2080
2080
2080
2380
ENDCHAR
STARTCHAR uni5188
ENCODING 20872
SWIDTH 500 0
DWIDTH 6 0
BBX 10 11 0 -1
BITMAP
FFC0
8040
8140
9140
8A40
8440
8A40
9140
A140
8040
81C0
ENDCHAR
STARTCHAR uni5189
ENCODING 20873
SWIDTH 500 0
DWIDTH 6 0
BBX 11 11 0 -1
BITMAP
0400
0400
7FC0
4440
7FC0
4440
4440
FFE0
4040
4040
41C0
ENDCHAR
STARTCHAR uni518A
ENCODING 20874
SWIDTH 500 0
DWIDTH 6 0
BBX 11 11 0 -1
BITMAP
7FC0
4A40
4A40
4A40
FFE0
4A40
4A40
4A40
4A40
4A40
40C0
ENDCHAR
STARTCHAR uni518C
ENCODING 20876
SWIDTH 500 0
DWIDTH 6 0
BBX 11 11 0 -1
BITMAP
7BC0
4A40
4A40
4A40
FFE0
4A40
4A40
4A40
4A40
4A40
9CC0
ENDCHAR
STARTCHAR uni518D
ENCODING 20877
SWIDTH 500 0
DWIDTH 6 0
BBX 11 11 0 -1
BITMAP
FFE0
0400
7FC0
4440
7FC0
4440
4440
FFE0
4040
4040
40C0
ENDCHAR
STARTCHAR uni518F
ENCODING 20879
SWIDTH 500 0
DWIDTH 6 0
BBX 10 11 0 -1
BITMAP
FFC0
8040
9240
A140
DEC0
9240
9240
9240
9E40
8040
80C0
ENDCHAR
STARTCHAR uni5191
ENCODING 20881
SWIDTH 500 0
DWIDTH 6 0
BBX 9 11 0 -1
BITMAP
0800
FF80
8880
FF80
8880
FF80
4100
7F00
4100
7F00
4300
ENDCHAR
STARTCHAR uni5192
ENCODING 20882
SWIDTH 500 0
DWIDTH 6 0
BBX 9 11 0 -1
BITMAP
FF80
8080
BE80
8080
FF80
4100
7F00
4100
7F00
4100
7F00
ENDCHAR
STARTCHAR uni5193
ENCODING 20883
SWIDTH 500 0
DWIDTH 6 0
BBX 11 11 0 -1
BITMAP
1100
7FC0
1100
7FC0
1100
FFE0
2480
3F80
2480
FFE0
2180
ENDCHAR
STARTCHAR uni5194
ENCODING 20884
SWIDTH 500 0
DWIDTH 6 0
BBX 11 11 0 -1
BITMAP
7F80
4080
7F80
4080
7F80
0000
F7C0
9100
9FE0
F100
0700
ENDCHAR
STARTCHAR uni5195
ENCODING 20885
SWIDTH 500 0
DWIDTH 6 0
BBX 11 11 0 -1
BITMAP
7FC0
4040
5F40
4040
5F40
2200
7F80
A480
3FA0
0A20
F1E0
ENDCHAR
STARTCHAR uni5196
ENCODING 20886
SWIDTH 500 0
DWIDTH 6 0
BBX 11 4 0 3
BITMAP
4020
7FE0
8040
8040
ENDCHAR
STARTCHAR uni5197
ENCODING 20887
SWIDTH 500 0
DWIDTH 6 0
BBX 10 11 0 -1
BITMAP
FFC0
8040
8040
1E00
1200
1200
1200
2200
2240
4240
81C0
ENDCHAR
STARTCHAR uni5198
ENCODING 20888
SWIDTH 500 0
DWIDTH 6 0
BBX 10 11 0 -1
BITMAP
0800
4840
7FC0
8880
0800
0C00
0C00
1400
1440
2440
C3C0
ENDCHAR
STARTCHAR uni5199
ENCODING 20889
SWIDTH 500 0
DWIDTH 6 0
BBX 10 11 0 -1
BITMAP
FFC0
A040
2000
3F80
4000
7F80
0080
FC80
0080
0480
0300
ENDCHAR
STARTCHAR uni519B
ENCODING 20891
SWIDTH 500 0
DWIDTH 6 0
BBX 10 11 0 -1
BITMAP
FFC0
8040
1000
7F80
2000
4400
7F80
0400
FFC0
0400
0400
ENDCHAR
STARTCHAR uni519C
ENCODING 20892
SWIDTH 500 0
DWIDTH 6 0
BBX 10 11 0 -1
BITMAP
0800
FFC0
8840
9440
2400
2480
6500
A200
2900
30C0
6040
ENDCHAR
STARTCHAR uni519E
ENCODING 20894
SWIDTH 500 0
DWIDTH 6 0
BBX 11 11 0 -1
BITMAP
FFE0
8020
A4A0
1480
1500
7FC0
0400
1500
2480
4440
8420
ENDCHAR
STARTCHAR uni51A0
ENCODING 20896
SWIDTH 500 0
DWIDTH 6 0
BBX 11 11 0 -1
BITMAP
FFE0
8020
80A0
7880
03E0
FC80
5280
5080
51A0
5020
8FE0
ENDCHAR
STARTCHAR uni51A2
ENCODING 20898
SWIDTH 500 0
DWIDTH 6 0
BBX 10 11 0 -1
BITMAP
FFC0
8040
7F00
1000
2900
DA00
2E00
D500
3480
C440
1800
ENDCHAR
STARTCHAR uni51A4
ENCODING 20900
SWIDTH 500 0
DWIDTH 6 0
BBX 11 11 0 -1
BITMAP
FFE0
8820
9F20
2200
7FC0
A240
3FC0
0A80
0A60
3220
C1E0
ENDCHAR
STARTCHAR uni51A5
ENCODING 20901
SWIDTH 500 0
DWIDTH 6 0
BBX 11 11 0 -1
BITMAP
FFE0
8020
BFA0
2080
3F80
2080
3F80
0400
FFE0
1100
E0E0
ENDCHAR
STARTCHAR uni51AA
ENCODING 20906
SWIDTH 500 0
DWIDTH 6 0
BBX 11 11 0 -1
BITMAP
FFE0
8A20
BFA0
2080
3F80
2080
FFE0
1500
7FC0
A4A0
2580
ENDCHAR
STARTCHAR uni51AB
ENCODING 20907
SWIDTH 500 0
DWIDTH 6 0
BBX 5 11 0 -1
BITMAP
40
20
08
10
10
20
20
C0
40
40
40
ENDCHAR
STARTCHAR uni51AC
ENCODING 20908
SWIDTH 500 0
DWIDTH 6 0
BBX 11 11 0 -1
BITMAP
1F80
1100
2A00
4400
8600
1980
E460
0200
1800
0600
0100
ENDCHAR
STARTCHAR uni51AF
ENCODING 20911
SWIDTH 500 0
DWIDTH 6 0
BBX 11 11 0 -1
BITMAP
4FC0
2240
1480
1480
2FE0
2020
C020
5FA0
4020
4040
0180
ENDCHAR
STARTCHAR uni51B0
ENCODING 20912
SWIDTH 500 0
DWIDTH 6 0
BBX 11 11 0 -1
BITMAP
4100
2100
0120
3F40
2580
4540
C940
4920
5120
4520
0200
ENDCHAR
STARTCHAR uni51B1
ENCODING 20913
SWIDTH 500 0
DWIDTH 6 0
BBX 11 11 0 -1
BITMAP
4FE0
2200
0200
17C0
2440
2440
4840
CFC0
4080
4080
5FE0
ENDCHAR
STARTCHAR uni51B2
ENCODING 20914
SWIDTH 500 0
DWIDTH 6 0
BBX 11 11 0 -1
BITMAP
4100
2100
2FE0
0920
2920
2920
CFE0
4920
4100
4100
0100
ENDCHAR
STARTCHAR uni51B3
ENCODING 20915
SWIDTH 500 0
DWIDTH 6 0
BBX 11 11 0 -1
BITMAP
4200
2200
2FC0
0240
2240
2240
5FE0
C200
4500
4880
5060
ENDCHAR
STARTCHAR uni51B5
ENCODING 20917
SWIDTH 500 0
DWIDTH 6 0
BBX 11 11 0 -1
BITMAP
8FC0
4840
4840
0840
2FC0
2280
C280
4280
44A0
48A0
5060
ENDCHAR
STARTCHAR uni51B6
ENCODING 20918
SWIDTH 500 0
DWIDTH 6 0
BBX 11 11 0 -1
BITMAP
8200
4400
0840
2FC0
2020
47C0
C440
4440
4440
47C0
4440
ENDCHAR
STARTCHAR uni51B7
ENCODING 20919
SWIDTH 500 0
DWIDTH 6 0
BBX 11 11 0 -1
BITMAP
8300
4480
0840
3220
2100
4FC0
C040
4080
4700
4100
0080
ENDCHAR
STARTCHAR uni51B9
ENCODING 20921
SWIDTH 500 0
DWIDTH 6 0
BBX 11 11 0 -1
BITMAP
8280
4240
4FE0
0200
2320
2540
4540
C880
4880
5340
2420
ENDCHAR
STARTCHAR uni51BB
ENCODING 20923
SWIDTH 500 0
DWIDTH 6 0
BBX 11 11 0 -1
BITMAP
8200
5FE0
4400
2500
2900
5FE0
C100
4540
4920
5120
0700
ENDCHAR
STARTCHAR uni51BC
ENCODING 20924
SWIDTH 500 0
DWIDTH 6 0
BBX 11 11 0 -1
BITMAP
4100
2500
27E0
0900
1100
2FE0
C280
4280
42A0
44A0
1860
ENDCHAR
STARTCHAR uni51BD
ENCODING 20925
SWIDTH 500 0
DWIDTH 6 0
BBX 11 11 0 -1
BITMAP
9F20
4420
4EA0
0AA0
2AA0
36A0
42A0
C4A0
4820
5020
40E0
ENDCHAR
STARTCHAR uni51BE
ENCODING 20926
SWIDTH 500 0
DWIDTH 6 0
BBX 11 11 0 -1
BITMAP
8200
4500
4880
1040
2FA0
2000
2FC0
C840
4840
4FC0
4840
ENDCHAR
STARTCHAR uni51C0
ENCODING 20928
SWIDTH 500 0
DWIDTH 6 0
BBX 11 11 0 -1
BITMAP
8780
4900
5FC0
0240
3FE0
2240
3FC0
C240
4200
4200
4E00
ENDCHAR
STARTCHAR uni51C4
ENCODING 20932
SWIDTH 500 0
DWIDTH 6 0
BBX 11 11 0 -1
BITMAP
8200
4FE0
4240
0FE0
0240
2FC0
2240
DFE0
4480
4340
5C20
ENDCHAR
STARTCHAR uni51C5
ENCODING 20933
SWIDTH 500 0
DWIDTH 6 0
BBX 11 11 0 -1
BITMAP
9FE0
5220
5220
1FE0
1220
37A0
54A0
D4A0
57A0
5020
5FE0
ENDCHAR
STARTCHAR uni51C6
ENCODING 20934
SWIDTH 500 0
DWIDTH 6 0
BBX 11 11 0 -1
BITMAP
8300
4480
47E0
0C80
1480
27E0
2480
C7E0
4480
4480
47E0
ENDCHAR
STARTCHAR uni51C7
ENCODING 20935
SWIDTH 500 0
DWIDTH 6 0
BBX 11 11 0 -1
BITMAP
8940
4940
5D40
0A20
1AA0
2C80
6900
C900
4940
4BE0
4A20
ENDCHAR
STARTCHAR uni51C8
ENCODING 20936
SWIDTH 500 0
DWIDTH 6 0
BBX 11 11 0 -1
BITMAP
8FC0
5220
4940
0FC0
2140
3FE0
C140
4FC0
4100
4100
4700
ENDCHAR
STARTCHAR uni51C9
ENCODING 20937
SWIDTH 500 0
DWIDTH 6 0
BBX 11 11 0 -1
BITMAP
8100
4FE0
4000
07C0
2440
2440
27C0
C100
4540
4920
5320
ENDCHAR
STARTCHAR uni51CA
ENCODING 20938
SWIDTH 500 0
DWIDTH 6 0
BBX 11 11 0 -1
BITMAP
0100
4FE0
2100
27C0
0100
2FE0
2440
C7C0
4440
47C0
44C0
ENDCHAR
STARTCHAR uni51CB
ENCODING 20939
SWIDTH 500 0
DWIDTH 6 0
BBX 11 11 0 -1
BITMAP
8FE0
4920
4FE0
0920
2FE0
2820
CBA0
4AA0
4BA0
5020
20E0
ENDCHAR
STARTCHAR uni51CC
ENCODING 20940
SWIDTH 500 0
DWIDTH 6 0
BBX 11 11 0 -1
BITMAP
8200
5FC0
4200
1FE0
2880
5440
CFA0
5480
4300
4480
7860
ENDCHAR
STARTCHAR uni51CD
ENCODING 20941
SWIDTH 500 0
DWIDTH 6 0
BBX 11 11 0 -1
BITMAP
8100
4FE0
4100
0FE0
2920
2FE0
4920
CFE0
4540
4920
5120
ENDCHAR
STARTCHAR uni51CE
ENCODING 20942
SWIDTH 500 0
DWIDTH 6 0
BBX 11 11 0 -1
BITMAP
0700
8880
5040
4FA0
2200
2200
DFE0
5240
4A80
4200
7FE0
ENDCHAR
STARTCHAR uni51CF
ENCODING 20943
SWIDTH 500 0
DWIDTH 6 0
BBX 11 11 0 -1
BITMAP
0140
8120
5FE0
5100
1D00
3120
5D20
D540
5CA0
5160
6220
ENDCHAR
STARTCHAR uni51D0
ENCODING 20944
SWIDTH 500 0
DWIDTH 6 0
BBX 11 11 0 -1
BITMAP
8FE0
4280
4FE0
2AA0
2AA0
2FE0
4100
C7C0
4100
4100
4FE0
ENDCHAR
STARTCHAR uni51D1
ENCODING 20945
SWIDTH 500 0
DWIDTH 6 0
BBX 11 11 0 -1
BITMAP
8FE0
4100
4FC0
0200
2FE0
2840
37A0
C100
5FE0
4480
5860
ENDCHAR
STARTCHAR uni51D4
ENCODING 20948
SWIDTH 500 0
DWIDTH 6 0
BBX 11 11 0 -1
BITMAP
0100
4280
2540
2920
07C0
2440
27C0
C440
4BE0
4A20
53E0
ENDCHAR
STARTCHAR uni51D7
ENCODING 20951
SWIDTH 500 0
DWIDTH 6 0
BBX 11 11 0 -1
BITMAP
4920
2920
2FE0
0900
2FE0
2900
DFC0
4900
4FC0
4900
4FE0
ENDCHAR
STARTCHAR uni51D8
ENCODING 20952
SWIDTH 500 0
DWIDTH 6 0
BBX 11 11 0 -1
BITMAP
8AE0
5F80
4A80
0EE0
2AA0
2EA0
4AA0
DFA0
4AA0
5120
6220
ENDCHAR
STARTCHAR uni51DB
ENCODING 20955
SWIDTH 500 0
DWIDTH 6 0
BBX 11 11 0 -1
BITMAP
8200
7FE0
5540
1740
1040
3FC0
C000
7FE0
4A80
5240
6620
ENDCHAR
STARTCHAR uni51DC
ENCODING 20956
SWIDTH 500 0
DWIDTH 6 0
BBX 11 11 0 -1
BITMAP
8200
7FE0
5540
1740
1040
3FC0
C200
7FE0
4A80
5240
6220
ENDCHAR
STARTCHAR uni51DD
ENCODING 20957
SWIDTH 500 0
DWIDTH 6 0
BBX 11 11 0 -1
BITMAP
89E0
4CA0
4840
0F40
21E0
2E40
5540
DF60
4540
4B40
52E0
ENDCHAR
STARTCHAR uni51DE
ENCODING 20958
SWIDTH 500 0
DWIDTH 6 0
BBX 11 11 0 -1
BITMAP
BEE0
64A0
24A0
6EA0
AAE0
AE80
A480
A4A0
BEE0
4A40
9120
ENDCHAR
STARTCHAR uni51E0
ENCODING 20960
SWIDTH 500 0
DWIDTH 6 0
BBX 11 11 0 -1
BITMAP
1F00
1100
1100
1100
1100
1100
1100
1100
2120
4120
80E0
ENDCHAR
STARTCHAR uni51E1
ENCODING 20961
SWIDTH 500 0
DWIDTH 6 0
BBX 11 11 0 -1
BITMAP
1F00
1100
1100
1100
1900
1500
1500
1100
2120
4120
80E0
ENDCHAR
STARTCHAR uni51E4
ENCODING 20964
SWIDTH 500 0
DWIDTH 6 0
BBX 11 11 0 -1
BITMAP
7F80
4080
5F80
4280
5280
4A80
4480
46A0
49A0
5160
8020
ENDCHAR
STARTCHAR uni51EB
ENCODING 20971
SWIDTH 500 0
DWIDTH 6 0
BBX 11 11 0 -1
BITMAP
0800
7F00
5100
4B00
4000
7FC0
0040
3E40
22A0
4220
81E0
ENDCHAR
STARTCHAR uni51ED
ENCODING 20973
SWIDTH 500 0
DWIDTH 6 0
BBX 11 11 0 -1
BITMAP
20C0
3F00
6200
BFE0
2200
2FC0
0000
1F00
1120
2120
C0E0
ENDCHAR
STARTCHAR uni51EF
ENCODING 20975
SWIDTH 500 0
DWIDTH 6 0
BBX 11 11 0 -1
BITMAP
ABC0
AA40
FA40
0240
FA40
0A40
FA40
8240
9240
A440
C860
ENDCHAR
STARTCHAR uni51F0
ENCODING 20976
SWIDTH 500 0
DWIDTH 6 0
BBX 11 11 0 -1
BITMAP
7F80
4880
5E80
5280
5E80
5280
7F80
4480
9FA0
8460
BFA0
ENDCHAR
STARTCHAR uni51F1
ENCODING 20977
SWIDTH 500 0
DWIDTH 6 0
BBX 11 11 0 -1
BITMAP
ABC0
AA40
FA40
0240
FA40
0240
FA40
8A40
FA40
5440
F860
ENDCHAR
STARTCHAR uni51F3
ENCODING 20979
SWIDTH 500 0
DWIDTH 6 0
BBX 11 11 0 -1
BITMAP
7A80
5340
3F80
40C0
3F00
2100
FFC0
0000
1F20
1120
E0E0
ENDCHAR
STARTCHAR uni51F5
ENCODING 20981
SWIDTH 500 0
DWIDTH 6 0
BBX 10 10 0 -1
BITMAP
8040
8040
8040
8040
8040
8040
8040
8040
FFC0
8040
ENDCHAR
STARTCHAR uni51F6
ENCODING 20982
SWIDTH 500 0
DWIDTH 6 0
BBX 11 11 0 -1
BITMAP
0100
9120
8A20
8420
8620
8A20
9120
A120
8020
FFE0
8020
ENDCHAR
STARTCHAR uni51F8
ENCODING 20984
SWIDTH 500 0
DWIDTH 6 0
BBX 10 11 0 -1
BITMAP
1E00
1200
1200
1200
F3C0
8040
8040
8040
8040
FFC0
8040
ENDCHAR
STARTCHAR uni51F9
ENCODING 20985
SWIDTH 500 0
DWIDTH 6 0
BBX 10 11 0 -1
BITMAP
F3C0
9240
9240
9240
9240
9E40
8040
8040
8040
FFC0
8040
ENDCHAR
STARTCHAR uni51FA
ENCODING 20986
SWIDTH 500 0
DWIDTH 6 0
BBX 10 11 0 -1
BITMAP
0400
4480
4480
4480
7F80
0400
8440
8440
8440
FFC0
8040
ENDCHAR
STARTCHAR uni51FB
ENCODING 20987
SWIDTH 500 0
DWIDTH 6 0
BBX 11 11 0 -1
BITMAP
0400
0400
7FC0
0400
0400
FFE0
0400
4440
4440
7FC0
4040
ENDCHAR
STARTCHAR uni51FC
ENCODING 20988
SWIDTH 500 0
DWIDTH 6 0
BBX 11 11 0 -1
BITMAP
0400
8420
BCA0
9520
9620
9520
A4A0
9420
8820
FFE0
8020
ENDCHAR
STARTCHAR uni51FD
ENCODING 20989
SWIDTH 500 0
DWIDTH 6 0
BBX 10 11 0 -1
BITMAP
FFC0
0800
1000
1C80
A540
9640
9640
A540
C4C0
8840
FFC0
ENDCHAR
STARTCHAR uni51FF
ENCODING 20991
SWIDTH 500 0
DWIDTH 6 0
BBX 11 11 0 -1
BITMAP
4A40
2A80
FFE0
1100
4A40
5F40
4440
5F40
4440
7FC0
4040
ENDCHAR
STARTCHAR uni5200
ENCODING 20992
SWIDTH 500 0
DWIDTH 6 0
BBX 11 11 0 -1
BITMAP
0040
7FE0
0840
0840
0840
0840
1040
1040
2040
4240
8180
ENDCHAR
STARTCHAR uni5201
ENCODING 20993
SWIDTH 500 0
DWIDTH 6 0
BBX 11 11 0 -1
BITMAP
0040
7FE0
0040
0040
0240
0C40
3040
C040
0040
0240
0180
ENDCHAR
STARTCHAR uni5202
ENCODING 20994
SWIDTH 500 0
DWIDTH 6 0
BBX 4 11 0 -1
BITMAP
10
90
90
90
90
90
90
90
10
50
20
ENDCHAR
STARTCHAR uni5203
ENCODING 20995
SWIDTH 500 0
DWIDTH 6 0
BBX 10 11 0 -1
BITMAP
0080
FFC0
0880
0880
4880
4880
8880
1080
2080
4480
8300
ENDCHAR
STARTCHAR uni5206
ENCODING 20998
SWIDTH 500 0
DWIDTH 6 0
BBX 11 11 0 -1
BITMAP
1100
1100
2080
4040
BFA0
0880
0880
0880
1080
2480
C300
ENDCHAR
STARTCHAR uni5207
ENCODING 20999
SWIDTH 500 0
DWIDTH 6 0
BBX 11 11 0 -1
BITMAP
2000
27E0
2120
3920
E120
2120
2920
3220
2220
04A0
0840
ENDCHAR
STARTCHAR uni5208
ENCODING 21000
SWIDTH 500 0
DWIDTH 6 0
BBX 11 11 0 -1
BITMAP
0820
8920
4920
2920
1120
1120
2920
2520
4420
8020
00E0
ENDCHAR
STARTCHAR uni5209
ENCODING 21001
SWIDTH 500 0
DWIDTH 6 0
BBX 11 11 0 -1
BITMAP
2020
3EA0
40A0
80A0
3CA0
08A0
10A0
20A0
4220
4220
3EE0
ENDCHAR
STARTCHAR uni520A
ENCODING 21002
SWIDTH 500 0
DWIDTH 6 0
BBX 11 11 0 -1
BITMAP
7C20
1120
1120
1120
FF20
1120
1120
1120
1020
1020
10E0
ENDCHAR
STARTCHAR uni520C
ENCODING 21004
SWIDTH 500 0
DWIDTH 6 0
BBX 11 11 0 -1
BITMAP
0820
0820
08A0
FEA0
08A0
48A0
28A0
28A0
0820
2820
10E0
ENDCHAR
STARTCHAR uni520D
ENCODING 21005
SWIDTH 500 0
DWIDTH 6 0
BBX 9 11 0 -1
BITMAP
1000
1F00
2200
4400
BF80
0080
0080
3F80
0080
0080
7F80
ENDCHAR
STARTCHAR uni520E
ENCODING 21006
SWIDTH 500 0
DWIDTH 6 0
BBX 11 11 0 -1
BITMAP
2020
7E20
AAA0
2AA0
2AA0
4AA0
92A0
12A0
2220
5220
0CE0
ENDCHAR
STARTCHAR uni5210
ENCODING 21008
SWIDTH 500 0
DWIDTH 6 0
BBX 11 11 0 -1
BITMAP
7C20
44A0
64A0
54A0
44A0
FEA0
44A0
44A0
4420
5420
88E0
ENDCHAR
STARTCHAR uni5211
ENCODING 21009
SWIDTH 500 0
DWIDTH 6 0
BBX 11 11 0 -1
BITMAP
7E20
24A0
24A0
24A0
FEA0
24A0
24A0
24A0
2420
4420
84E0
ENDCHAR
STARTCHAR uni5212
ENCODING 21010
SWIDTH 500 0
DWIDTH 6 0
BBX 11 11 0 -1
BITMAP
2820
24A0
26A0
F8A0
20A0
24A0
24A0
28A0
1220
2A20
C6E0
ENDCHAR
STARTCHAR uni5213
ENCODING 21011
SWIDTH 500 0
DWIDTH 6 0
BBX 11 11 0 -1
BITMAP
7C20
00A0
00A0
FEA0
28A0
28A0
28A0
28A0
2A20
4C20
88E0
ENDCHAR
STARTCHAR uni5216
ENCODING 21014
SWIDTH 500 0
DWIDTH 6 0
BBX 11 11 0 -1
BITMAP
3E20
22A0
22A0
3EA0
22A0
22A0
3EA0
22A0
2220
4A20
84E0
ENDCHAR
STARTCHAR uni5217
ENCODING 21015
SWIDTH 500 0
DWIDTH 6 0
BBX 10 11 0 -1
BITMAP
FC40
2140
2140
3D40
4540
C540
2940
1140
2040
4040
81C0
ENDCHAR
STARTCHAR uni5218
ENCODING 21016
SWIDTH 500 0
DWIDTH 6 0
BBX 11 11 0 -1
BITMAP
2020
1020
FD20
0520
4520
2920
1120
1920
2420
4420
80E0
ENDCHAR
STARTCHAR uni5219
ENCODING 21017
SWIDTH 500 0
DWIDTH 6 0
BBX 11 11 0 -1
BITMAP
F820
8920
A920
A920
A920
A920
A920
A920
3020
4820
84E0
ENDCHAR
STARTCHAR uni521A
ENCODING 21018
SWIDTH 500 0
DWIDTH 6 0
BBX 11 11 0 -1
BITMAP
FE20
82A0
8AA0
CAA0
B2A0
92A0
AAA0
CAA0
8220
8220
8EE0
ENDCHAR
STARTCHAR uni521B
ENCODING 21019
SWIDTH 500 0
DWIDTH 6 0
BBX 11 11 0 -1
BITMAP
3820
4420
82A0
7CA0
44A0
44A0
44A0
58A0
4220
4220
3EE0
ENDCHAR
STARTCHAR uni521C
ENCODING 21020
SWIDTH 500 0
DWIDTH 6 0
BBX 11 11 0 -1
BITMAP
2820
FEA0
2AA0
2AA0
FEA0
A8A0
FEA0
2AA0
2E20
4820
88E0
ENDCHAR
STARTCHAR uni521D
ENCODING 21021
SWIDTH 500 0
DWIDTH 6 0
BBX 11 11 0 -1
BITMAP
4000
27E0
F920
1120
2120
6920
B120
2920
2220
24A0
2840
ENDCHAR
STARTCHAR uni521E
ENCODING 21022
SWIDTH 500 0
DWIDTH 6 0
BBX 11 11 0 -1
BITMAP
7C20
44A0
44A0
7CA0
44A0
44A0
7CA0
44A0
4420
5E20
E0E0
ENDCHAR
STARTCHAR uni5220
ENCODING 21024
SWIDTH 500 0
DWIDTH 6 0
BBX 11 11 0 -1
BITMAP
EE20
AAA0
AAA0
AAA0
FFA0
AAA0
AAA0
AAA0
AA20
AA20
B6E0
ENDCHAR
STARTCHAR uni5221
ENCODING 21025
SWIDTH 500 0
DWIDTH 6 0
BBX 11 11 0 -1
BITMAP
FC20
8420
84A0
FCA0
90A0
FEA0
90A0
92A0
8A20
A620
C2E0
ENDCHAR
STARTCHAR uni5224
ENCODING 21028
SWIDTH 500 0
DWIDTH 6 0
BBX 11 11 0 -1
BITMAP
9220
52A0
54A0
10A0
7CA0
10A0
FEA0
10A0
1020
2020
C0E0
ENDCHAR
STARTCHAR uni5225
ENCODING 21029
SWIDTH 500 0
DWIDTH 6 0
BBX 11 11 0 -1
BITMAP
7C20
4420
4520
7D20
2120
2120
3D20
2520
2420
4420
98E0
ENDCHAR
STARTCHAR uni5228
ENCODING 21032
SWIDTH 500 0
DWIDTH 6 0
BBX 11 11 0 -1
BITMAP
2020
3EA0
42A0
FAA0
4AA0
4AA0
7AA0
4CA0
4020
4220
3EE0
ENDCHAR
STARTCHAR uni5229
ENCODING 21033
SWIDTH 500 0
DWIDTH 6 0
BBX 11 11 0 -1
BITMAP
0C20
F0A0
10A0
FEA0
10A0
38A0
54A0
92A0
1020
1020
10E0
ENDCHAR
STARTCHAR uni522A
ENCODING 21034
SWIDTH 500 0
DWIDTH 6 0
BBX 11 11 0 -1
BITMAP
FE20
AAA0
AAA0
AAA0
FFA0
AAA0
AAA0
AAA0
AA20
A220
8EE0
ENDCHAR
STARTCHAR uni522B
ENCODING 21035
SWIDTH 500 0
DWIDTH 6 0
BBX 11 11 0 -1
BITMAP
7C20
4420
44A0
7CA0
54A0
10A0
FCA0
24A0
2420
5420
88E0
ENDCHAR
STARTCHAR uni522D
ENCODING 21037
SWIDTH 500 0
DWIDTH 6 0
BBX 11 12 0 -1
BITMAP
0020
FC20
08A0
10A0
28A0
44A0
FCA0
10A0
10A0
1020
3C20
C0E0
ENDCHAR
STARTCHAR uni522E
ENCODING 21038
SWIDTH 500 0
DWIDTH 6 0
BBX 11 11 0 -1
BITMAP
0C20
F020
1120
1120
FD20
1120
FD20
8520
8420
FC20
84E0
ENDCHAR
STARTCHAR uni5230
ENCODING 21040
SWIDTH 500 0
DWIDTH 6 0
BBX 11 11 0 -1
BITMAP
7E20
1020
20A0
44A0
FAA0
10A0
7CA0
10A0
1020
1E20
E0E0
ENDCHAR
STARTCHAR uni5231
ENCODING 21041
SWIDTH 500 0
DWIDTH 6 0
BBX 11 11 0 -1
BITMAP
57C0
5140
5140
FB40
5560
5140
FD40
5240
5240
5540
9880
ENDCHAR
STARTCHAR uni5232
ENCODING 21042
SWIDTH 500 0
DWIDTH 6 0
BBX 11 11 0 -1
BITMAP
1020
1120
7D20
1120
1120
FD20
1120
7D20
1020
1E20
E0E0
ENDCHAR
STARTCHAR uni5233
ENCODING 21043
SWIDTH 500 0
DWIDTH 6 0
BBX 11 11 0 -1
BITMAP
1020
FE20
24A0
42A0
BDA0
00A0
FEA0
20A0
7C20
0420
18E0
ENDCHAR
STARTCHAR uni5235
ENCODING 21045
SWIDTH 500 0
DWIDTH 6 0
BBX 11 11 0 -1
BITMAP
FE20
2420
24A0
3CA0
24A0
3CA0
24A0
26A0
FCA0
0420
04E0
ENDCHAR
STARTCHAR uni5236
ENCODING 21046
SWIDTH 500 0
DWIDTH 6 0
BBX 11 11 0 -1
BITMAP
1020
50A0
7CA0
90A0
FEA0
10A0
FEA0
92A0
9220
9620
10E0
ENDCHAR
STARTCHAR uni5237
ENCODING 21047
SWIDTH 500 0
DWIDTH 6 0
BBX 11 11 0 -1
BITMAP
7E20
42A0
42A0
7EA0
48A0
48A0
7EA0
6AA0
AA20
AE20
08E0
ENDCHAR
STARTCHAR uni5238
ENCODING 21048
SWIDTH 500 0
DWIDTH 6 0
BBX 11 11 0 -1
BITMAP
4480
2500
7FC0
0800
FFE0
2080
5FC0
88A0
0880
1280
2100
ENDCHAR
STARTCHAR uni5239
ENCODING 21049
SWIDTH 500 0
DWIDTH 6 0
BBX 11 11 0 -1
BITMAP
6C20
1020
28A0
54A0
10A0
FEA0
10A0
54A0
5220
9220
30E0
ENDCHAR
STARTCHAR uni523A
ENCODING 21050
SWIDTH 500 0
DWIDTH 6 0
BBX 11 11 0 -1
BITMAP
1020
FEA0
10A0
FEA0
92A0
92A0
96A0
10A0
3420
5220
9160
ENDCHAR
STARTCHAR uni523B
ENCODING 21051
SWIDTH 500 0
DWIDTH 6 0
BBX 11 11 0 -1
BITMAP
3020
1120
FF20
2120
4520
E920
1320
6520
8820
36E0
C240
ENDCHAR
STARTCHAR uni523D
ENCODING 21053
SWIDTH 500 0
DWIDTH 6 0
BBX 11 11 0 -1
BITMAP
1820
2420
42A0
B8A0
00A0
00A0
FEA0
20A0
4820
8C20
F4E0
ENDCHAR
STARTCHAR uni523F
ENCODING 21055
SWIDTH 500 0
DWIDTH 6 0
BBX 11 11 0 -1
BITMAP
9220
92A0
FEA0
20A0
3EA0
44A0
A4A0
28A0
1020
2020
C0E0
ENDCHAR
STARTCHAR uni5240
ENCODING 21056
SWIDTH 500 0
DWIDTH 6 0
BBX 11 11 0 -1
BITMAP
1020
9220
FEA0
02A0
7CA0
04A0
7CA0
40A0
4020
4C20
70E0
ENDCHAR
STARTCHAR uni5241
ENCODING 21057
SWIDTH 500 0
DWIDTH 6 0
BBX 11 11 0 -1
BITMAP
7C20
4420
44A0
44A0
96A0
10A0
FEA0
10A0
3820
5420
92E0
ENDCHAR
STARTCHAR uni5242
ENCODING 21058
SWIDTH 500 0
DWIDTH 6 0
BBX 11 11 0 -1
BITMAP
2020
1020
FEA0
44A0
38A0
C6A0
24A0
24A0
2420
4420
84E0
ENDCHAR
STARTCHAR uni5243
ENCODING 21059
SWIDTH 500 0
DWIDTH 6 0
BBX 11 11 0 -1
BITMAP
4420
28A0
FEA0
12A0
FEA0
90A0
FEA0
12A0
3220
5620
90E0
ENDCHAR
STARTCHAR uni5244
ENCODING 21060
SWIDTH 500 0
DWIDTH 6 0
BBX 11 11 0 -1
BITMAP
FE20
54A0
A8A0
A8A0
54A0
00A0
FEA0
10A0
1020
1E20
E0E0
ENDCHAR
STARTCHAR uni5246
ENCODING 21062
SWIDTH 500 0
DWIDTH 6 0
BBX 11 11 0 -1
BITMAP
2020
1120
FD20
8520
FD20
8520
FD20
9120
8820
B420
C4E0
ENDCHAR
STARTCHAR uni5247
ENCODING 21063
SWIDTH 500 0
DWIDTH 6 0
BBX 11 11 0 -1
BITMAP
7C20
4520
4520
7D20
4520
7D20
4520
4520
7C20
2820
C6E0
ENDCHAR
STARTCHAR uni5249
ENCODING 21065
SWIDTH 500 0
DWIDTH 6 0
BBX 11 11 0 -1
BITMAP
1020
54A0
54A0
54A0
BAA0
10A0
10A0
7EA0
1020
1020
FEE0
ENDCHAR
STARTCHAR uni524A
ENCODING 21066
SWIDTH 500 0
DWIDTH 6 0
BBX 11 11 0 -1
BITMAP
9220
5420
10A0
7CA0
44A0
7CA0
44A0
7CA0
4420
4420
5CE0
ENDCHAR
STARTCHAR uni524B
ENCODING 21067
SWIDTH 500 0
DWIDTH 6 0
BBX 11 11 0 -1
BITMAP
1040
FD40
1140
7D40
4540
4540
7D40
2840
28C0
4820
87E0
ENDCHAR
STARTCHAR uni524C
ENCODING 21068
SWIDTH 500 0
DWIDTH 6 0
BBX 11 11 0 -1
BITMAP
1020
FE20
10A0
FEA0
92A0
FEA0
92A0
18A0
34A0
5220
90E0
ENDCHAR
STARTCHAR uni524D
ENCODING 21069
SWIDTH 500 0
DWIDTH 6 0
BBX 11 11 0 -1
BITMAP
2080
1100
FFE0
0000
7D20
4520
7D20
4520
7D20
44E0
4C40
ENDCHAR
STARTCHAR uni524E
ENCODING 21070
SWIDTH 500 0
DWIDTH 6 0
BBX 11 11 0 -1
BITMAP
6C20
10A0
28A0
54A0
14A0
FEA0
10A0
38A0
5420
9220
10E0
ENDCHAR
STARTCHAR uni5250
ENCODING 21072
SWIDTH 500 0
DWIDTH 6 0
BBX 11 11 0 -1
BITMAP
7C20
4420
44A0
7CA0
10A0
FEA0
92A0
9AA0
A620
C220
86E0
ENDCHAR
STARTCHAR uni5251
ENCODING 21073
SWIDTH 500 0
DWIDTH 6 0
BBX 11 11 0 -1
BITMAP
3820
4520
8120
7920
0120
2520
9520
4920
0820
FE20
00E0
ENDCHAR
STARTCHAR uni5252
ENCODING 21074
SWIDTH 500 0
DWIDTH 6 0
BBX 11 11 0 -1
BITMAP
2820
2820
FEA0
28A0
FEA0
00A0
7CA0
44A0
7CA0
4420
7CE0
ENDCHAR
STARTCHAR uni5254
ENCODING 21076
SWIDTH 500 0
DWIDTH 6 0
BBX 11 11 0 -1
BITMAP
7E20
42A0
7EA0
42A0
7EA0
20A0
7EA0
AAA0
5220
2220
CCE0
ENDCHAR
STARTCHAR uni5255
ENCODING 21077
SWIDTH 500 0
DWIDTH 6 0
BBX 11 11 0 -1
BITMAP
2820
2820
EEA0
28A0
28A0
EEA0
28A0
28A0
EEA0
2820
28E0
ENDCHAR
STARTCHAR uni5256
ENCODING 21078
SWIDTH 500 0
DWIDTH 6 0
BBX 11 11 0 -1
BITMAP
2020
10A0
FEA0
44A0
28A0
FEA0
00A0
7CA0
4420
4420
7CE0
ENDCHAR
STARTCHAR uni525A
ENCODING 21082
SWIDTH 500 0
DWIDTH 6 0
BBX 11 11 0 -1
BITMAP
1020
FEA0
54A0
54A0
FEA0
12A0
FFA0
12A0
FEA0
1020
30E0
ENDCHAR
STARTCHAR uni525B
ENCODING 21083
SWIDTH 500 0
DWIDTH 6 0
BBX 11 11 0 -1
BITMAP
FE20
CAA0
AAA0
92A0
FEA0
A2A0
AAA0
AAA0
AA20
FA20
86E0
ENDCHAR
STARTCHAR uni525C
ENCODING 21084
SWIDTH 500 0
DWIDTH 6 0
BBX 11 11 0 -1
BITMAP
1020
0820
FEA0
A2A0
7EA0
AAA0
EAA0
2EA0
2820
4A20
8CE0
ENDCHAR
STARTCHAR uni525D
ENCODING 21085
SWIDTH 500 0
DWIDTH 6 0
BBX 11 11 0 -1
BITMAP
3C20
44A0
78A0
08A0
FEA0
92A0
54A0
38A0
5420
9220
30E0
ENDCHAR
STARTCHAR uni525E
ENCODING 21086
SWIDTH 500 0
DWIDTH 6 0
BBX 11 11 0 -1
BITMAP
1020
FE20
28A0
44A0
FFA0
04A0
74A0
54A0
7420
0420
1CE0
ENDCHAR
STARTCHAR uni525F
ENCODING 21087
SWIDTH 500 0
DWIDTH 6 0
BBX 11 11 0 -1
BITMAP
EE20
AAA0
44A0
AAA0
91A0
00A0
EEA0
AAA0
44A0
AA20
91E0
ENDCHAR
STARTCHAR uni5261
ENCODING 21089
SWIDTH 500 0
DWIDTH 6 0
BBX 11 11 0 -1
BITMAP
5220
54A0
98A0
28A0
D4A0
56A0
58A0
90A0
2820
4420
82E0
ENDCHAR
STARTCHAR uni5262
ENCODING 21090
SWIDTH 500 0
DWIDTH 6 0
BBX 11 11 0 -1
BITMAP
FE20
2020
72A0
94A0
28A0
68A0
BCA0
2AA0
CA20
2820
10E0
ENDCHAR
STARTCHAR uni5265
ENCODING 21093
SWIDTH 500 0
DWIDTH 6 0
BBX 11 11 0 -1
BITMAP
FC20
0420
7CA0
04A0
FEA0
92A0
54A0
38A0
5420
9220
30E0
ENDCHAR
STARTCHAR uni5267
ENCODING 21095
SWIDTH 500 0
DWIDTH 6 0
BBX 11 11 0 -1
BITMAP
FE20
8220
FEA0
88A0
88A0
FEA0
88A0
BEA0
A220
A220
BEE0
ENDCHAR
STARTCHAR uni5269
ENCODING 21097
SWIDTH 500 0
DWIDTH 6 0
BBX 11 11 0 -1
BITMAP
0620
7820
10A0
FFA0
54A0
D6A0
54A0
D7A0
3820
5420
92E0
ENDCHAR
STARTCHAR uni526A
ENCODING 21098
SWIDTH 500 0
DWIDTH 6 0
BBX 10 11 0 -1
BITMAP
1200
FFC0
4880
7A80
4A80
7A80
4980
0000
FF80
1080
E300
ENDCHAR
STARTCHAR uni526B
ENCODING 21099
SWIDTH 500 0
DWIDTH 6 0
BBX 11 11 0 -1
BITMAP
1020
FE20
A4A0
FEA0
A4A0
BCA0
80A0
FEA0
A420
9820
E6E0
ENDCHAR
STARTCHAR uni526C
ENCODING 21100
SWIDTH 500 0
DWIDTH 6 0
BBX 11 11 0 -1
BITMAP
9220
92A0
FEA0
00A0
FEA0
10A0
FEA0
AAA0
AA20
AA20
86E0
ENDCHAR
STARTCHAR uni526D
ENCODING 21101
SWIDTH 500 0
DWIDTH 6 0
BBX 11 11 0 -1
BITMAP
FE20
82A0
FEA0
80A0
FEA0
A4A0
FEA0
88A0
BE20
8820
FFE0
ENDCHAR
STARTCHAR uni526E
ENCODING 21102
SWIDTH 500 0
DWIDTH 6 0
BBX 11 11 0 -1
BITMAP
7C20
44A0
5CA0
54A0
FEA0
82A0
BAA0
AAA0
AA20
BA20
86E0
ENDCHAR
STARTCHAR uni526F
ENCODING 21103
SWIDTH 500 0
DWIDTH 6 0
BBX 11 11 0 -1
BITMAP
FE20
00A0
7CA0
44A0
7CA0
00A0
FEA0
92A0
FE20
9220
FEE0
ENDCHAR
STARTCHAR uni5272
ENCODING 21106
SWIDTH 500 0
DWIDTH 6 0
BBX 11 11 0 -1
BITMAP
1020
FE20
92A0
7CA0
10A0
7CA0
10A0
FEA0
4420
4420
7CE0
ENDCHAR
STARTCHAR uni5274
ENCODING 21108
SWIDTH 500 0
DWIDTH 6 0
BBX 11 11 0 -1
BITMAP
9220
92A0
FEA0
00A0
FEA0
00A0
7CA0
44A0
7C20
2820
FEE0
ENDCHAR
STARTCHAR uni5275
ENCODING 21109
SWIDTH 500 0
DWIDTH 6 0
BBX 11 11 0 -1
BITMAP
1020
2820
54A0
92A0
7CA0
44A0
7CA0
44A0
FE20
4220
7EE0
ENDCHAR
STARTCHAR uni5277
ENCODING 21111
SWIDTH 500 0
DWIDTH 6 0
BBX 11 11 0 -1
BITMAP
1020
FEA0
44A0
28A0
FFA0
A8A0
BEA0
88A0
BE20
8820
7EE0
ENDCHAR
STARTCHAR uni5278
ENCODING 21112
SWIDTH 500 0
DWIDTH 6 0
BBX 11 11 0 -1
BITMAP
1020
FEA0
54A0
7CA0
54A0
7CA0
54A0
0AA0
FE20
4820
18E0
ENDCHAR
STARTCHAR uni527A
ENCODING 21114
SWIDTH 500 0
DWIDTH 6 0
BBX 11 11 0 -1
BITMAP
1100
7DE0
1340
FD40
5480
9340
3FE0
2000
2FE0
4420
98C0
ENDCHAR
STARTCHAR uni527B
ENCODING 21115
SWIDTH 500 0
DWIDTH 6 0
BBX 11 11 0 -1
BITMAP
9220
9220
FEA0
00A0
EEA0
AAA0
EEA0
AAA0
EEA0
AA20
B6E0
ENDCHAR
STARTCHAR uni527C
ENCODING 21116
SWIDTH 500 0
DWIDTH 6 0
BBX 11 11 0 -1
BITMAP
4820
F4A0
AAA0
DEA0
38A0
44A0
92A0
6AA0
1420
0820
70E0
ENDCHAR
STARTCHAR uni527D
ENCODING 21117
SWIDTH 500 0
DWIDTH 6 0
BBX 11 11 0 -1
BITMAP
FE20
28A0
FEA0
AAA0
FEA0
00A0
7CA0
00A0
FEA0
5420
B360
ENDCHAR
STARTCHAR uni527F
ENCODING 21119
SWIDTH 500 0
DWIDTH 6 0
BBX 11 11 0 -1
BITMAP
5420
A8A0
54A0
7CA0
54A0
7CA0
54A0
FEA0
3420
5220
91E0
ENDCHAR
STARTCHAR uni5280
ENCODING 21120
SWIDTH 500 0
DWIDTH 6 0
BBX 11 11 0 -1
BITMAP
FC20
2820
FEA0
2AA0
48A0
FEA0
AAA0
FEA0
AA20
BA20
86E0
ENDCHAR
STARTCHAR uni5281
ENCODING 21121
SWIDTH 500 0
DWIDTH 6 0
BBX 11 11 0 -1
BITMAP
4820
7EA0
48A0
FEA0
48A0
7EA0
48A0
7EA0
0020
5220
A9E0
ENDCHAR
STARTCHAR uni5282
ENCODING 21122
SWIDTH 500 0
DWIDTH 6 0
BBX 11 11 0 -1
BITMAP
FF20
D420
A4A0
FFA0
A0A0
AAA0
AAA0
FAA0
A620
A920
50E0
ENDCHAR
STARTCHAR uni5283
ENCODING 21123
SWIDTH 500 0
DWIDTH 6 0
BBX 11 11 0 -1
BITMAP
1020
7EA0
12A0
FFA0
12A0
FFA0
54A0
7CA0
5420
5420
FEE0
ENDCHAR
STARTCHAR uni5284
ENCODING 21124
SWIDTH 500 0
DWIDTH 6 0
BBX 11 11 0 -1
BITMAP
4100
7FE0
9280
0840
3840
4540
BB40
0140
7D40
4440
7DC0
ENDCHAR
STARTCHAR uni5287
ENCODING 21127
SWIDTH 500 0
DWIDTH 6 0
BBX 11 11 0 -1
BITMAP
1E20
1020
FEA0
92A0
BCA0
92A0
FEA0
ADA0
D620
A520
D9E0
ENDCHAR
STARTCHAR uni5288
ENCODING 21128
SWIDTH 500 0
DWIDTH 6 0
BBX 11 11 0 -1
BITMAP
7C80
47E0
7D40
43E0
FC80
27E0
3C80
0080
7FC0
0840
7180
ENDCHAR
STARTCHAR uni5289
ENCODING 21129
SWIDTH 500 0
DWIDTH 6 0
BBX 11 11 0 -1
BITMAP
DE20
8A20
AAA0
D6A0
28A0
FEA0
10A0
FEA0
9220
5420
FEE0
ENDCHAR
STARTCHAR uni528A
ENCODING 21130
SWIDTH 500 0
DWIDTH 6 0
BBX 11 11 0 -1
BITMAP
3820
4420
BAA0
00A0
FEA0
AAA0
FEA0
44A0
7C20
4420
7CE0
ENDCHAR
STARTCHAR uni528B
ENCODING 21131
SWIDTH 500 0
DWIDTH 6 0
BBX 11 11 0 -1
BITMAP
7C20
4420
7CA0
00A0
FEA0
AAA0
EEA0
10A0
FF20
5420
9360
ENDCHAR
STARTCHAR uni528C
ENCODING 21132
SWIDTH 500 0
DWIDTH 6 0
BBX 11 11 0 -1
BITMAP
2E20
2820
FFA0
0AA0
FFA0
88A0
F9A0
AAA0
F520
AB20
D160
ENDCHAR
STARTCHAR uni528D
ENCODING 21133
SWIDTH 500 0
DWIDTH 6 0
BBX 11 11 0 -1
BITMAP
1020
2820
44A0
BAA0
00A0
EEA0
AAA0
EEA0
4420
AA20
9160
ENDCHAR
STARTCHAR uni5290
ENCODING 21136
SWIDTH 500 0
DWIDTH 6 0
BBX 11 11 0 -1
BITMAP
2420
FF20
24A0
7EA0
C8A0
7EA0
48A0
7EA0
2420
1820
66E0
ENDCHAR
STARTCHAR uni5291
ENCODING 21137
SWIDTH 500 0
DWIDTH 6 0
BBX 11 11 0 -1
BITMAP
1020
FF20
2AA0
54A0
56A0
95A0
42A0
7EA0
4220
7E20
82E0
ENDCHAR
STARTCHAR uni5293
ENCODING 21139
SWIDTH 500 0
DWIDTH 6 0
BBX 11 11 0 -1
BITMAP
7C20
4420
7CA0
44A0
FEA0
92A0
FEA0
92A0
FF20
2420
C4E0
ENDCHAR
STARTCHAR uni5296
ENCODING 21142
SWIDTH 500 0
DWIDTH 6 0
BBX 11 11 0 -1
BITMAP
7820
FE20
42A0
FFA0
ADA0
EAA0
7EA0
52A0
7E20
2A20
C7E0
ENDCHAR
STARTCHAR uni5297
ENCODING 21143
SWIDTH 500 0
DWIDTH 6 0
BBX 11 11 0 -1
BITMAP
A420
FF20
24A0
FFA0
55A0
FEA0
42A0
7EA0
4220
7E20
C3E0
ENDCHAR
STARTCHAR uni5298
ENCODING 21144
SWIDTH 500 0
DWIDTH 6 0
BBX 11 11 0 -1
BITMAP
FF20
A420
FFA0
A2A0
F7A0
AAA0
F7A0
94A0
F720
9420
F760
ENDCHAR
STARTCHAR uni5299
ENCODING 21145
SWIDTH 500 0
DWIDTH 6 0
BBX 11 11 0 -1
BITMAP
3C20
2420
FFA0
5AA0
ACA0
4AA0
FFA0
ADA0
FF20
2920
FF60
ENDCHAR
STARTCHAR uni529B
ENCODING 21147
SWIDTH 500 0
DWIDTH 6 0
BBX 9 11 0 -1
BITMAP
0800
0800
0800
FF80
0880
0880
1080
1080
2080
4480
8300
ENDCHAR
STARTCHAR uni529D
ENCODING 21149
SWIDTH 500 0
DWIDTH 6 0
BBX 11 11 0 -1
BITMAP
0100
F900
0BE0
8920
4920
3120
1120
2920
4A20
8420
08C0
ENDCHAR
STARTCHAR uni529E
ENCODING 21150
SWIDTH 500 0
DWIDTH 6 0
BBX 10 11 0 -1
BITMAP
0800
0800
FF00
0900
0980
4940
4940
9100
1100
2500
C200
ENDCHAR
STARTCHAR uni529F
ENCODING 21151
SWIDTH 500 0
DWIDTH 6 0
BBX 11 11 0 -1
BITMAP
0100
0100
F900
27E0
2120
2120
2120
3A20
C220
0520
18C0
ENDCHAR
STARTCHAR uni52A0
ENCODING 21152
SWIDTH 500 0
DWIDTH 6 0
BBX 11 11 0 -1
BITMAP
1000
1000
7DE0
1520
1520
1520
1520
2520
2520
55E0
8920
ENDCHAR
STARTCHAR uni52A1
ENCODING 21153
SWIDTH 500 0
DWIDTH 6 0
BBX 10 11 0 -1
BITMAP
1000
3F00
5200
0C00
F3C0
0800
FF80
0880
1080
2480
C300
ENDCHAR
STARTCHAR uni52A2
ENCODING 21154
SWIDTH 500 0
DWIDTH 6 0
BBX 11 11 0 -1
BITMAP
0080
FC80
2080
3BE0
28A0
28A0
28A0
4920
4920
8AA0
9440
ENDCHAR
STARTCHAR uni52A3
ENCODING 21155
SWIDTH 500 0
DWIDTH 6 0
BBX 10 11 0 -1
BITMAP
0400
2500
4480
8140
1E00
E400
3FC0
0440
0840
1240
E180
ENDCHAR
STARTCHAR uni52A6
ENCODING 21158
SWIDTH 500 0
DWIDTH 6 0
BBX 11 11 0 -1
BITMAP
0400
3FC0
0440
0980
7080
1080
7FE0
14A0
24A0
4520
9AC0
ENDCHAR
STARTCHAR uni52A8
ENCODING 21160
SWIDTH 500 0
DWIDTH 6 0
BBX 11 11 0 -1
BITMAP
0100
7900
0100
03E0
FD20
2120
2120
4920
F520
0220
04C0
ENDCHAR
STARTCHAR uni52A9
ENCODING 21161
SWIDTH 500 0
DWIDTH 6 0
BBX 11 11 0 -1
BITMAP
7900
4900
4900
7BE0
4920
4920
7920
4920
5E20
E4A0
0840
ENDCHAR
STARTCHAR uni52AA
ENCODING 21162
SWIDTH 500 0
DWIDTH 6 0
BBX 10 11 0 -1
BITMAP
2000
FFC0
5480
9300
6280
DC40
0800
FF80
0880
1480
E300
ENDCHAR
STARTCHAR uni52AB
ENCODING 21163
SWIDTH 500 0
DWIDTH 6 0
BBX 11 11 0 -1
BITMAP
1100
1100
7D00
13E0
1120
FD20
2120
2920
FE20
04A0
0840
ENDCHAR
STARTCHAR uni52AC
ENCODING 21164
SWIDTH 500 0
DWIDTH 6 0
BBX 11 11 0 -1
BITMAP
4080
4080
7C80
87E0
74A0
54A0
54A0
54A0
7520
0620
18C0
ENDCHAR
STARTCHAR uni52AD
ENCODING 21165
SWIDTH 500 0
DWIDTH 6 0
BBX 11 11 0 -1
BITMAP
FC80
2480
25E0
24A0
58A0
80A0
7CA0
44A0
4520
7EA0
4440
ENDCHAR
STARTCHAR uni52AE
ENCODING 21166
SWIDTH 500 0
DWIDTH 6 0
BBX 11 11 0 -1
BITMAP
1080
5080
7C80
93E0
10A0
FEA0
10A0
18A0
2520
42A0
8440
ENDCHAR
STARTCHAR uni52B1
ENCODING 21169
SWIDTH 500 0
DWIDTH 6 0
BBX 11 11 0 -1
BITMAP
7C80
4080
4080
7DE0
50A0
5CA0
54A0
54A0
5520
AAA0
4440
ENDCHAR
STARTCHAR uni52B2
ENCODING 21170
SWIDTH 500 0
DWIDTH 6 0
BBX 11 11 0 -1
BITMAP
FC80
0880
13E0
28A0
44A0
80A0
78A0
10A0
1120
3AA0
C440
ENDCHAR
STARTCHAR uni52B3
ENCODING 21171
SWIDTH 500 0
DWIDTH 6 0
BBX 10 11 0 -1
BITMAP
1200
FFC0
1200
7FC0
8080
0800
7F80
0880
1080
2480
C300
ENDCHAR
STARTCHAR uni52BB
ENCODING 21179
SWIDTH 500 0
DWIDTH 6 0
BBX 11 11 0 -1
BITMAP
0080
FC80
83E0
FCA0
90A0
B8A0
90A0
FD20
8120
FEA0
0440
ENDCHAR
STARTCHAR uni52BC
ENCODING 21180
SWIDTH 500 0
DWIDTH 6 0
BBX 11 11 0 -1
BITMAP
1080
FE80
13E0
10A0
7CA0
00A0
7CA0
44A0
4520
7EA0
4440
ENDCHAR
STARTCHAR uni52BE
ENCODING 21182
SWIDTH 500 0
DWIDTH 6 0
BBX 11 11 0 -1
BITMAP
2080
1080
FE80
23E0
48A0
F0A0
14A0
28A0
5920
26A0
4440
ENDCHAR
STARTCHAR uni52BF
ENCODING 21183
SWIDTH 500 0
DWIDTH 6 0
BBX 11 11 0 -1
BITMAP
2100
FFC0
2140
3540
E340
2560
6C20
0400
7FC0
1040
6180
ENDCHAR
STARTCHAR uni52C0
ENCODING 21184
SWIDTH 500 0
DWIDTH 6 0
BBX 11 11 0 -1
BITMAP
2080
F880
23E0
F8A0
88A0
88A0
F8A0
50A0
5520
5AA0
9440
ENDCHAR
STARTCHAR uni52C1
ENCODING 21185
SWIDTH 500 0
DWIDTH 6 0
BBX 11 11 0 -1
BITMAP
FD00
5500
A900
ABE0
5520
0120
FD20
2120
3A20
E4A0
0840
ENDCHAR
STARTCHAR uni52C2
ENCODING 21186
SWIDTH 500 0
DWIDTH 6 0
BBX 11 11 0 -1
BITMAP
5100
5100
7FE0
9120
FD20
0120
7D20
4520
4520
7EA0
4440
ENDCHAR
STARTCHAR uni52C3
ENCODING 21187
SWIDTH 500 0
DWIDTH 6 0
BBX 11 11 0 -1
BITMAP
1080
7C80
11E0
7EA0
84A0
78A0
08A0
10A0
7D20
12A0
3440
ENDCHAR
STARTCHAR uni52C7
ENCODING 21191
SWIDTH 500 0
DWIDTH 6 0
BBX 10 11 0 -1
BITMAP
7F80
1200
7F80
4880
7F80
4880
7F80
4880
FFC0
1040
E380
ENDCHAR
STARTCHAR uni52C9
ENCODING 21193
SWIDTH 500 0
DWIDTH 6 0
BBX 11 11 0 -1
BITMAP
2080
3880
4BE0
7CA0
D4A0
54A0
7D20
2A20
2CC0
4820
87E0
ENDCHAR
STARTCHAR uni52CB
ENCODING 21195
SWIDTH 500 0
DWIDTH 6 0
BBX 11 11 0 -1
BITMAP
F900
8900
F900
03E0
F920
8920
A920
A920
A120
52A0
8C40
ENDCHAR
STARTCHAR uni52CD
ENCODING 21197
SWIDTH 500 0
DWIDTH 6 0
BBX 11 11 0 -1
BITMAP
2080
1080
FFE0
00A0
7CA0
44A0
7CA0
10A0
5920
96A0
3440
ENDCHAR
STARTCHAR uni52D0
ENCODING 21200
SWIDTH 500 0
DWIDTH 6 0
BBX 11 11 0 -1
BITMAP
7C80
0880
1080
FFE0
10A0
70A0
00A0
7CA0
5520
56A0
FE40
ENDCHAR
STARTCHAR uni52D2
ENCODING 21202
SWIDTH 500 0
DWIDTH 6 0
BBX 11 11 0 -1
BITMAP
5100
F900
5100
73E0
2120
F920
A920
F920
2220
FCA0
2440
ENDCHAR
STARTCHAR uni52D3
ENCODING 21203
SWIDTH 500 0
DWIDTH 6 0
BBX 11 11 0 -1
BITMAP
9480
F880
95E0
DCA0
20A0
FCA0
84A0
FCA0
8520
FD20
8640
ENDCHAR
STARTCHAR uni52D5
ENCODING 21205
SWIDTH 500 0
DWIDTH 6 0
BBX 11 11 0 -1
BITMAP
7880
1080
FE80
55E0
7CA0
54A0
7CA0
10A0
7D20
12A0
FC60
ENDCHAR
STARTCHAR uni52D6
ENCODING 21206
SWIDTH 500 0
DWIDTH 6 0
BBX 11 11 0 -1
BITMAP
FE80
8280
BBE0
82A0
FEA0
44A0
7CA0
44A0
7CA0
4520
7E40
ENDCHAR
STARTCHAR uni52D7
ENCODING 21207
SWIDTH 500 0
DWIDTH 6 0
BBX 11 11 0 -1
BITMAP
3FC0
2040
3FC0
2040
7FC0
4900
7BE0
4920
7920
4AA0
FC40
ENDCHAR
STARTCHAR uni52D8
ENCODING 21208
SWIDTH 500 0
DWIDTH 6 0
BBX 11 11 0 -1
BITMAP
2480
FE80
2480
3DE0
24A0
3CA0
24A0
FEA0
5520
62A0
7E40
ENDCHAR
STARTCHAR uni52D9
ENCODING 21209
SWIDTH 500 0
DWIDTH 6 0
BBX 11 11 0 -1
BITMAP
FA00
53E0
2640
F980
2A40
3520
6FE0
A120
2120
A2A0
6C40
ENDCHAR
STARTCHAR uni52DB
ENCODING 21211
SWIDTH 500 0
DWIDTH 6 0
BBX 11 11 0 -1
BITMAP
7880
4880
FDE0
84A0
FCA0
84A0
FCA0
84A0
FD20
4AA0
8440
ENDCHAR
STARTCHAR uni52DD
ENCODING 21213
SWIDTH 500 0
DWIDTH 6 0
BBX 11 11 0 -1
BITMAP
F920
9540
9FE0
F200
9FE0
9240
F520
9FC0
9240
9540
B880
ENDCHAR
STARTCHAR uni52DE
ENCODING 21214
SWIDTH 500 0
DWIDTH 6 0
BBX 10 11 0 -1
BITMAP
2100
B580
A500
5280
8C40
FFC0
8840
7F80
1080
2480
C300
ENDCHAR
STARTCHAR uni52DF
ENCODING 21215
SWIDTH 500 0
DWIDTH 6 0
BBX 11 11 0 -1
BITMAP
FFE0
1100
3F80
2080
3F80
2080
FFE0
4840
BFA0
1080
6300
ENDCHAR
STARTCHAR uni52E2
ENCODING 21218
SWIDTH 500 0
DWIDTH 6 0
BBX 11 11 0 -1
BITMAP
1100
FFC0
1140
FF40
5540
BAA0
1420
7FC0
0440
0A40
7180
ENDCHAR
STARTCHAR uni52E3
ENCODING 21219
SWIDTH 500 0
DWIDTH 6 0
BBX 11 11 0 -1
BITMAP
1080
FE80
11E0
FCA0
10A0
FEA0
44A0
7CA0
4520
7EA0
C640
ENDCHAR
STARTCHAR uni52E4
ENCODING 21220
SWIDTH 500 0
DWIDTH 6 0
BBX 11 11 0 -1
BITMAP
2880
FE80
2880
7FE0
54A0
54A0
FEA0
10A0
7D20
12A0
FC40
ENDCHAR
STARTCHAR uni52E6
ENCODING 21222
SWIDTH 500 0
DWIDTH 6 0
BBX 11 11 0 -1
BITMAP
5480
A880
5480
7DE0
54A0
7CA0
54A0
FEA0
1920
56A0
9440
ENDCHAR
STARTCHAR uni52E9
ENCODING 21225
SWIDTH 500 0
DWIDTH 6 0
BBX 11 11 0 -1
BITMAP
A880
FC80
ABE0
B8A0
80A0
FEA0
44A0
7CA0
4520
7EA0
C640
ENDCHAR
STARTCHAR uni52EB
ENCODING 21227
SWIDTH 500 0
DWIDTH 6 0
BBX 11 11 0 -1
BITMAP
0880
F480
ABE0
FCA0
68A0
A4A0
FCA0
A4A0
FD20
A6A0
FC40
ENDCHAR
STARTCHAR uni52EF
ENCODING 21231
SWIDTH 500 0
DWIDTH 6 0
BBX 11 11 0 -1
BITMAP
1080
FC80
B480
B5E0
84A0
FCA0
48A0
78A0
4920
4AA0
FC40
ENDCHAR
STARTCHAR uni52F0
ENCODING 21232
SWIDTH 500 0
DWIDTH 6 0
BBX 11 11 0 -1
BITMAP
23E0
FAA0
2BE0
4AA0
9BE0
5220
FCC0
55A0
5680
54A0
ACE0
ENDCHAR
STARTCHAR uni52F1
ENCODING 21233
SWIDTH 500 0
DWIDTH 6 0
BBX 11 11 0 -1
BITMAP
2880
FE80
29E0
7CA0
54A0
7CA0
54A0
FEA0
9720
FAA0
8640
ENDCHAR
STARTCHAR uni52F3
ENCODING 21235
SWIDTH 500 0
DWIDTH 6 0
BBX 11 11 0 -1
BITMAP
FC80
1080
FE80
ABE0
FEA0
10A0
FCA0
10A0
FD20
56A0
AA40
ENDCHAR
STARTCHAR uni52F4
ENCODING 21236
SWIDTH 500 0
DWIDTH 6 0
BBX 11 11 0 -1
BITMAP
3C80
2080
FE80
ABE0
FCA0
D4A0
FCA0
D520
FD20
AAA0
DE40
ENDCHAR
STARTCHAR uni52F5
ENCODING 21237
SWIDTH 500 0
DWIDTH 6 0
BBX 11 11 0 -1
BITMAP
FE80
9480
BE80
ABE0
BEA0
AAA0
FEA0
CAA0
FEA0
C320
C640
ENDCHAR
STARTCHAR uni52F7
ENCODING 21239
SWIDTH 500 0
DWIDTH 6 0
BBX 11 11 0 -1
BITMAP
1080
FE80
AA80
EFE0
28A0
FCA0
28A0
FEA0
2B20
E4A0
3A40
ENDCHAR
STARTCHAR uni52F8
ENCODING 21240
SWIDTH 500 0
DWIDTH 6 0
BBX 11 11 0 -1
BITMAP
FE80
2880
EE80
ABE0
EEA0
48A0
FEA0
48A0
7D20
4AA0
7C40
ENDCHAR
STARTCHAR uni52F9
ENCODING 21241
SWIDTH 500 0
DWIDTH 6 0
BBX 10 11 0 -1
BITMAP
2000
3FC0
4040
8040
0040
0040
0040
0040
0040
0240
0180
ENDCHAR
STARTCHAR uni52FA
ENCODING 21242
SWIDTH 500 0
DWIDTH 6 0
BBX 10 11 0 -1
BITMAP
2000
3FC0
4040
8040
0840
0440
0440
0040
0440
0380
0100
ENDCHAR
STARTCHAR uni52FB
ENCODING 21243
SWIDTH 500 0
DWIDTH 6 0
BBX 9 11 0 -1
BITMAP
2000
2000
3F80
4080
9080
0880
0680
1880
6080
0480
0300
ENDCHAR
STARTCHAR uni52FC
ENCODING 21244
SWIDTH 500 0
DWIDTH 6 0
BBX 10 11 0 -1
BITMAP
4000
7FC0
4040
9040
FC40
1440
1540
2540
4740
8040
0180
ENDCHAR
STARTCHAR uni52FE
ENCODING 21246
SWIDTH 500 0
DWIDTH 6 0
BBX 10 11 0 -1
BITMAP
2000
2000
3FC0
4040
9040
1040
2440
4E40
7240
0040
0380
ENDCHAR
STARTCHAR uni52FF
ENCODING 21247
SWIDTH 500 0
DWIDTH 6 0
BBX 11 11 0 -1
BITMAP
1000
1000
1FE0
2920
4920
8920
1120
2220
4420
0920
30C0
ENDCHAR
STARTCHAR uni5300
ENCODING 21248
SWIDTH 500 0
DWIDTH 6 0
BBX 10 11 0 -1
BITMAP
2000
2000
7FC0
8040
1040
0840
0640
1840
6040
0240
0180
ENDCHAR
STARTCHAR uni5305
ENCODING 21253
SWIDTH 500 0
DWIDTH 6 0
BBX 11 11 0 -1
BITMAP
2000
3FC0
4040
BE40
2240
2240
3E40
2040
21A0
2020
1FE0
ENDCHAR
STARTCHAR uni5306
ENCODING 21254
SWIDTH 500 0
DWIDTH 6 0
BBX 9 11 0 -1
BITMAP
2000
2000
3F80
4A80
B280
1A80
2680
4580
8880
1080
2300
ENDCHAR
STARTCHAR uni5308
ENCODING 21256
SWIDTH 500 0
DWIDTH 6 0
BBX 11 11 0 -1
BITMAP
1000
3FE0
4020
9220
2D20
2520
2B20
2120
3F20
0020
00C0
ENDCHAR
STARTCHAR uni5309
ENCODING 21257
SWIDTH 500 0
DWIDTH 6 0
BBX 10 11 0 -1
BITMAP
2000
7FC0
8040
3E40
4940
2A40
FF40
0840
0840
0A40
0980
ENDCHAR
STARTCHAR uni530A
ENCODING 21258
SWIDTH 500 0
DWIDTH 6 0
BBX 10 11 0 -1
BITMAP
2000
3FC0
4840
C940
2A40
FF40
1840
2E40
4940
8840
0980
ENDCHAR
STARTCHAR uni530B
ENCODING 21259
SWIDTH 500 0
DWIDTH 6 0
BBX 10 11 0 -1
BITMAP
2000
7FC0
A040
3E40
4840
FF40
0840
4A40
7E40
0040
0180
ENDCHAR
STARTCHAR uni530D
ENCODING 21261
SWIDTH 500 0
DWIDTH 6 0
BBX 10 11 0 -1
BITMAP
2000
7FC0
8A40
7F40
4940
7F40
4940
7F40
4940
4940
4780
ENDCHAR
STARTCHAR uni530E
ENCODING 21262
SWIDTH 500 0
DWIDTH 6 0
BBX 11 11 0 -1
BITMAP
2000
3FE0
4820
BFA0
1520
3FA0
5560
1F20
04A0
03A0
00C0
ENDCHAR
STARTCHAR uni530F
ENCODING 21263
SWIDTH 500 0
DWIDTH 6 0
BBX 11 11 0 -1
BITMAP
2100
FDE0
4A20
87A0
7AA0
03A0
FEA0
4220
FA40
0A20
71E0
ENDCHAR
STARTCHAR uni5310
ENCODING 21264
SWIDTH 500 0
DWIDTH 6 0
BBX 11 11 0 -1
BITMAP
2000
3FE0
4020
BFA0
1120
3FA0
24A0
3FA0
24A0
3FA0
00C0
ENDCHAR
STARTCHAR uni5311
ENCODING 21265
SWIDTH 500 0
DWIDTH 6 0
BBX 11 11 0 -1
BITMAP
2000
3FE0
5020
BBA0
28A0
3BA0
2A20
7BA0
28A0
4B20
98C0
ENDCHAR
STARTCHAR uni5312
ENCODING 21266
SWIDTH 500 0
DWIDTH 6 0
BBX 11 11 0 -1
BITMAP
2000
3FE0
5120
BFA0
1120
1F20
60E0
1F20
1120
1F20
00C0
ENDCHAR
STARTCHAR uni5315
ENCODING 21269
SWIDTH 500 0
DWIDTH 6 0
BBX 11 11 0 -1
BITMAP
1000
10C0
1080
1100
1200
1400
1800
F020
1020
1020
0FE0
ENDCHAR
STARTCHAR uni5316
ENCODING 21270
SWIDTH 500 0
DWIDTH 6 0
BBX 11 11 0 -1
BITMAP
1200
1200
22C0
2280
6300
A200
2600
2A00
2220
2220
21E0
ENDCHAR
STARTCHAR uni5317
ENCODING 21271
SWIDTH 500 0
DWIDTH 6 0
BBX 11 11 0 -1
BITMAP
0900
0900
0920
7940
0980
0900
0900
0900
1920
E920
48E0
ENDCHAR
STARTCHAR uni5319
ENCODING 21273
SWIDTH 500 0
DWIDTH 6 0
BBX 11 11 0 -1
BITMAP
7D00
4500
7D20
4540
7D80
0100
FF20
4920
4EE0
A800
9FE0
ENDCHAR
STARTCHAR uni531A
ENCODING 21274
SWIDTH 500 0
DWIDTH 6 0
BBX 10 11 0 -1
BITMAP
8100
FF80
8000
8000
8000
8000
8000
8000
8080
FFC0
8000
ENDCHAR
STARTCHAR uni531C
ENCODING 21276
SWIDTH 500 0
DWIDTH 6 0
BBX 10 11 0 -1
BITMAP
FFC0
8400
9400
9700
9D00
F500
9500
9080
8F80
8000
FFC0
ENDCHAR
STARTCHAR uni531D
ENCODING 21277
SWIDTH 500 0
DWIDTH 6 0
BBX 10 11 0 -1
BITMAP
FFC0
8000
8400
BF80
A480
A480
A480
A580
8400
8400
FFC0
ENDCHAR
STARTCHAR uni531F
ENCODING 21279
SWIDTH 500 0
DWIDTH 6 0
BBX 10 11 0 -1
BITMAP
FFC0
8800
8400
FF80
8000
9E00
9280
9280
A180
8000
FFC0
ENDCHAR
STARTCHAR uni5320
ENCODING 21280
SWIDTH 500 0
DWIDTH 6 0
BBX 10 11 0 -1
BITMAP
FFC0
8100
9E00
9000
9FC0
9200
9200
9200
A200
C200
FFC0
ENDCHAR
STARTCHAR uni5321
ENCODING 21281
SWIDTH 500 0
DWIDTH 6 0
BBX 10 11 0 -1
BITMAP
FFC0
8000
BF80
8400
8400
9F00
8400
8400
BF80
8000
FFC0
ENDCHAR
STARTCHAR uni5322
ENCODING 21282
SWIDTH 500 0
DWIDTH 6 0
BBX 10 11 0 -1
BITMAP
FFC0
9000
BF80
CA80
8A80
9280
A480
8880
9300
8000
FFC0
ENDCHAR
STARTCHAR uni5323
ENCODING 21283
SWIDTH 500 0
DWIDTH 6 0
BBX 10 11 0 -1
BITMAP
FFC0
8000
BF80
A480
BF80
A480
BF80
8400
8400
8400
FFC0
ENDCHAR
STARTCHAR uni5326
ENCODING 21286
SWIDTH 500 0
DWIDTH 6 0
BBX 11 11 0 -1
BITMAP
FFE0
9100
F900
93C0
A940
FD40
8940
9D40
AA60
8C00
FFE0
ENDCHAR
STARTCHAR uni532A
ENCODING 21290
SWIDTH 500 0
DWIDTH 6 0
BBX 11 11 0 -1
BITMAP
FFE0
8500
8500
BDE0
8500
9DC0
8500
BDE0
8500
8500
FFE0
ENDCHAR
STARTCHAR uni532D
ENCODING 21293
SWIDTH 500 0
DWIDTH 6 0
BBX 11 11 0 -1
BITMAP
FFE0
A200
FA00
A780
FA80
AA80
FAA0
AAA0
FE60
A400
FFE0
ENDCHAR
STARTCHAR uni532E
ENCODING 21294
SWIDTH 500 0
DWIDTH 6 0
BBX 10 11 0 -1
BITMAP
FFC0
8400
9F00
9500
FFC0
8000
BF80
A480
AA80
9100
FFC0
ENDCHAR
STARTCHAR uni532F
ENCODING 21295
SWIDTH 500 0
DWIDTH 6 0
BBX 11 11 0 -1
BITMAP
FFE0
A500
97C0
C500
AFC0
9500
E7C0
A500
A7E0
A400
FFE0
ENDCHAR
STARTCHAR uni5330
ENCODING 21296
SWIDTH 500 0
DWIDTH 6 0
BBX 10 11 0 -1
BITMAP
FFC0
AA80
BB80
8000
BF80
A480
BF80
A480
FFC0
8400
FFC0
ENDCHAR
STARTCHAR uni5331
ENCODING 21297
SWIDTH 500 0
DWIDTH 6 0
BBX 11 11 0 -1
BITMAP
FFE0
8400
9F00
9500
FFE0
9080
9F80
9080
9F80
B0C0
FFE0
ENDCHAR
STARTCHAR uni5334
ENCODING 21300
SWIDTH 500 0
DWIDTH 6 0
BBX 11 11 0 -1
BITMAP
FFE0
A100
BDE0
CA40
9FC0
9040
9FC0
8480
BFE0
8880
FFE0
ENDCHAR
STARTCHAR uni5337
ENCODING 21303
SWIDTH 500 0
DWIDTH 6 0
BBX 11 11 0 -1
BITMAP
FFE0
A440
BFC0
A440
BFC0
A200
BFC0
E200
BFC0
A200
FFE0
ENDCHAR
STARTCHAR uni5338
ENCODING 21304
SWIDTH 500 0
DWIDTH 6 0
BBX 11 12 0 -1
BITMAP
0040
FFE0
4000
4000
4000
4000
4000
4000
4000
4000
4040
7FE0
ENDCHAR
STARTCHAR uni5339
ENCODING 21305
SWIDTH 500 0
DWIDTH 6 0
BBX 10 11 0 -1
BITMAP
FFC0
4A00
4A00
4A00
4A00
4A40
5240
61C0
4000
4000
7FC0
ENDCHAR
STARTCHAR uni533A
ENCODING 21306
SWIDTH 500 0
DWIDTH 6 0
BBX 10 11 0 -1
BITMAP
FF80
8000
8100
9100
8A00
8400
8A00
9100
8100
8000
FFC0
ENDCHAR
STARTCHAR uni533B
ENCODING 21307
SWIDTH 500 0
DWIDTH 6 0
BBX 10 11 0 -1
BITMAP
FFC0
9000
9000
9F80
A400
FFC0
8400
8A00
9100
A080
FFC0
ENDCHAR
STARTCHAR uni533C
ENCODING 21308
SWIDTH 500 0
DWIDTH 6 0
BBX 10 11 0 -1
BITMAP
FFC0
8000
8E00
9100
EEC0
8000
9F00
9100
9F00
8000
FFC0
ENDCHAR
STARTCHAR uni533D
ENCODING 21309
SWIDTH 500 0
DWIDTH 6 0
BBX 10 11 0 -1
BITMAP
FFC0
9100
9F00
9100
9F00
8400
FF80
9200
8E00
9900
FFC0
ENDCHAR
STARTCHAR uni533E
ENCODING 21310
SWIDTH 500 0
DWIDTH 6 0
BBX 11 11 0 -1
BITMAP
FFE0
8400
BF80
A080
BF80
A000
BFC0
B540
DFC0
9540
FFE0
ENDCHAR
STARTCHAR uni533F
ENCODING 21311
SWIDTH 500 0
DWIDTH 6 0
BBX 10 11 0 -1
BITMAP
FFC0
9200
FF80
9200
FFC0
8800
9F00
B100
DF00
8000
FFC0
ENDCHAR
STARTCHAR uni5340
ENCODING 21312
SWIDTH 500 0
DWIDTH 6 0
BBX 11 11 0 -1
BITMAP
FFE0
8880
8880
8F80
8000
BDE0
A520
A520
BDE0
8000
FFE0
ENDCHAR
STARTCHAR uni5341
ENCODING 21313
SWIDTH 500 0
DWIDTH 6 0
BBX 11 11 0 -1
BITMAP
0400
0400
0400
0440
FFE0
0400
0400
0400
0400
0400
0400
ENDCHAR
STARTCHAR uni5343
ENCODING 21315
SWIDTH 500 0
DWIDTH 6 0
BBX 11 11 0 -1
BITMAP
0180
7E00
0400
0440
FFE0
0400
0400
0400
0400
0400
0400
ENDCHAR
STARTCHAR uni5344
ENCODING 21316
SWIDTH 500 0
DWIDTH 6 0
BBX 11 11 0 -1
BITMAP
1100
1100
1100
1100
FFE0
1100
1100
1100
1100
1100
1100
ENDCHAR
STARTCHAR uni5345
ENCODING 21317
SWIDTH 500 0
DWIDTH 6 0
BBX 11 11 0 -1
BITMAP
2040
2440
2440
2440
FFE0
2440
2440
2440
2440
4440
8040
ENDCHAR
STARTCHAR uni5347
ENCODING 21319
SWIDTH 500 0
DWIDTH 6 0
BBX 11 11 0 -1
BITMAP
0C80
7080
1080
1080
1080
FFE0
1080
1080
1080
2080
C080
ENDCHAR
STARTCHAR uni5348
ENCODING 21320
SWIDTH 500 0
DWIDTH 6 0
BBX 11 11 0 -1
BITMAP
2000
3FC0
4400
8400
0440
FFE0
0400
0400
0400
0400
0400
ENDCHAR
STARTCHAR uni5349
ENCODING 21321
SWIDTH 500 0
DWIDTH 6 0
BBX 11 11 0 -1
BITMAP
0400
7FC0
0400
2480
2080
2080
FFE0
2080
2080
4080
8080
ENDCHAR
STARTCHAR uni534A
ENCODING 21322
SWIDTH 500 0
DWIDTH 6 0
BBX 11 11 0 -1
BITMAP
0400
44C0
3480
1500
7FC0
0400
0400
FFE0
0400
0400
0400
ENDCHAR
STARTCHAR uni534C
ENCODING 21324
SWIDTH 500 0
DWIDTH 6 0
BBX 11 11 0 -1
BITMAP
2080
2A80
2A80
2A80
FFE0
2A80
2A80
2A80
2A80
4A80
8080
ENDCHAR
STARTCHAR uni534D
ENCODING 21325
SWIDTH 500 0
DWIDTH 6 0
BBX 10 11 0 -1
BITMAP
F880
0880
0880
0880
0880
FF80
8800
8800
8800
8800
8FC0
ENDCHAR
STARTCHAR uni534E
ENCODING 21326
SWIDTH 500 0
DWIDTH 6 0
BBX 11 11 0 -1
BITMAP
1240
2280
6300
AE20
2220
21E0
0400
FFE0
0400
0400
0400
ENDCHAR
STARTCHAR uni534F
ENCODING 21327
SWIDTH 500 0
DWIDTH 6 0
BBX 11 11 0 -1
BITMAP
2200
2200
2F80
F280
2280
2AC0
2AA0
32A0
2480
2A80
3100
ENDCHAR
STARTCHAR uni5351
ENCODING 21329
SWIDTH 500 0
DWIDTH 6 0
BBX 10 11 0 -1
BITMAP
0800
7F80
4480
7F80
4480
7F80
1400
FFC0
0400
0400
0400
ENDCHAR
STARTCHAR uni5352
ENCODING 21330
SWIDTH 500 0
DWIDTH 6 0
BBX 11 11 0 -1
BITMAP
0400
7FC0
1100
1100
2A80
4440
0400
FFE0
0400
0400
0400
ENDCHAR
STARTCHAR uni5353
ENCODING 21331
SWIDTH 500 0
DWIDTH 6 0
BBX 11 11 0 -1
BITMAP
0400
07C0
0400
3F80
2080
3F80
2080
3F80
0400
FFE0
0400
ENDCHAR
STARTCHAR uni5354
ENCODING 21332
SWIDTH 500 0
DWIDTH 6 0
BBX 11 11 0 -1
BITMAP
2200
27C0
2240
FA40
2480
2480
3FE0
2AA0
2AA0
3320
2440
ENDCHAR
STARTCHAR uni5355
ENCODING 21333
SWIDTH 500 0
DWIDTH 6 0
BBX 11 11 0 -1
BITMAP
1100
0A00
7FC0
4440
7FC0
4440
7FC0
0400
FFE0
0400
0400
ENDCHAR
STARTCHAR uni5356
ENCODING 21334
SWIDTH 500 0
DWIDTH 6 0
BBX 10 11 0 -1
BITMAP
0800
7F80
0800
FFC0
2080
5500
2400
FFC0
0400
1B00
E0C0
ENDCHAR
STARTCHAR uni5357
ENCODING 21335
SWIDTH 500 0
DWIDTH 6 0
BBX 11 11 0 -1
BITMAP
0400
FFE0
0400
7FC0
5140
4A40
7FC0
4440
7FC0
4440
44C0
ENDCHAR
STARTCHAR uni535A
ENCODING 21338
SWIDTH 500 0
DWIDTH 6 0
BBX 11 11 0 -1
BITMAP
2140
2FE0
2100
FFE0
2920
2FE0
2920
3FE0
2440
2240
20C0
ENDCHAR
STARTCHAR uni535C
ENCODING 21340
SWIDTH 500 0
DWIDTH 6 0
BBX 6 11 0 -1
BITMAP
80
80
80
C0
A0
98
8C
84
80
80
80
ENDCHAR
STARTCHAR uni535E
ENCODING 21342
SWIDTH 500 0
DWIDTH 6 0
BBX 10 11 0 -1
BITMAP
0800
0400
FFC0
0800
0800
0E00
0980
0880
0800
0800
0800
ENDCHAR
STARTCHAR uni535F
ENCODING 21343
SWIDTH 500 0
DWIDTH 6 0
BBX 10 11 0 -1
BITMAP
0200
0200
F200
9200
9300
92C0
9240
F200
9200
0200
0200
ENDCHAR
STARTCHAR uni5360
ENCODING 21344
SWIDTH 500 0
DWIDTH 6 0
BBX 9 11 0 -1
BITMAP
1000
1000
1F80
1000
1000
FF00
8100
8100
8100
FF00
8100
ENDCHAR
STARTCHAR uni5361
ENCODING 21345
SWIDTH 500 0
DWIDTH 6 0
BBX 10 11 0 -1
BITMAP
0800
0F80
0800
0800
FFC0
0800
0E00
0980
0880
0800
0800
ENDCHAR
STARTCHAR uni5362
ENCODING 21346
SWIDTH 500 0
DWIDTH 6 0
BBX 11 11 0 -1
BITMAP
0400
07E0
0400
3FC0
2040
2040
3FC0
2000
2000
4000
8000
ENDCHAR
STARTCHAR uni5363
ENCODING 21347
SWIDTH 500 0
DWIDTH 6 0
BBX 10 11 0 -1
BITMAP
0800
0FC0
0800
FF80
8080
FC80
8480
FC80
8080
FF80
8080
ENDCHAR
STARTCHAR uni5364
ENCODING 21348
SWIDTH 500 0
DWIDTH 6 0
BBX 10 11 0 -1
BITMAP
0800
0FC0
0800
FF80
A280
9480
8880
9480
A280
FF80
8080
ENDCHAR
STARTCHAR uni5366
ENCODING 21350
SWIDTH 500 0
DWIDTH 6 0
BBX 11 11 0 -1
BITMAP
1080
7C80
1080
1080
FEC0
10A0
7CA0
1080
1E80
F080
4080
ENDCHAR
STARTCHAR uni5367
ENCODING 21351
SWIDTH 500 0
DWIDTH 6 0
BBX 11 11 0 -1
BITMAP
FD00
9100
9100
FD80
8560
8520
FD00
9100
9100
FD00
0100
ENDCHAR
STARTCHAR uni5369
ENCODING 21353
SWIDTH 500 0
DWIDTH 6 0
BBX 5 11 0 -1
BITMAP
F8
88
88
88
88
88
A8
90
80
80
80
ENDCHAR
STARTCHAR uni536B
ENCODING 21355
SWIDTH 500 0
DWIDTH 6 0
BBX 10 10 0 -1
BITMAP
FF80
0880
0880
0880
0A80
0900
0800
0800
0800
FFC0
ENDCHAR
STARTCHAR uni536C
ENCODING 21356
SWIDTH 500 0
DWIDTH 6 0
BBX 10 11 0 -1
BITMAP
1800
E7C0
8440
8440
8440
8440
9440
A540
C480
0400
0400
ENDCHAR
STARTCHAR uni536E
ENCODING 21358
SWIDTH 500 0
DWIDTH 6 0
BBX 11 11 0 -1
BITMAP
0080
3F00
2000
3FE0
2000
2F80
2880
2880
2B20
4820
87E0
ENDCHAR
STARTCHAR uni536F
ENCODING 21359
SWIDTH 500 0
DWIDTH 6 0
BBX 10 11 0 -1
BITMAP
1000
E7C0
8440
9440
9440
9440
B440
D540
1480
2400
C400
ENDCHAR
STARTCHAR uni5370
ENCODING 21360
SWIDTH 500 0
DWIDTH 6 0
BBX 10 11 0 -1
BITMAP
1000
E7C0
8440
8440
F440
8440
8440
9540
A480
C400
0400
ENDCHAR
STARTCHAR uni5371
ENCODING 21361
SWIDTH 500 0
DWIDTH 6 0
BBX 11 11 0 -1
BITMAP
1000
1F80
2100
7FE0
2000
2F80
2880
2880
2B20
4820
87E0
ENDCHAR
STARTCHAR uni5372
ENCODING 21362
SWIDTH 500 0
DWIDTH 6 0
BBX 11 11 0 -1
BITMAP
FDE0
2520
2520
2520
5920
8120
7D20
45A0
4540
7D00
4500
ENDCHAR
STARTCHAR uni5373
ENCODING 21363
SWIDTH 500 0
DWIDTH 6 0
BBX 11 11 0 -1
BITMAP
7DE0
4520
7D20
4520
7D20
4520
5120
49A0
7540
C500
0100
ENDCHAR
STARTCHAR uni5374
ENCODING 21364
SWIDTH 500 0
DWIDTH 6 0
BBX 11 11 0 -1
BITMAP
1000
11E0
7D20
1120
1120
FF20
1120
2520
45A0
7B40
0100
ENDCHAR
STARTCHAR uni5375
ENCODING 21365
SWIDTH 500 0
DWIDTH 6 0
BBX 10 11 0 -1
BITMAP
1800
E7C0
9440
D440
B540
94C0
9440
F440
1540
2480
C400
ENDCHAR
STARTCHAR uni5377
ENCODING 21367
SWIDTH 500 0
DWIDTH 6 0
BBX 11 11 0 -1
BITMAP
4480
2500
7FE0
0800
FFE0
1080
3F40
D120
1300
1040
0FC0
ENDCHAR
STARTCHAR uni5378
ENCODING 21368
SWIDTH 500 0
DWIDTH 6 0
BBX 11 11 0 -1
BITMAP
41E0
7D20
9120
1120
FF20
1120
5D20
5120
51A0
5D40
E100
ENDCHAR
STARTCHAR uni5379
ENCODING 21369
SWIDTH 500 0
DWIDTH 6 0
BBX 11 11 0 -1
BITMAP
10E0
20A0
FEA0
AAA0
AAA0
AAA0
AAA0
AAA0
AAE0
FF80
0080
ENDCHAR
STARTCHAR uni537A
ENCODING 21370
SWIDTH 500 0
DWIDTH 6 0
BBX 11 11 0 -1
BITMAP
7F80
0100
F640
2580
5480
8860
7FC0
2100
2640
2040
1FC0
ENDCHAR
STARTCHAR uni537B
ENCODING 21371
SWIDTH 500 0
DWIDTH 6 0
BBX 11 11 0 -1
BITMAP
29E0
2520
4320
9920
2520
4320
FD20
45A0
4540
7D00
4500
ENDCHAR
STARTCHAR uni537C
ENCODING 21372
SWIDTH 500 0
DWIDTH 6 0
BBX 11 11 0 -1
BITMAP
0200
FBC0
5480
5FE0
5400
55E0
5520
5D60
5500
8920
90E0
ENDCHAR
STARTCHAR uni537F
ENCODING 21375
SWIDTH 500 0
DWIDTH 6 0
BBX 11 11 0 -1
BITMAP
2EE0
CAA0
AEA0
AAA0
AEA0
AAA0
E8A0
AAE0
2D80
4880
8080
ENDCHAR
STARTCHAR uni5382
ENCODING 21378
SWIDTH 500 0
DWIDTH 6 0
BBX 11 11 0 -1
BITMAP
7FE0
4000
4000
4000
4000
4000
4000
4000
4000
8000
8000
ENDCHAR
STARTCHAR uni5384
ENCODING 21380
SWIDTH 500 0
DWIDTH 6 0
BBX 11 11 0 -1
BITMAP
3FE0
2000
2000
2F80
2880
2880
2880
2B00
4820
4820
87E0
ENDCHAR
STARTCHAR uni5385
ENCODING 21381
SWIDTH 500 0
DWIDTH 6 0
BBX 11 11 0 -1
BITMAP
3FE0
2000
2000
3FE0
2100
2100
2100
2100
4100
4500
8200
ENDCHAR
STARTCHAR uni5386
ENCODING 21382
SWIDTH 500 0
DWIDTH 6 0
BBX 11 11 0 -1
BITMAP
3FE0
2000
2200
2200
2FC0
2240
2240
2240
4440
4940
9080
ENDCHAR
STARTCHAR uni5389
ENCODING 21385
SWIDTH 500 0
DWIDTH 6 0
BBX 11 11 0 -1
BITMAP
3FE0
2000
2000
3FE0
2400
27C0
2440
2440
4840
5240
A180
ENDCHAR
STARTCHAR uni538A
ENCODING 21386
SWIDTH 500 0
DWIDTH 6 0
BBX 11 11 0 -1
BITMAP
7FE0
4000
5FE0
4480
4880
5FE0
4280
4480
4880
9280
A180
ENDCHAR
STARTCHAR uni538B
ENCODING 21387
SWIDTH 500 0
DWIDTH 6 0
BBX 11 11 0 -1
BITMAP
3FE0
2000
2200
2200
2200
3FC0
2200
2280
4240
4200
BFE0
ENDCHAR
STARTCHAR uni538C
ENCODING 21388
SWIDTH 500 0
DWIDTH 6 0
BBX 11 11 0 -1
BITMAP
7FE0
4000
4280
4240
5FE0
4200
4200
4500
4880
9040
A020
ENDCHAR
STARTCHAR uni538D
ENCODING 21389
SWIDTH 500 0
DWIDTH 6 0
BBX 11 11 0 -1
BITMAP
7FE0
4000
4400
5FE0
4800
4A00
5FC0
4200
7FE0
8200
8200
ENDCHAR
STARTCHAR uni538E
ENCODING 21390
SWIDTH 500 0
DWIDTH 6 0
BBX 11 11 0 -1
BITMAP
7FE0
4080
5F00
5100
5100
5FE0
5100
5100
5520
9AA0
9160
ENDCHAR
STARTCHAR uni538F
ENCODING 21391
SWIDTH 500 0
DWIDTH 6 0
BBX 11 11 0 -1
BITMAP
7FE0
4800
4800
4FE0
5400
67C0
4400
4400
47E0
8400
8400
ENDCHAR
STARTCHAR uni5392
ENCODING 21394
SWIDTH 500 0
DWIDTH 6 0
BBX 11 11 0 -1
BITMAP
7FE0
4000
4800
4FC0
5200
7FE0
4200
5240
5240
9FC0
9040
ENDCHAR
STARTCHAR uni5394
ENCODING 21396
SWIDTH 500 0
DWIDTH 6 0
BBX 11 11 0 -1
BITMAP
7FE0
4000
5FE0
4400
4880
5FC0
4220
4F80
4200
8200
BFE0
ENDCHAR
STARTCHAR uni5395
ENCODING 21397
SWIDTH 500 0
DWIDTH 6 0
BBX 11 11 0 -1
BITMAP
FFE0
8000
BE20
A2A0
AAA0
AAA0
AAA0
AAA0
AA20
9420
A2E0
ENDCHAR
STARTCHAR uni5396
ENCODING 21398
SWIDTH 500 0
DWIDTH 6 0
BBX 11 11 0 -1
BITMAP
7FE0
4800
4C40
4A80
7F20
4840
49A0
5440
55A0
A420
C3E0
ENDCHAR
STARTCHAR uni5397
ENCODING 21399
SWIDTH 500 0
DWIDTH 6 0
BBX 11 11 0 -1
BITMAP
7FE0
4400
4200
7FE0
4500
4200
7FE0
4200
5FC0
8200
8200
ENDCHAR
STARTCHAR uni5398
ENCODING 21400
SWIDTH 500 0
DWIDTH 6 0
BBX 11 11 0 -1
BITMAP
3FE0
2000
2FE0
2920
2FE0
2920
2FE0
2100
2FE0
4100
9FE0
ENDCHAR
STARTCHAR uni5399
ENCODING 21401
SWIDTH 500 0
DWIDTH 6 0
BBX 11 11 0 -1
BITMAP
7FE0
4200
7FE0
5240
5FC0
5240
5FC0
4200
7FE0
8200
8200
ENDCHAR
STARTCHAR uni539A
ENCODING 21402
SWIDTH 500 0
DWIDTH 6 0
BBX 11 11 0 -1
BITMAP
3FE0
2000
2FC0
2840
2FC0
2840
2FC0
2080
3FE0
4100
8600
ENDCHAR
STARTCHAR uni539C
ENCODING 21404
SWIDTH 500 0
DWIDTH 6 0
BBX 11 11 0 -1
BITMAP
7FE0
4080
5F00
4200
5FC0
4A80
7FE0
4A80
5FE0
8200
9FC0
ENDCHAR
STARTCHAR uni539D
ENCODING 21405
SWIDTH 500 0
DWIDTH 6 0
BBX 11 11 0 -1
BITMAP
7FE0
4480
5FC0
4480
5FE0
4000
4FC0
4840
4FC0
8840
8FC0
ENDCHAR
STARTCHAR uni539E
ENCODING 21406
SWIDTH 500 0
DWIDTH 6 0
BBX 11 11 0 -1
BITMAP
7FE0
4500
4500
7DE0
4500
5DC0
4500
7DE0
4500
8500
8500
ENDCHAR
STARTCHAR uni539F
ENCODING 21407
SWIDTH 500 0
DWIDTH 6 0
BBX 11 11 0 -1
BITMAP
3FE0
2200
2FC0
2840
2FC0
2840
2FC0
2200
2A80
5260
A620
ENDCHAR
STARTCHAR uni53A2
ENCODING 21410
SWIDTH 500 0
DWIDTH 6 0
BBX 11 11 0 -1
BITMAP
7FE0
4000
49E0
4920
7FE0
4920
4D20
5BE0
6920
89E0
8920
ENDCHAR
STARTCHAR uni53A3
ENCODING 21411
SWIDTH 500 0
DWIDTH 6 0
BBX 11 11 0 -1
BITMAP
7FE0
4280
7FE0
4880
7FE0
5240
5FC0
5240
5FC0
8200
8200
ENDCHAR
STARTCHAR uni53A4
ENCODING 21412
SWIDTH 500 0
DWIDTH 6 0
BBX 11 11 0 -1
BITMAP
7FE0
4440
5980
4880
7FE0
4880
4D80
5AC0
6AA0
8880
8880
ENDCHAR
STARTCHAR uni53A5
ENCODING 21413
SWIDTH 500 0
DWIDTH 6 0
BBX 11 11 0 -1
BITMAP
7FE0
5480
4880
7EE0
4920
6A80
6A80
7E80
4880
9140
A220
ENDCHAR
STARTCHAR uni53A6
ENCODING 21414
SWIDTH 500 0
DWIDTH 6 0
BBX 11 11 0 -1
BITMAP
7FE0
4000
5FE0
4840
4F40
4BC0
4840
4FC0
4C80
5300
9CE0
ENDCHAR
STARTCHAR uni53A7
ENCODING 21415
SWIDTH 500 0
DWIDTH 6 0
BBX 11 11 0 -1
BITMAP
7FE0
4200
7FE0
4880
4F80
4880
4F80
4880
7FE0
8880
B060
ENDCHAR
STARTCHAR uni53A8
ENCODING 21416
SWIDTH 500 0
DWIDTH 6 0
BBX 11 11 0 -1
BITMAP
7FE0
4040
5E40
4040
5DE0
5440
5540
5CC0
6440
9640
B8C0
ENDCHAR
STARTCHAR uni53A9
ENCODING 21417
SWIDTH 500 0
DWIDTH 6 0
BBX 11 11 0 -1
BITMAP
7FE0
4000
5DE0
5440
5D40
5540
5FE0
5080
5580
9AA0
8460
ENDCHAR
STARTCHAR uni53AC
ENCODING 21420
SWIDTH 500 0
DWIDTH 6 0
BBX 11 11 0 -1
BITMAP
7FE0
5040
5FC0
5040
5FC0
5280
6CC0
52A0
6FE0
8840
8FC0
ENDCHAR
STARTCHAR uni53AD
ENCODING 21421
SWIDTH 500 0
DWIDTH 6 0
BBX 11 11 0 -1
BITMAP
7FE0
4000
5EC0
52A0
5E80
53E0
5E80
5280
5E80
9340
A620
ENDCHAR
STARTCHAR uni53AE
ENCODING 21422
SWIDTH 500 0
DWIDTH 6 0
BBX 11 11 0 -1
BITMAP
7FE0
5220
7FC0
5280
5E80
52E0
5EA0
52A0
5FA0
92A0
A120
ENDCHAR
STARTCHAR uni53B2
ENCODING 21426
SWIDTH 500 0
DWIDTH 6 0
BBX 11 11 0 -1
BITMAP
7FE0
4480
5FE0
4480
4FC0
4A40
4FC0
4A40
5FE0
92A0
9760
ENDCHAR
STARTCHAR uni53B4
ENCODING 21428
SWIDTH 500 0
DWIDTH 6 0
BBX 11 11 0 -1
BITMAP
7FE0
54A0
5FE0
5480
5FC0
5260
5FC0
5240
5FC0
8200
8200
ENDCHAR
STARTCHAR uni53B6
ENCODING 21430
SWIDTH 500 0
DWIDTH 6 0
BBX 11 10 0 -1
BITMAP
0400
0400
0800
0800
1000
1080
2040
4FE0
F020
4000
ENDCHAR
STARTCHAR uni53B9
ENCODING 21433
SWIDTH 500 0
DWIDTH 6 0
BBX 10 11 0 -1
BITMAP
1000
FF00
1100
1140
2140
48C0
8800
1000
2200
FF80
4080
ENDCHAR
STARTCHAR uni53BB
ENCODING 21435
SWIDTH 500 0
DWIDTH 6 0
BBX 11 11 0 -1
BITMAP
0400
0400
3FC0
0400
0400
FFE0
0400
0900
1080
7FC0
2040
ENDCHAR
STARTCHAR uni53BF
ENCODING 21439
SWIDTH 500 0
DWIDTH 6 0
BBX 11 11 0 -1
BITMAP
3F80
2080
3F80
2080
3F80
2080
FFE0
0800
1080
7FC0
2040
ENDCHAR
STARTCHAR uni53C1
ENCODING 21441
SWIDTH 500 0
DWIDTH 6 0
BBX 11 11 0 -1
BITMAP
0800
1100
3F80
0440
FFE0
2080
DF60
0000
3F80
0000
FFE0
ENDCHAR
STARTCHAR uni53C2
ENCODING 21442
SWIDTH 500 0
DWIDTH 6 0
BBX 11 11 0 -1
BITMAP
0800
1100
3F80
0840
FFE0
2880
D260
2480
1900
0600
3800
ENDCHAR
STARTCHAR uni53C3
ENCODING 21443
SWIDTH 500 0
DWIDTH 6 0
BBX 11 11 0 -1
BITMAP
0800
1100
3E80
5140
FFC0
2080
CC60
3300
0C80
0300
7C00
ENDCHAR
STARTCHAR uni53C8
ENCODING 21448
SWIDTH 500 0
DWIDTH 6 0
BBX 10 11 0 -1
BITMAP
0100
7F80
2100
2100
1200
1200
1200
0C00
0C00
3300
C0C0
ENDCHAR
STARTCHAR uni53C9
ENCODING 21449
SWIDTH 500 0
DWIDTH 6 0
BBX 10 11 0 -1
BITMAP
0100
7F80
2900
2500
2200
1200
1400
0800
0C00
3300
C0C0
ENDCHAR
STARTCHAR uni53CA
ENCODING 21450
SWIDTH 500 0
DWIDTH 6 0
BBX 11 11 0 -1
BITMAP
3F80
0880
0900
0BC0
0840
0880
1480
1300
2100
4680
9860
ENDCHAR
STARTCHAR uni53CB
ENCODING 21451
SWIDTH 500 0
DWIDTH 6 0
BBX 10 11 0 -1
BITMAP
1000
1000
FFC0
1000
1F00
1100
1100
2A00
4400
9B00
60C0
ENDCHAR
STARTCHAR uni53CC
ENCODING 21452
SWIDTH 500 0
DWIDTH 6 0
BBX 11 10 0 -1
BITMAP
7FE0
0A40
4A40
2A40
1140
1140
2880
4580
8240
0420
ENDCHAR
STARTCHAR uni53CD
ENCODING 21453
SWIDTH 500 0
DWIDTH 6 0
BBX 11 11 0 -1
BITMAP
00C0
3F00
2000
3FC0
2880
2880
2500
2200
2200
4D80
B060
ENDCHAR
STARTCHAR uni53D1
ENCODING 21457
SWIDTH 500 0
DWIDTH 6 0
BBX 11 11 0 -1
BITMAP
2500
2480
4400
FFE0
0800
0F80
1880
2500
4200
8D80
7060
ENDCHAR
STARTCHAR uni53D4
ENCODING 21460
SWIDTH 500 0
DWIDTH 6 0
BBX 11 11 0 -1
BITMAP
13E0
1140
1D40
1140
FF40
1140
5540
5280
9280
9140
3220
ENDCHAR
STARTCHAR uni53D6
ENCODING 21462
SWIDTH 500 0
DWIDTH 6 0
BBX 11 11 0 -1
BITMAP
FE00
4800
4BE0
7A20
4A20
7940
4940
4880
5C80
E940
0A20
ENDCHAR
STARTCHAR uni53D7
ENCODING 21463
SWIDTH 500 0
DWIDTH 6 0
BBX 10 11 0 -1
BITMAP
0300
7C80
2880
1500
FFC0
8040
3F00
1200
0C00
3300
C0C0
ENDCHAR
STARTCHAR uni53D8
ENCODING 21464
SWIDTH 500 0
DWIDTH 6 0
BBX 10 11 0 -1
BITMAP
0400
FFC0
1200
5280
9240
0000
7F00
2200
1C00
3300
C0C0
ENDCHAR
STARTCHAR uni53D9
ENCODING 21465
SWIDTH 500 0
DWIDTH 6 0
BBX 11 11 0 -1
BITMAP
1000
2BE0
4520
BB20
1120
7D40
1140
5880
5540
9220
3420
ENDCHAR
STARTCHAR uni53DB
ENCODING 21467
SWIDTH 500 0
DWIDTH 6 0
BBX 10 11 0 -1
BITMAP
2180
AE00
7400
2400
FFC0
2480
FC80
2680
2900
5280
A440
ENDCHAR
STARTCHAR uni53DF
ENCODING 21471
SWIDTH 500 0
DWIDTH 6 0
BBX 11 11 0 -1
BITMAP
1400
65C0
4440
75C0
4440
7FC0
0400
FFE0
1100
0E00
F1E0
ENDCHAR
STARTCHAR uni53E0
ENCODING 21472
SWIDTH 500 0
DWIDTH 6 0
BBX 11 11 0 -1
BITMAP
3F80
0A00
1500
FFE0
5280
AD40
FFE0
A0A0
3F80
2080
FFE0
ENDCHAR
STARTCHAR uni53E1
ENCODING 21473
SWIDTH 500 0
DWIDTH 6 0
BBX 11 11 0 -1
BITMAP
39E0
2120
FD20
B520
CD20
2940
FD40
4880
7940
4A20
7A20
ENDCHAR
STARTCHAR uni53E2
ENCODING 21474
SWIDTH 500 0
DWIDTH 6 0
BBX 11 11 0 -1
BITMAP
2A80
FFE0
1200
7FC0
0400
FFE0
4540
7D40
4480
FD40
0620
ENDCHAR
STARTCHAR uni53E3
ENCODING 21475
SWIDTH 500 0
DWIDTH 6 0
BBX 8 9 0 0
BITMAP
FF
81
81
81
81
81
81
FF
81
ENDCHAR
STARTCHAR uni53E4
ENCODING 21476
SWIDTH 500 0
DWIDTH 6 0
BBX 11 11 0 -1
BITMAP
0400
0400
FFE0
0400
0400
3F80
2080
2080
2080
3F80
2080
ENDCHAR
STARTCHAR uni53E5
ENCODING 21477
SWIDTH 500 0
DWIDTH 6 0
BBX 10 11 0 -1
BITMAP
2000
3FC0
4040
8040
7C40
4440
4440
7C40
4440
0040
0180
ENDCHAR
STARTCHAR uni53E6
ENCODING 21478
SWIDTH 500 0
DWIDTH 6 0
BBX 10 11 0 -1
BITMAP
3F80
2080
2080
3F80
2480
0400
FFC0
0840
1040
2240
4180
ENDCHAR
STARTCHAR uni53E8
ENCODING 21480
SWIDTH 500 0
DWIDTH 6 0
BBX 11 11 0 -1
BITMAP
07E0
F120
9120
9120
9120
9120
F220
9220
0420
0920
30C0
ENDCHAR
STARTCHAR uni53E9
ENCODING 21481
SWIDTH 500 0
DWIDTH 6 0
BBX 10 11 0 -1
BITMAP
07C0
F440
9440
9440
9440
9440
F440
9540
0480
0400
0400
ENDCHAR
STARTCHAR uni53EA
ENCODING 21482
SWIDTH 500 0
DWIDTH 6 0
BBX 11 11 0 -1
BITMAP
3F80
2080
2080
2080
2080
3F80
2080
0000
0A00
3180
C060
ENDCHAR
STARTCHAR uni53EB
ENCODING 21483
SWIDTH 500 0
DWIDTH 6 0
BBX 10 11 0 -1
BITMAP
0040
F440
9440
9440
9440
9440
F5C0
9640
0040
0040
0040
ENDCHAR
STARTCHAR uni53EC
ENCODING 21484
SWIDTH 500 0
DWIDTH 6 0
BBX 9 11 0 -1
BITMAP
FF80
1080
1080
1480
2300
4000
BF80
2080
2080
3F80
2080
ENDCHAR
STARTCHAR uni53ED
ENCODING 21485
SWIDTH 500 0
DWIDTH 6 0
BBX 11 10 0 0
BITMAP
0080
F280
9280
9280
9280
9280
F440
9440
0820
1020
ENDCHAR
STARTCHAR uni53EE
ENCODING 21486
SWIDTH 500 0
DWIDTH 6 0
BBX 11 11 0 -1
BITMAP
07E0
F080
9080
9080
9080
9080
F080
9080
0080
0280
0100
ENDCHAR
STARTCHAR uni53EF
ENCODING 21487
SWIDTH 500 0
DWIDTH 6 0
BBX 11 11 0 -1
BITMAP
FFE0
0080
0080
3C80
2480
2480
3C80
2480
0080
0380
0100
ENDCHAR
STARTCHAR uni53F0
ENCODING 21488
SWIDTH 500 0
DWIDTH 6 0
BBX 9 11 0 -1
BITMAP
1800
1000
2200
4100
FE80
0000
7F00
4100
4100
7F00
4100
ENDCHAR
STARTCHAR uni53F1
ENCODING 21489
SWIDTH 500 0
DWIDTH 6 0
BBX 11 11 0 -1
BITMAP
0200
F200
9260
9240
9280
9300
9600
F200
9220
0220
01E0
ENDCHAR
STARTCHAR uni53F2
ENCODING 21490
SWIDTH 500 0
DWIDTH 6 0
BBX 10 11 0 -1
BITMAP
0400
0400
7FC0
4440
4440
7FC0
2400
1400
0800
3600
C1C0
ENDCHAR
STARTCHAR uni53F3
ENCODING 21491
SWIDTH 500 0
DWIDTH 6 0
BBX 10 11 0 -1
BITMAP
0800
0800
FFC0
1000
1000
3F80
5080
9080
1080
1F80
1080
ENDCHAR
STARTCHAR uni53F5
ENCODING 21493
SWIDTH 500 0
DWIDTH 6 0
BBX 10 11 0 -1
BITMAP
FFC0
8000
8000
9F00
9100
9100
9F00
9100
8000
8000
FFC0
ENDCHAR
STARTCHAR uni53F6
ENCODING 21494
SWIDTH 500 0
DWIDTH 6 0
BBX 11 11 0 -1
BITMAP
0100
F100
9100
9100
9FE0
9100
F100
9100
0100
0100
0100
ENDCHAR
STARTCHAR uni53F7
ENCODING 21495
SWIDTH 500 0
DWIDTH 6 0
BBX 10 11 0 -1
BITMAP
3F00
2100
3F00
2100
0000
FFC0
2000
7F80
0080
0900
0600
ENDCHAR
STARTCHAR uni53F8
ENCODING 21496
SWIDTH 500 0
DWIDTH 6 0
BBX 11 11 0 -1
BITMAP
7FE0
0020
FFA0
0020
3E20
2220
2220
3E20
2220
01E0
0040
ENDCHAR
STARTCHAR uni53F9
ENCODING 21497
SWIDTH 500 0
DWIDTH 6 0
BBX 11 11 0 -1
BITMAP
0FE0
F440
9440
9240
9280
9280
F100
9100
0280
0440
1820
ENDCHAR
STARTCHAR uni53FB
ENCODING 21499
SWIDTH 500 0
DWIDTH 6 0
BBX 11 11 0 -1
BITMAP
0100
F100
9100
97E0
9120
9120
F120
9220
0220
0520
18C0
ENDCHAR
STARTCHAR uni53FC
ENCODING 21500
SWIDTH 500 0
DWIDTH 6 0
BBX 11 11 0 -1
BITMAP
07E0
F020
9020
90A0
9120
9220
F420
9020
0020
0120
00C0
ENDCHAR
STARTCHAR uni53FD
ENCODING 21501
SWIDTH 500 0
DWIDTH 6 0
BBX 11 11 0 -1
BITMAP
0780
F480
9480
9480
9480
9480
F480
9480
04A0
08A0
1060
ENDCHAR
STARTCHAR uni5401
ENCODING 21505
SWIDTH 500 0
DWIDTH 6 0
BBX 11 11 0 -1
BITMAP
07C0
F100
9100
9100
9FE0
9100
F100
9100
0100
0500
0200
ENDCHAR
STARTCHAR uni5403
ENCODING 21507
SWIDTH 500 0
DWIDTH 6 0
BBX 11 11 0 -1
BITMAP
0200
F200
97E0
9800
97C0
9080
9100
F200
9420
0420
03E0
ENDCHAR
STARTCHAR uni5404
ENCODING 21508
SWIDTH 500 0
DWIDTH 6 0
BBX 11 11 0 -1
BITMAP
1080
1FC0
2080
D100
0E00
1100
3F80
E0E0
2080
3F80
2080
ENDCHAR
STARTCHAR uni5406
ENCODING 21510
SWIDTH 500 0
DWIDTH 6 0
BBX 11 11 0 -1
BITMAP
0200
F200
9240
9440
9480
9F80
9100
F240
9220
0FE0
0420
ENDCHAR
STARTCHAR uni5407
ENCODING 21511
SWIDTH 500 0
DWIDTH 6 0
BBX 11 11 0 -1
BITMAP
0FE0
F040
9080
9100
9FE0
9100
9100
F100
9100
0500
0200
ENDCHAR
STARTCHAR uni5408
ENCODING 21512
SWIDTH 500 0
DWIDTH 6 0
BBX 11 11 0 -1
BITMAP
0400
0A00
1100
2080
DF60
0000
3F80
2080
2080
3F80
2080
ENDCHAR
STARTCHAR uni5409
ENCODING 21513
SWIDTH 500 0
DWIDTH 6 0
BBX 11 11 0 -1
BITMAP
0400
0400
FFE0
0400
7FC0
0000
3F80
2080
2080
3F80
2080
ENDCHAR
STARTCHAR uni540A
ENCODING 21514
SWIDTH 500 0
DWIDTH 6 0
BBX 9 11 0 -1
BITMAP
7F00
4100
4100
7F00
0800
FF80
8880
8880
8880
8B80
0800
ENDCHAR
STARTCHAR uni540B
ENCODING 21515
SWIDTH 500 0
DWIDTH 6 0
BBX 11 11 0 -1
BITMAP
0040
F040
9040
97E0
9040
9440
F240
9240
0040
0140
0080
ENDCHAR
STARTCHAR uni540C
ENCODING 21516
SWIDTH 500 0
DWIDTH 6 0
BBX 10 11 0 -1
BITMAP
FFC0
8040
BF40
8040
9E40
9240
9240
9E40
9240
8140
8080
ENDCHAR
STARTCHAR uni540D
ENCODING 21517
SWIDTH 500 0
DWIDTH 6 0
BBX 9 11 0 -1
BITMAP
1000
1F80
3100
CA00
0400
0800
1F80
F080
1080
1F80
1080
ENDCHAR
STARTCHAR uni540E
ENCODING 21518
SWIDTH 500 0
DWIDTH 6 0
BBX 11 11 0 -1
BITMAP
0080
3F00
2000
3FE0
2000
2000
2FC0
2840
2840
4FC0
8840
ENDCHAR
STARTCHAR uni540F
ENCODING 21519
SWIDTH 500 0
DWIDTH 6 0
BBX 10 11 0 -1
BITMAP
0400
FFC0
0400
7F80
4480
7F80
4480
1400
0800
3600
C1C0
ENDCHAR
STARTCHAR uni5410
ENCODING 21520
SWIDTH 500 0
DWIDTH 6 0
BBX 11 11 0 -1
BITMAP
0100
0100
F100
9100
97C0
9100
9100
F100
9100
0100
0FE0
ENDCHAR
STARTCHAR uni5411
ENCODING 21521
SWIDTH 500 0
DWIDTH 6 0
BBX 11 11 0 -1
BITMAP
0C00
0800
FFE0
8020
9F20
9120
9120
9F20
9120
80E0
8040
ENDCHAR
STARTCHAR uni5412
ENCODING 21522
SWIDTH 500 0
DWIDTH 6 0
BBX 11 11 0 -1
BITMAP
0040
0780
F100
9100
9160
9780
9100
F100
9120
0120
00E0
ENDCHAR
STARTCHAR uni5413
ENCODING 21523
SWIDTH 500 0
DWIDTH 6 0
BBX 11 11 0 -1
BITMAP
0FE0
F100
9100
9100
9180
9160
F120
9100
0100
0100
0100
ENDCHAR
STARTCHAR uni5415
ENCODING 21525
SWIDTH 500 0
DWIDTH 6 0
BBX 8 11 0 -1
BITMAP
7E
42
42
7E
42
00
FF
81
81
FF
81
ENDCHAR
STARTCHAR uni5416
ENCODING 21526
SWIDTH 500 0
DWIDTH 6 0
BBX 11 11 0 -1
BITMAP
0820
F440
9280
9100
9100
9100
9100
F100
9100
0100
0100
ENDCHAR
STARTCHAR uni5417
ENCODING 21527
SWIDTH 500 0
DWIDTH 6 0
BBX 11 11 0 -1
BITMAP
0FC0
F040
9240
9280
9480
9FE0
9020
F7A0
9020
0120
00C0
ENDCHAR
STARTCHAR uni5418
ENCODING 21528
SWIDTH 500 0
DWIDTH 6 0
BBX 11 11 0 -1
BITMAP
0400
F7C0
9900
9100
9100
9FE0
9100
F100
9100
0100
0100
ENDCHAR
STARTCHAR uni5419
ENCODING 21529
SWIDTH 500 0
DWIDTH 6 0
BBX 11 11 0 -1
BITMAP
0100
F100
9120
9540
9580
9900
9100
F180
9240
0420
0820
ENDCHAR
STARTCHAR uni541B
ENCODING 21531
SWIDTH 500 0
DWIDTH 6 0
BBX 10 11 0 -1
BITMAP
7F00
0900
FFC0
0900
7F00
1000
3F80
5080
9080
1F80
1080
ENDCHAR
STARTCHAR uni541C
ENCODING 21532
SWIDTH 500 0
DWIDTH 6 0
BBX 11 11 0 -1
BITMAP
07C0
F240
9240
9240
9240
97C0
F240
9240
0240
0240
1FE0
ENDCHAR
STARTCHAR uni541D
ENCODING 21533
SWIDTH 500 0
DWIDTH 6 0
BBX 10 11 0 -1
BITMAP
0800
FFC0
2100
1200
0C00
1200
FFC0
2100
2100
3F00
2100
ENDCHAR
STARTCHAR uni541E
ENCODING 21534
SWIDTH 500 0
DWIDTH 6 0
BBX 10 11 0 -1
BITMAP
7F80
0800
0800
FFC0
1200
2100
7F80
A140
2100
3F00
2100
ENDCHAR
STARTCHAR uni541F
ENCODING 21535
SWIDTH 500 0
DWIDTH 6 0
BBX 11 11 0 -1
BITMAP
0100
F280
9440
9A20
9100
9000
97C0
F040
9080
0100
0200
ENDCHAR
STARTCHAR uni5420
ENCODING 21536
SWIDTH 500 0
DWIDTH 6 0
BBX 11 11 0 -1
BITMAP
0180
F140
9100
9FE0
9100
9100
F100
9280
0440
0820
1020
ENDCHAR
STARTCHAR uni5421
ENCODING 21537
SWIDTH 500 0
DWIDTH 6 0
BBX 11 11 0 -1
BITMAP
0900
E900
A920
A940
AF80
A900
A900
E900
AB20
0D20
18E0
ENDCHAR
STARTCHAR uni5423
ENCODING 21539
SWIDTH 500 0
DWIDTH 6 0
BBX 11 11 0 -1
BITMAP
0100
E080
A000
A200
A240
A620
AA20
EA00
A220
0220
01E0
ENDCHAR
STARTCHAR uni5424
ENCODING 21540
SWIDTH 500 0
DWIDTH 6 0
BBX 11 11 0 -1
BITMAP
0100
F300
9480
9840
94A0
9480
F480
9480
0480
0880
1080
ENDCHAR
STARTCHAR uni5425
ENCODING 21541
SWIDTH 500 0
DWIDTH 6 0
BBX 11 11 0 -1
BITMAP
0FE0
F080
9100
9100
9340
9520
9920
F100
9100
0100
0100
ENDCHAR
STARTCHAR uni5426
ENCODING 21542
SWIDTH 500 0
DWIDTH 6 0
BBX 10 11 0 -1
BITMAP
FFC0
0400
0C00
1500
2480
C440
3F80
2080
2080
3F80
2080
ENDCHAR
STARTCHAR uni5427
ENCODING 21543
SWIDTH 500 0
DWIDTH 6 0
BBX 11 11 0 -1
BITMAP
07C0
F540
9540
9540
9540
97C0
F440
9400
0420
0420
03E0
ENDCHAR
STARTCHAR uni5428
ENCODING 21544
SWIDTH 500 0
DWIDTH 6 0
BBX 11 11 0 -1
BITMAP
0100
F100
9FE0
9100
9540
9540
97C0
F540
9120
0120
00E0
ENDCHAR
STARTCHAR uni5429
ENCODING 21545
SWIDTH 500 0
DWIDTH 6 0
BBX 11 11 0 -1
BITMAP
0280
F280
9480
9840
9020
97C0
F240
9240
0440
0940
1080
ENDCHAR
STARTCHAR uni542A
ENCODING 21546
SWIDTH 500 0
DWIDTH 6 0
BBX 11 11 0 -1
BITMAP
0500
E500
A500
A520
AD40
B580
A700
E500
A520
0520
04E0
ENDCHAR
STARTCHAR uni542B
ENCODING 21547
SWIDTH 500 0
DWIDTH 6 0
BBX 10 11 0 -1
BITMAP
0C00
1200
2900
C4C0
7F00
0200
0400
3F80
2080
3F80
2080
ENDCHAR
STARTCHAR uni542C
ENCODING 21548
SWIDTH 500 0
DWIDTH 6 0
BBX 11 11 0 -1
BITMAP
00C0
F700
9400
9400
97E0
9480
F480
9480
0880
1080
2080
ENDCHAR
STARTCHAR uni542D
ENCODING 21549
SWIDTH 500 0
DWIDTH 6 0
BBX 11 11 0 -1
BITMAP
0200
F100
9FE0
9000
9780
9480
9480
F480
94A0
08A0
1060
ENDCHAR
STARTCHAR uni542E
ENCODING 21550
SWIDTH 500 0
DWIDTH 6 0
BBX 11 11 0 -1
BITMAP
0100
F200
9440
9FA0
9000
9280
F280
9480
04A0
08A0
3060
ENDCHAR
STARTCHAR uni542F
ENCODING 21551
SWIDTH 500 0
DWIDTH 6 0
BBX 11 11 0 -1
BITMAP
0400
3FC0
2040
2040
3FC0
2000
2FE0
2820
2820
4FE0
8820
ENDCHAR
STARTCHAR uni5430
ENCODING 21552
SWIDTH 500 0
DWIDTH 6 0
BBX 11 11 0 -1
BITMAP
0200
E200
AFE0
A200
A400
A500
A900
E940
B240
27A0
0220
ENDCHAR
STARTCHAR uni5431
ENCODING 21553
SWIDTH 500 0
DWIDTH 6 0
BBX 11 11 0 -1
BITMAP
0100
F100
9FE0
9100
97C0
9440
F280
9280
0100
0680
1860
ENDCHAR
STARTCHAR uni5432
ENCODING 21554
SWIDTH 500 0
DWIDTH 6 0
BBX 11 11 0 -1
BITMAP
0F20
E120
A120
AF20
A820
AF20
A120
E120
A120
0920
0620
ENDCHAR
STARTCHAR uni5433
ENCODING 21555
SWIDTH 500 0
DWIDTH 6 0
BBX 11 11 0 -1
BITMAP
0F80
2880
2880
2F80
2000
3FC0
0440
7FE0
0400
1B00
E0E0
ENDCHAR
STARTCHAR uni5434
ENCODING 21556
SWIDTH 500 0
DWIDTH 6 0
BBX 10 11 0 -1
BITMAP
3F00
2100
2100
3F00
0000
7F80
0400
FFC0
0A00
1100
60C0
ENDCHAR
STARTCHAR uni5435
ENCODING 21557
SWIDTH 500 0
DWIDTH 6 0
BBX 11 11 0 -1
BITMAP
0100
F100
9340
9520
9900
9120
F140
9080
0100
0200
1C00
ENDCHAR
STARTCHAR uni5436
ENCODING 21558
SWIDTH 500 0
DWIDTH 6 0
BBX 11 11 0 -1
BITMAP
0100
E100
AFE0
A920
A920
A9A0
EA60
AC20
0820
0820
0860
ENDCHAR
STARTCHAR uni5437
ENCODING 21559
SWIDTH 500 0
DWIDTH 6 0
BBX 11 11 0 -1
BITMAP
0200
E200
AFC0
A240
A240
BFE0
E200
A200
0500
0880
3060
ENDCHAR
STARTCHAR uni5438
ENCODING 21560
SWIDTH 500 0
DWIDTH 6 0
BBX 11 11 0 -1
BITMAP
0FC0
E480
A480
A500
A5E0
A440
E440
AA80
1180
2240
4C20
ENDCHAR
STARTCHAR uni5439
ENCODING 21561
SWIDTH 500 0
DWIDTH 6 0
BBX 11 11 0 -1
BITMAP
0400
F400
97E0
9420
9940
9100
9100
F100
92C0
0460
0820
ENDCHAR
STARTCHAR uni543B
ENCODING 21563
SWIDTH 500 0
DWIDTH 6 0
BBX 11 11 0 -1
BITMAP
0400
F400
97E0
9AA0
92A0
92A0
F4A0
9920
0220
0520
08C0
ENDCHAR
STARTCHAR uni543C
ENCODING 21564
SWIDTH 500 0
DWIDTH 6 0
BBX 11 11 0 -1
BITMAP
1F80
E280
A480
A480
A480
A680
EC80
B480
04A0
14A0
0C60
ENDCHAR
STARTCHAR uni543D
ENCODING 21565
SWIDTH 500 0
DWIDTH 6 0
BBX 11 11 0 -1
BITMAP
0500
F500
97C0
9900
9100
9100
FFE0
9100
0100
0100
0100
ENDCHAR
STARTCHAR uni543E
ENCODING 21566
SWIDTH 500 0
DWIDTH 6 0
BBX 11 11 0 -1
BITMAP
FFC0
0800
7F80
1080
1080
FFE0
0000
7FC0
4040
7FC0
4040
ENDCHAR
STARTCHAR uni5440
ENCODING 21568
SWIDTH 500 0
DWIDTH 6 0
BBX 11 11 0 -1
BITMAP
0FE0
E080
A080
A480
AFE0
A080
E280
A280
0480
0B80
1100
ENDCHAR
STARTCHAR uni5441
ENCODING 21569
SWIDTH 500 0
DWIDTH 6 0
BBX 11 11 0 -1
BITMAP
0400
E7E0
A820
B020
A220
A120
A1A0
EE20
0020
0120
00C0
ENDCHAR
STARTCHAR uni5442
ENCODING 21570
SWIDTH 500 0
DWIDTH 6 0
BBX 9 11 0 -1
BITMAP
7F00
4100
4100
7F00
4900
1000
FF80
8080
8080
FF80
8080
ENDCHAR
STARTCHAR uni5443
ENCODING 21571
SWIDTH 500 0
DWIDTH 6 0
BBX 11 11 0 -1
BITMAP
EFE0
A800
ABC0
AA40
AA40
AA40
EA40
AAC0
0A20
1220
21E0
ENDCHAR
STARTCHAR uni5445
ENCODING 21573
SWIDTH 500 0
DWIDTH 6 0
BBX 11 11 0 -1
BITMAP
0200
F100
9FE0
9440
9440
9280
9280
F100
9280
0440
0820
ENDCHAR
STARTCHAR uni5446
ENCODING 21574
SWIDTH 500 0
DWIDTH 6 0
BBX 11 11 0 -1
BITMAP
3F80
2080
2080
3F80
0400
FFE0
1500
1500
24C0
4460
8420
ENDCHAR
ENDFONT
